  0
SECTION
  2
HEADER
  9
$ACADVER
  1
AC2.10
  9
$INSUNITS
 70
     1
  0
ENDSEC
  0
SECTION
  2
TABLES
  0
TABLE
  2
LAYER
 70
     8
  0
LAYER
  2
0
 62
     7
 70
0
  6
CONTINUOUS
  0
LAYER
  2
1
 62
     1
 70
0
  6
CONTINUOUS
  0
LAYER
  2
2
 62
     2
 70
0
  6
CONTINUOUS
  0
LAYER
  2
3
 62
     3
 70
0
  6
CONTINUOUS
  0
LAYER
  2
4
 62
     4
 70
0
  6
CONTINUOUS
  0
LAYER
  2
5
 62
     5
 70
0
  6
CONTINUOUS
  0
LAYER
  2
6
 62
     6
 70
0
  6
CONTINUOUS
  0
LAYER
  2
7
 62
     7
 70
0
  6
CONTINUOUS
  0
ENDTAB
  0
TABLE
  2
STYLE
 70
     1
  0
STYLE
 70
     0
  2
STANDARD
  3
TXT
 40
0.00
 41
1.00
 42
1.00
 50
0.00
 71
     0
  0
ENDTAB
  0
ENDSEC
  0
SECTION
  2
BLOCKS
  0
BLOCK
  8
0
  2
EPAD
 70
0
 10
0.0
 20
0.0
  0
POLYLINE
  8
0
 66
1
 70
1
 40
0.5
 41
0.5
  0
VERTEX
  8
0
 10
-0.25
 20
0.0
 42
1.0
  0
VERTEX
  8
0
 10
0.25
 20
0.0
 42
1.0
  0
SEQEND
  8
0
  0
ENDBLK
  8
0
  0
BLOCK
  8
0
  2
RPAD
 70
0
 10
0.0
 20
0.0
  0
TRACE
  8
0
 10
-0.5
 20
-0.5
 11
-0.5
 21
0.5
 12
0.5
 22
-0.5
 13
0.5
 23
0.5
  0
ENDBLK
  8
0
  0
ENDSEC
0
SECTION
2
ENTITIES
0
POLYLINE
8
0
66
1
40
0.025000
41
0.025000
0
VERTEX
8
0
10
-0.155000
20
1.008000
0
VERTEX
8
0
10
-0.155000
20
0.872000
0
VERTEX
8
0
10
-0.093000
20
0.810000
0
VERTEX
8
0
10
0.003000
20
0.713000
0
VERTEX
8
0
10
0.986000
20
0.713000
0
VERTEX
8
0
10
0.999000
20
0.700000
0
VERTEX
8
0
10
1.061000
20
0.638000
0
VERTEX
8
0
10
1.061000
20
0.146000
0
VERTEX
8
0
10
0.996000
20
0.080000
0
SEQEND
8
0
0
POLYLINE
8
0
66
1
40
0.025000
41
0.025000
0
VERTEX
8
0
10
1.178000
20
0.117000
0
VERTEX
8
0
10
1.178000
20
0.667000
0
VERTEX
8
0
10
0.968000
20
0.877000
0
VERTEX
8
0
10
0.068000
20
0.877000
0
VERTEX
8
0
10
-0.055000
20
1.001000
0
VERTEX
8
0
10
-0.055000
20
1.010000
0
VERTEX
8
0
10
-0.039000
20
1.001000
0
SEQEND
8
0
0
POLYLINE
8
0
66
1
40
0.025000
41
0.025000
0
VERTEX
8
0
10
-0.192000
20
-0.935000
0
VERTEX
8
0
10
-1.122000
20
-0.935000
0
VERTEX
8
0
10
-1.220000
20
-1.033000
0
SEQEND
8
0
0
POLYLINE
8
0
66
1
40
0.025000
41
0.025000
0
VERTEX
8
0
10
-1.334000
20
0.777000
0
VERTEX
8
0
10
-1.338000
20
0.769000
0
VERTEX
8
0
10
-1.535000
20
0.769000
0
VERTEX
8
0
10
-1.669000
20
0.903000
0
VERTEX
8
0
10
-1.669000
20
1.239000
0
VERTEX
8
0
10
-1.548000
20
1.359000
0
VERTEX
8
0
10
0.518000
20
1.359000
0
VERTEX
8
0
10
0.640000
20
1.238000
0
SEQEND
8
0
0
POLYLINE
8
0
66
1
40
0.025000
41
0.025000
0
VERTEX
8
0
10
-1.295000
20
0.135000
0
VERTEX
8
0
10
-1.295000
20
0.596000
0
VERTEX
8
0
10
-1.208000
20
0.683000
0
VERTEX
8
0
10
-1.208000
20
0.882000
0
VERTEX
8
0
10
-1.229000
20
0.903000
0
VERTEX
8
0
10
-1.490000
20
0.903000
0
VERTEX
8
0
10
-1.544000
20
0.957000
0
SEQEND
8
0
0
POLYLINE
8
0
66
1
40
0.025000
41
0.025000
0
VERTEX
8
0
10
0.488000
20
-0.624000
0
VERTEX
8
0
10
0.488000
20
-0.428000
0
VERTEX
8
0
10
0.787000
20
-0.129000
0
VERTEX
8
0
10
0.915000
20
-0.129000
0
VERTEX
8
0
10
0.919000
20
-0.134000
0
VERTEX
8
0
10
0.948000
20
-0.138000
0
SEQEND
8
0
0
POLYLINE
8
0
66
1
40
0.025000
41
0.025000
0
VERTEX
8
0
10
-0.561000
20
0.509000
0
VERTEX
8
0
10
-1.075000
20
0.509000
0
VERTEX
8
0
10
-1.138000
20
0.571000
0
VERTEX
8
0
10
-1.138000
20
0.654000
0
VERTEX
8
0
10
-1.063000
20
0.728000
0
SEQEND
8
0
0
POLYLINE
8
0
66
1
40
0.025000
41
0.025000
0
VERTEX
8
0
10
0.915000
20
-0.129000
0
VERTEX
8
0
10
1.127000
20
-0.129000
0
VERTEX
8
0
10
1.417000
20
0.160000
0
VERTEX
8
0
10
1.835000
20
0.160000
0
VERTEX
8
0
10
1.874000
20
0.198000
0
VERTEX
8
0
10
1.874000
20
0.494000
0
VERTEX
8
0
10
1.809000
20
0.558000
0
VERTEX
8
0
10
1.409000
20
0.558000
0
VERTEX
8
0
10
1.247000
20
0.720000
0
VERTEX
8
0
10
1.247000
20
0.860000
0
VERTEX
8
0
10
1.181000
20
0.927000
0
SEQEND
8
0
0
INSERT
8
0
2
EPAD
10
-0.155000
20
1.008000
41
0.060000
42
0.060000
0
CIRCLE
8
0
10
-0.155000
20
1.008000
40
0.025000
0
INSERT
8
0
2
EPAD
10
0.996000
20
0.080000
41
0.060000
42
0.060000
0
CIRCLE
8
0
10
0.996000
20
0.080000
40
0.025000
0
INSERT
8
0
2
EPAD
10
1.178000
20
0.117000
41
0.060000
42
0.060000
0
CIRCLE
8
0
10
1.178000
20
0.117000
40
0.025000
0
INSERT
8
0
2
EPAD
10
-0.039000
20
1.001000
41
0.060000
42
0.060000
0
CIRCLE
8
0
10
-0.039000
20
1.001000
40
0.025000
0
INSERT
8
0
2
EPAD
10
-1.334000
20
0.777000
41
0.070000
42
0.070000
0
CIRCLE
8
0
10
-1.334000
20
0.777000
40
0.025000
0
INSERT
8
0
2
EPAD
10
-1.295000
20
0.135000
41
0.070000
42
0.070000
0
CIRCLE
8
0
10
-1.295000
20
0.135000
40
0.025000
0
INSERT
8
0
2
EPAD
10
-1.544000
20
0.957000
41
0.070000
42
0.070000
0
CIRCLE
8
0
10
-1.544000
20
0.957000
40
0.025000
0
INSERT
8
0
2
EPAD
10
-0.561000
20
0.509000
41
0.070000
42
0.070000
0
CIRCLE
8
0
10
-0.561000
20
0.509000
40
0.025000
0
INSERT
8
0
2
EPAD
10
-1.063000
20
0.728000
41
0.070000
42
0.070000
0
CIRCLE
8
0
10
-1.063000
20
0.728000
40
0.025000
0
INSERT
8
0
2
EPAD
10
1.181000
20
0.927000
41
0.070000
42
0.070000
0
CIRCLE
8
0
10
1.181000
20
0.927000
40
0.025000
0
INSERT
8
0
2
EPAD
10
-1.811000
20
-1.395000
41
0.250000
42
0.250000
0
CIRCLE
8
0
10
-1.811000
20
-1.395000
40
0.030000
0
INSERT
8
0
2
EPAD
10
-1.523000
20
-1.301000
41
0.120000
42
0.120000
0
CIRCLE
8
0
10
-1.523000
20
-1.301000
40
0.030000
0
INSERT
8
0
2
EPAD
10
-1.323000
20
-1.301000
41
0.120000
42
0.120000
0
CIRCLE
8
0
10
-1.323000
20
-1.301000
40
0.030000
0
INSERT
8
0
2
EPAD
10
-1.055000
20
-1.206000
41
0.100000
42
0.100000
0
CIRCLE
8
0
10
-1.055000
20
-1.206000
40
0.025000
0
INSERT
8
0
2
EPAD
10
-0.855000
20
-1.406000
41
0.100000
42
0.100000
0
CIRCLE
8
0
10
-0.855000
20
-1.406000
40
0.025000
0
INSERT
8
0
2
EPAD
10
-1.055000
20
-1.406000
41
0.100000
42
0.100000
0
CIRCLE
8
0
10
-1.055000
20
-1.406000
40
0.025000
0
INSERT
8
0
2
EPAD
10
-0.855000
20
-1.206000
41
0.100000
42
0.100000
0
CIRCLE
8
0
10
-0.855000
20
-1.206000
40
0.025000
0
INSERT
8
0
2
EPAD
10
0.523000
20
-1.253000
41
0.150000
42
0.150000
0
CIRCLE
8
0
10
0.523000
20
-1.253000
40
0.030000
0
INSERT
8
0
2
EPAD
10
-0.460000
20
-1.253000
41
0.150000
42
0.150000
0
CIRCLE
8
0
10
-0.460000
20
-1.253000
40
0.030000
0
INSERT
8
0
2
RPAD
10
-0.084000
20
-1.332000
41
0.080000
42
0.080000
50
0.000000
0
CIRCLE
8
0
10
-0.084000
20
-1.332000
40
0.025000
0
INSERT
8
0
2
RPAD
10
0.015000
20
-1.332000
41
0.080000
42
0.080000
50
0.000000
0
CIRCLE
8
0
10
0.015000
20
-1.332000
40
0.025000
0
INSERT
8
0
2
RPAD
10
0.115000
20
-1.332000
41
0.080000
42
0.080000
50
0.000000
0
CIRCLE
8
0
10
0.115000
20
-1.332000
40
0.025000
0
INSERT
8
0
2
RPAD
10
0.948000
20
-0.338000
41
0.080000
42
0.080000
50
90.000000
0
CIRCLE
8
0
10
0.948000
20
-0.338000
40
0.025000
0
INSERT
8
0
2
RPAD
10
0.948000
20
-0.238000
41
0.080000
42
0.080000
50
90.000000
0
CIRCLE
8
0
10
0.948000
20
-0.238000
40
0.025000
0
INSERT
8
0
2
RPAD
10
0.948000
20
-0.138000
41
0.080000
42
0.080000
50
90.000000
0
CIRCLE
8
0
10
0.948000
20
-0.138000
40
0.025000
0
INSERT
8
0
2
EPAD
10
-1.220000
20
-1.033000
41
0.070000
42
0.070000
0
CIRCLE
8
0
10
-1.220000
20
-1.033000
40
0.025000
0
INSERT
8
0
2
EPAD
10
-0.820000
20
-1.033000
41
0.070000
42
0.070000
0
CIRCLE
8
0
10
-0.820000
20
-1.033000
40
0.025000
0
INSERT
8
0
2
EPAD
10
0.207000
20
-0.935000
41
0.090000
42
0.090000
0
CIRCLE
8
0
10
0.207000
20
-0.935000
40
0.025000
0
INSERT
8
0
2
EPAD
10
-0.192000
20
-0.935000
41
0.090000
42
0.090000
0
CIRCLE
8
0
10
-0.192000
20
-0.935000
40
0.025000
0
INSERT
8
0
2
EPAD
10
-0.901000
20
-0.753000
41
0.100000
42
0.100000
0
CIRCLE
8
0
10
-0.901000
20
-0.753000
40
0.025000
0
INSERT
8
0
2
EPAD
10
-0.701000
20
-0.753000
41
0.100000
42
0.100000
0
CIRCLE
8
0
10
-0.701000
20
-0.753000
40
0.025000
0
INSERT
8
0
2
EPAD
10
0.527000
20
-0.860000
41
0.080000
42
0.080000
0
CIRCLE
8
0
10
0.527000
20
-0.860000
40
0.025000
0
INSERT
8
0
2
EPAD
10
0.627000
20
-0.860000
41
0.080000
42
0.080000
0
CIRCLE
8
0
10
0.627000
20
-0.860000
40
0.025000
0
INSERT
8
0
2
EPAD
10
0.488000
20
-0.624000
41
0.070000
42
0.070000
0
CIRCLE
8
0
10
0.488000
20
-0.624000
40
0.025000
0
INSERT
8
0
2
EPAD
10
0.688000
20
-0.624000
41
0.070000
42
0.070000
0
CIRCLE
8
0
10
0.688000
20
-0.624000
40
0.025000
0
INSERT
8
0
2
RPAD
10
-1.027000
20
0.033000
41
0.050000
42
0.050000
50
0.000000
0
CIRCLE
8
0
10
-1.027000
20
0.033000
40
0.030000
0
INSERT
8
0
2
EPAD
10
-0.927000
20
0.033000
41
0.050000
42
0.050000
0
CIRCLE
8
0
10
-0.927000
20
0.033000
40
0.030000
0
INSERT
8
0
2
EPAD
10
-0.827000
20
0.033000
41
0.050000
42
0.050000
0
CIRCLE
8
0
10
-0.827000
20
0.033000
40
0.030000
0
INSERT
8
0
2
EPAD
10
-0.727000
20
0.033000
41
0.050000
42
0.050000
0
CIRCLE
8
0
10
-0.727000
20
0.033000
40
0.030000
0
INSERT
8
0
2
EPAD
10
-0.627000
20
0.033000
41
0.050000
42
0.050000
0
CIRCLE
8
0
10
-0.627000
20
0.033000
40
0.030000
0
INSERT
8
0
2
EPAD
10
-0.527000
20
0.033000
41
0.050000
42
0.050000
0
CIRCLE
8
0
10
-0.527000
20
0.033000
40
0.030000
0
INSERT
8
0
2
EPAD
10
-0.427000
20
0.033000
41
0.050000
42
0.050000
0
CIRCLE
8
0
10
-0.427000
20
0.033000
40
0.030000
0
INSERT
8
0
2
EPAD
10
-0.327000
20
0.033000
41
0.050000
42
0.050000
0
CIRCLE
8
0
10
-0.327000
20
0.033000
40
0.030000
0
INSERT
8
0
2
EPAD
10
-0.227000
20
0.033000
41
0.050000
42
0.050000
0
CIRCLE
8
0
10
-0.227000
20
0.033000
40
0.030000
0
INSERT
8
0
2
EPAD
10
-0.127000
20
0.033000
41
0.050000
42
0.050000
0
CIRCLE
8
0
10
-0.127000
20
0.033000
40
0.030000
0
INSERT
8
0
2
EPAD
10
-0.027000
20
0.033000
41
0.050000
42
0.050000
0
CIRCLE
8
0
10
-0.027000
20
0.033000
40
0.030000
0
INSERT
8
0
2
EPAD
10
0.072000
20
0.033000
41
0.050000
42
0.050000
0
CIRCLE
8
0
10
0.072000
20
0.033000
40
0.030000
0
INSERT
8
0
2
EPAD
10
0.172000
20
0.033000
41
0.050000
42
0.050000
0
CIRCLE
8
0
10
0.172000
20
0.033000
40
0.030000
0
INSERT
8
0
2
EPAD
10
0.272000
20
0.033000
41
0.050000
42
0.050000
0
CIRCLE
8
0
10
0.272000
20
0.033000
40
0.030000
0
INSERT
8
0
2
EPAD
10
0.372000
20
0.033000
41
0.050000
42
0.050000
0
CIRCLE
8
0
10
0.372000
20
0.033000
40
0.030000
0
INSERT
8
0
2
EPAD
10
0.472000
20
0.033000
41
0.050000
42
0.050000
0
CIRCLE
8
0
10
0.472000
20
0.033000
40
0.030000
0
INSERT
8
0
2
EPAD
10
0.572000
20
0.033000
41
0.050000
42
0.050000
0
CIRCLE
8
0
10
0.572000
20
0.033000
40
0.030000
0
INSERT
8
0
2
EPAD
10
0.672000
20
0.033000
41
0.050000
42
0.050000
0
CIRCLE
8
0
10
0.672000
20
0.033000
40
0.030000
0
INSERT
8
0
2
EPAD
10
0.772000
20
0.033000
41
0.050000
42
0.050000
0
CIRCLE
8
0
10
0.772000
20
0.033000
40
0.030000
0
INSERT
8
0
2
EPAD
10
0.872000
20
0.033000
41
0.050000
42
0.050000
0
CIRCLE
8
0
10
0.872000
20
0.033000
40
0.030000
0
INSERT
8
0
2
EPAD
10
0.872000
20
0.633000
41
0.050000
42
0.050000
0
CIRCLE
8
0
10
0.872000
20
0.633000
40
0.030000
0
INSERT
8
0
2
EPAD
10
0.772000
20
0.633000
41
0.050000
42
0.050000
0
CIRCLE
8
0
10
0.772000
20
0.633000
40
0.030000
0
INSERT
8
0
2
EPAD
10
0.672000
20
0.633000
41
0.050000
42
0.050000
0
CIRCLE
8
0
10
0.672000
20
0.633000
40
0.030000
0
INSERT
8
0
2
EPAD
10
0.572000
20
0.633000
41
0.050000
42
0.050000
0
CIRCLE
8
0
10
0.572000
20
0.633000
40
0.030000
0
INSERT
8
0
2
EPAD
10
0.472000
20
0.633000
41
0.050000
42
0.050000
0
CIRCLE
8
0
10
0.472000
20
0.633000
40
0.030000
0
INSERT
8
0
2
EPAD
10
0.372000
20
0.633000
41
0.050000
42
0.050000
0
CIRCLE
8
0
10
0.372000
20
0.633000
40
0.030000
0
INSERT
8
0
2
EPAD
10
0.272000
20
0.633000
41
0.050000
42
0.050000
0
CIRCLE
8
0
10
0.272000
20
0.633000
40
0.030000
0
INSERT
8
0
2
EPAD
10
0.172000
20
0.633000
41
0.050000
42
0.050000
0
CIRCLE
8
0
10
0.172000
20
0.633000
40
0.030000
0
INSERT
8
0
2
EPAD
10
0.072000
20
0.633000
41
0.050000
42
0.050000
0
CIRCLE
8
0
10
0.072000
20
0.633000
40
0.030000
0
INSERT
8
0
2
EPAD
10
-0.027000
20
0.633000
41
0.050000
42
0.050000
0
CIRCLE
8
0
10
-0.027000
20
0.633000
40
0.030000
0
INSERT
8
0
2
EPAD
10
-0.127000
20
0.633000
41
0.050000
42
0.050000
0
CIRCLE
8
0
10
-0.127000
20
0.633000
40
0.030000
0
INSERT
8
0
2
EPAD
10
-0.227000
20
0.633000
41
0.050000
42
0.050000
0
CIRCLE
8
0
10
-0.227000
20
0.633000
40
0.030000
0
INSERT
8
0
2
EPAD
10
-0.327000
20
0.633000
41
0.050000
42
0.050000
0
CIRCLE
8
0
10
-0.327000
20
0.633000
40
0.030000
0
INSERT
8
0
2
EPAD
10
-0.427000
20
0.633000
41
0.050000
42
0.050000
0
CIRCLE
8
0
10
-0.427000
20
0.633000
40
0.030000
0
INSERT
8
0
2
EPAD
10
-0.527000
20
0.633000
41
0.050000
42
0.050000
0
CIRCLE
8
0
10
-0.527000
20
0.633000
40
0.030000
0
INSERT
8
0
2
EPAD
10
-0.627000
20
0.633000
41
0.050000
42
0.050000
0
CIRCLE
8
0
10
-0.627000
20
0.633000
40
0.030000
0
INSERT
8
0
2
EPAD
10
-0.727000
20
0.633000
41
0.050000
42
0.050000
0
CIRCLE
8
0
10
-0.727000
20
0.633000
40
0.030000
0
INSERT
8
0
2
EPAD
10
-0.827000
20
0.633000
41
0.050000
42
0.050000
0
CIRCLE
8
0
10
-0.827000
20
0.633000
40
0.030000
0
INSERT
8
0
2
EPAD
10
-0.927000
20
0.633000
41
0.050000
42
0.050000
0
CIRCLE
8
0
10
-0.927000
20
0.633000
40
0.030000
0
INSERT
8
0
2
EPAD
10
-1.027000
20
0.633000
41
0.050000
42
0.050000
0
CIRCLE
8
0
10
-1.027000
20
0.633000
40
0.030000
0
INSERT
8
0
2
EPAD
10
0.302000
20
0.238000
41
0.080000
42
0.080000
0
CIRCLE
8
0
10
0.302000
20
0.238000
40
0.025000
0
INSERT
8
0
2
EPAD
10
0.102000
20
0.238000
41
0.080000
42
0.080000
0
CIRCLE
8
0
10
0.102000
20
0.238000
40
0.025000
0
INSERT
8
0
2
EPAD
10
0.295000
20
0.399000
41
0.070000
42
0.070000
0
CIRCLE
8
0
10
0.295000
20
0.399000
40
0.025000
0
INSERT
8
0
2
EPAD
10
0.295000
20
0.499000
41
0.070000
42
0.070000
0
CIRCLE
8
0
10
0.295000
20
0.499000
40
0.025000
0
INSERT
8
0
2
EPAD
10
0.110000
20
0.399000
41
0.070000
42
0.070000
0
CIRCLE
8
0
10
0.110000
20
0.399000
40
0.025000
0
INSERT
8
0
2
EPAD
10
0.110000
20
0.499000
41
0.070000
42
0.070000
0
CIRCLE
8
0
10
0.110000
20
0.499000
40
0.025000
0
INSERT
8
0
2
EPAD
10
-1.098000
20
-0.104000
41
0.070000
42
0.070000
0
CIRCLE
8
0
10
-1.098000
20
-0.104000
40
0.025000
0
INSERT
8
0
2
EPAD
10
-1.098000
20
-0.504000
41
0.070000
42
0.070000
0
CIRCLE
8
0
10
-1.098000
20
-0.504000
40
0.025000
0
INSERT
8
0
2
EPAD
10
0.364000
20
1.190000
41
0.080000
42
0.080000
0
CIRCLE
8
0
10
0.364000
20
1.190000
40
0.010000
0
INSERT
8
0
2
EPAD
10
0.264000
20
1.190000
41
0.080000
42
0.080000
0
CIRCLE
8
0
10
0.264000
20
1.190000
40
0.010000
0
INSERT
8
0
2
EPAD
10
0.164000
20
1.190000
41
0.080000
42
0.080000
0
CIRCLE
8
0
10
0.164000
20
1.190000
40
0.010000
0
INSERT
8
0
2
EPAD
10
0.064000
20
1.190000
41
0.080000
42
0.080000
0
CIRCLE
8
0
10
0.064000
20
1.190000
40
0.010000
0
INSERT
8
0
2
EPAD
10
-0.035000
20
1.190000
41
0.080000
42
0.080000
0
CIRCLE
8
0
10
-0.035000
20
1.190000
40
0.010000
0
INSERT
8
0
2
EPAD
10
-0.135000
20
1.190000
41
0.080000
42
0.080000
0
CIRCLE
8
0
10
-0.135000
20
1.190000
40
0.010000
0
INSERT
8
0
2
EPAD
10
-0.235000
20
1.190000
41
0.080000
42
0.080000
0
CIRCLE
8
0
10
-0.235000
20
1.190000
40
0.010000
0
INSERT
8
0
2
EPAD
10
-0.335000
20
1.190000
41
0.080000
42
0.080000
0
CIRCLE
8
0
10
-0.335000
20
1.190000
40
0.010000
0
INSERT
8
0
2
EPAD
10
-0.435000
20
1.190000
41
0.080000
42
0.080000
0
CIRCLE
8
0
10
-0.435000
20
1.190000
40
0.010000
0
INSERT
8
0
2
EPAD
10
-0.535000
20
1.190000
41
0.080000
42
0.080000
0
CIRCLE
8
0
10
-0.535000
20
1.190000
40
0.010000
0
INSERT
8
0
2
EPAD
10
-0.635000
20
1.190000
41
0.080000
42
0.080000
0
CIRCLE
8
0
10
-0.635000
20
1.190000
40
0.010000
0
INSERT
8
0
2
EPAD
10
-0.735000
20
1.190000
41
0.080000
42
0.080000
0
CIRCLE
8
0
10
-0.735000
20
1.190000
40
0.010000
0
INSERT
8
0
2
EPAD
10
-0.835000
20
1.190000
41
0.080000
42
0.080000
0
CIRCLE
8
0
10
-0.835000
20
1.190000
40
0.010000
0
INSERT
8
0
2
EPAD
10
-0.935000
20
1.190000
41
0.080000
42
0.080000
0
CIRCLE
8
0
10
-0.935000
20
1.190000
40
0.010000
0
INSERT
8
0
2
EPAD
10
-1.035000
20
1.190000
41
0.080000
42
0.080000
0
CIRCLE
8
0
10
-1.035000
20
1.190000
40
0.010000
0
INSERT
8
0
2
EPAD
10
-1.135000
20
1.190000
41
0.080000
42
0.080000
0
CIRCLE
8
0
10
-1.135000
20
1.190000
40
0.010000
0
INSERT
8
0
2
EPAD
10
-1.235000
20
1.190000
41
0.080000
42
0.080000
0
CIRCLE
8
0
10
-1.235000
20
1.190000
40
0.010000
0
INSERT
8
0
2
EPAD
10
-1.335000
20
1.190000
41
0.080000
42
0.080000
0
CIRCLE
8
0
10
-1.335000
20
1.190000
40
0.010000
0
INSERT
8
0
2
EPAD
10
-1.435000
20
1.190000
41
0.080000
42
0.080000
0
CIRCLE
8
0
10
-1.435000
20
1.190000
40
0.010000
0
INSERT
8
0
2
EPAD
10
-1.535000
20
1.190000
41
0.080000
42
0.080000
0
CIRCLE
8
0
10
-1.535000
20
1.190000
40
0.010000
0
INSERT
8
0
2
EPAD
10
-0.429000
20
-0.210000
41
0.080000
42
0.080000
0
CIRCLE
8
0
10
-0.429000
20
-0.210000
40
0.010000
0
INSERT
8
0
2
EPAD
10
-0.329000
20
-0.210000
41
0.080000
42
0.080000
0
CIRCLE
8
0
10
-0.329000
20
-0.210000
40
0.010000
0
INSERT
8
0
2
EPAD
10
-0.229000
20
-0.210000
41
0.080000
42
0.080000
0
CIRCLE
8
0
10
-0.229000
20
-0.210000
40
0.010000
0
INSERT
8
0
2
EPAD
10
-0.129000
20
-0.210000
41
0.080000
42
0.080000
0
CIRCLE
8
0
10
-0.129000
20
-0.210000
40
0.010000
0
INSERT
8
0
2
EPAD
10
-0.029000
20
-0.210000
41
0.080000
42
0.080000
0
CIRCLE
8
0
10
-0.029000
20
-0.210000
40
0.010000
0
INSERT
8
0
2
EPAD
10
0.070000
20
-0.210000
41
0.080000
42
0.080000
0
CIRCLE
8
0
10
0.070000
20
-0.210000
40
0.010000
0
INSERT
8
0
2
EPAD
10
0.170000
20
-0.210000
41
0.080000
42
0.080000
0
CIRCLE
8
0
10
0.170000
20
-0.210000
40
0.010000
0
INSERT
8
0
2
EPAD
10
0.270000
20
-0.210000
41
0.080000
42
0.080000
0
CIRCLE
8
0
10
0.270000
20
-0.210000
40
0.010000
0
INSERT
8
0
2
EPAD
10
-0.437000
20
-0.391000
41
0.070000
42
0.070000
0
CIRCLE
8
0
10
-0.437000
20
-0.391000
40
0.025000
0
INSERT
8
0
2
EPAD
10
-0.437000
20
-0.791000
41
0.070000
42
0.070000
0
CIRCLE
8
0
10
-0.437000
20
-0.791000
40
0.025000
0
INSERT
8
0
2
EPAD
10
-0.326000
20
-0.391000
41
0.070000
42
0.070000
0
CIRCLE
8
0
10
-0.326000
20
-0.391000
40
0.025000
0
INSERT
8
0
2
EPAD
10
-0.326000
20
-0.791000
41
0.070000
42
0.070000
0
CIRCLE
8
0
10
-0.326000
20
-0.791000
40
0.025000
0
INSERT
8
0
2
EPAD
10
-0.204000
20
-0.391000
41
0.070000
42
0.070000
0
CIRCLE
8
0
10
-0.204000
20
-0.391000
40
0.025000
0
INSERT
8
0
2
EPAD
10
-0.204000
20
-0.791000
41
0.070000
42
0.070000
0
CIRCLE
8
0
10
-0.204000
20
-0.791000
40
0.025000
0
INSERT
8
0
2
EPAD
10
-0.094000
20
-0.391000
41
0.070000
42
0.070000
0
CIRCLE
8
0
10
-0.094000
20
-0.391000
40
0.025000
0
INSERT
8
0
2
EPAD
10
-0.094000
20
-0.791000
41
0.070000
42
0.070000
0
CIRCLE
8
0
10
-0.094000
20
-0.791000
40
0.025000
0
INSERT
8
0
2
RPAD
10
1.433000
20
-0.108000
41
0.080000
42
0.080000
50
0.000000
0
CIRCLE
8
0
10
1.433000
20
-0.108000
40
0.025000
0
INSERT
8
0
2
RPAD
10
1.533000
20
-0.108000
41
0.080000
42
0.080000
50
0.000000
0
CIRCLE
8
0
10
1.533000
20
-0.108000
40
0.025000
0
INSERT
8
0
2
RPAD
10
1.633000
20
-0.108000
41
0.080000
42
0.080000
50
0.000000
0
CIRCLE
8
0
10
1.633000
20
-0.108000
40
0.025000
0
INSERT
8
0
2
RPAD
10
1.733000
20
-0.108000
41
0.080000
42
0.080000
50
0.000000
0
CIRCLE
8
0
10
1.733000
20
-0.108000
40
0.025000
0
INSERT
8
0
2
RPAD
10
1.833000
20
-0.108000
41
0.080000
42
0.080000
50
0.000000
0
CIRCLE
8
0
10
1.833000
20
-0.108000
40
0.025000
0
INSERT
8
0
2
EPAD
10
0.480000
20
0.781000
41
0.070000
42
0.070000
0
CIRCLE
8
0
10
0.480000
20
0.781000
40
0.025000
0
INSERT
8
0
2
EPAD
10
0.880000
20
0.781000
41
0.070000
42
0.070000
0
CIRCLE
8
0
10
0.880000
20
0.781000
40
0.025000
0
INSERT
8
0
2
EPAD
10
1.523000
20
0.729000
41
0.060000
42
0.060000
0
CIRCLE
8
0
10
1.523000
20
0.729000
40
0.025000
0
INSERT
8
0
2
EPAD
10
1.523000
20
0.809000
41
0.060000
42
0.060000
0
CIRCLE
8
0
10
1.523000
20
0.809000
40
0.025000
0
INSERT
8
0
2
EPAD
10
1.523000
20
0.889000
41
0.060000
42
0.060000
0
CIRCLE
8
0
10
1.523000
20
0.889000
40
0.025000
0
INSERT
8
0
2
EPAD
10
1.236000
20
1.198000
41
0.080000
42
0.080000
0
CIRCLE
8
0
10
1.236000
20
1.198000
40
0.010000
0
INSERT
8
0
2
EPAD
10
1.539000
20
1.198000
41
0.080000
42
0.080000
0
CIRCLE
8
0
10
1.539000
20
1.198000
40
0.010000
0
INSERT
8
0
2
EPAD
10
1.578000
20
0.442000
41
0.070000
42
0.070000
0
CIRCLE
8
0
10
1.578000
20
0.442000
40
0.025000
0
INSERT
8
0
2
EPAD
10
1.578000
20
0.042000
41
0.070000
42
0.070000
0
CIRCLE
8
0
10
1.578000
20
0.042000
40
0.025000
0
INSERT
8
0
2
EPAD
10
1.696000
20
0.442000
41
0.070000
42
0.070000
0
CIRCLE
8
0
10
1.696000
20
0.442000
40
0.025000
0
INSERT
8
0
2
EPAD
10
1.696000
20
0.042000
41
0.070000
42
0.070000
0
CIRCLE
8
0
10
1.696000
20
0.042000
40
0.025000
0
INSERT
8
0
2
EPAD
10
1.808000
20
0.434000
41
0.070000
42
0.070000
0
CIRCLE
8
0
10
1.808000
20
0.434000
40
0.025000
0
INSERT
8
0
2
EPAD
10
1.808000
20
0.034000
41
0.070000
42
0.070000
0
CIRCLE
8
0
10
1.808000
20
0.034000
40
0.025000
0
INSERT
8
0
2
EPAD
10
1.661000
20
-0.823000
41
0.090000
42
0.090000
0
CIRCLE
8
0
10
1.661000
20
-0.823000
40
0.025000
0
INSERT
8
0
2
EPAD
10
1.661000
20
-0.423000
41
0.090000
42
0.090000
0
CIRCLE
8
0
10
1.661000
20
-0.423000
40
0.025000
0
INSERT
8
0
2
EPAD
10
1.488000
20
-0.831000
41
0.090000
42
0.090000
0
CIRCLE
8
0
10
1.488000
20
-0.831000
40
0.025000
0
INSERT
8
0
2
EPAD
10
1.488000
20
-0.431000
41
0.090000
42
0.090000
0
CIRCLE
8
0
10
1.488000
20
-0.431000
40
0.025000
0
INSERT
8
0
2
EPAD
10
1.826000
20
-0.823000
41
0.090000
42
0.090000
0
CIRCLE
8
0
10
1.826000
20
-0.823000
40
0.025000
0
INSERT
8
0
2
EPAD
10
1.826000
20
-0.423000
41
0.090000
42
0.090000
0
CIRCLE
8
0
10
1.826000
20
-0.423000
40
0.025000
0
INSERT
8
0
2
EPAD
10
0.842000
20
-0.547000
41
0.070000
42
0.070000
0
CIRCLE
8
0
10
0.842000
20
-0.547000
40
0.025000
0
INSERT
8
0
2
EPAD
10
0.842000
20
-0.947000
41
0.070000
42
0.070000
0
CIRCLE
8
0
10
0.842000
20
-0.947000
40
0.025000
0
INSERT
8
0
2
EPAD
10
0.940000
20
-0.547000
41
0.070000
42
0.070000
0
CIRCLE
8
0
10
0.940000
20
-0.547000
40
0.025000
0
INSERT
8
0
2
EPAD
10
0.940000
20
-0.947000
41
0.070000
42
0.070000
0
CIRCLE
8
0
10
0.940000
20
-0.947000
40
0.025000
0
INSERT
8
0
2
EPAD
10
0.870000
20
-1.309000
41
0.120000
42
0.120000
0
CIRCLE
8
0
10
0.870000
20
-1.309000
40
0.030000
0
INSERT
8
0
2
EPAD
10
1.070000
20
-1.309000
41
0.120000
42
0.120000
0
CIRCLE
8
0
10
1.070000
20
-1.309000
40
0.030000
0
INSERT
8
0
2
EPAD
10
1.303000
20
-1.309000
41
0.120000
42
0.120000
0
CIRCLE
8
0
10
1.303000
20
-1.309000
40
0.030000
0
INSERT
8
0
2
EPAD
10
1.503000
20
-1.309000
41
0.120000
42
0.120000
0
CIRCLE
8
0
10
1.503000
20
-1.309000
40
0.030000
0
INSERT
8
0
2
EPAD
10
-1.732000
20
-0.312000
41
0.120000
42
0.120000
0
CIRCLE
8
0
10
-1.732000
20
-0.312000
40
0.030000
0
INSERT
8
0
2
EPAD
10
-1.732000
20
-0.512000
41
0.120000
42
0.120000
0
CIRCLE
8
0
10
-1.732000
20
-0.512000
40
0.030000
0
INSERT
8
0
2
EPAD
10
-1.732000
20
-0.712000
41
0.120000
42
0.120000
0
CIRCLE
8
0
10
-1.732000
20
-0.712000
40
0.030000
0
INSERT
8
0
2
EPAD
10
-1.732000
20
-0.912000
41
0.120000
42
0.120000
0
CIRCLE
8
0
10
-1.732000
20
-0.912000
40
0.030000
0
INSERT
8
0
2
EPAD
10
-1.724000
20
0.509000
41
0.120000
42
0.120000
0
CIRCLE
8
0
10
-1.724000
20
0.509000
40
0.030000
0
INSERT
8
0
2
EPAD
10
-1.724000
20
0.309000
41
0.120000
42
0.120000
0
CIRCLE
8
0
10
-1.724000
20
0.309000
40
0.030000
0
INSERT
8
0
2
EPAD
10
-1.724000
20
0.109000
41
0.120000
42
0.120000
0
CIRCLE
8
0
10
-1.724000
20
0.109000
40
0.030000
0
INSERT
8
0
2
EPAD
10
-1.724000
20
-0.090000
41
0.120000
42
0.120000
0
CIRCLE
8
0
10
-1.724000
20
-0.090000
40
0.030000
0
INSERT
8
0
2
EPAD
10
-0.996000
20
-0.104000
41
0.070000
42
0.070000
0
CIRCLE
8
0
10
-0.996000
20
-0.104000
40
0.025000
0
INSERT
8
0
2
EPAD
10
-0.996000
20
-0.504000
41
0.070000
42
0.070000
0
CIRCLE
8
0
10
-0.996000
20
-0.504000
40
0.025000
0
INSERT
8
0
2
EPAD
10
-0.885000
20
-0.108000
41
0.070000
42
0.070000
0
CIRCLE
8
0
10
-0.885000
20
-0.108000
40
0.025000
0
INSERT
8
0
2
EPAD
10
-0.885000
20
-0.508000
41
0.070000
42
0.070000
0
CIRCLE
8
0
10
-0.885000
20
-0.508000
40
0.025000
0
INSERT
8
0
2
EPAD
10
-0.744000
20
-0.108000
41
0.070000
42
0.070000
0
CIRCLE
8
0
10
-0.744000
20
-0.108000
40
0.025000
0
INSERT
8
0
2
EPAD
10
-0.744000
20
-0.508000
41
0.070000
42
0.070000
0
CIRCLE
8
0
10
-0.744000
20
-0.508000
40
0.025000
0
INSERT
8
0
2
EPAD
10
-0.629000
20
-0.116000
41
0.070000
42
0.070000
0
CIRCLE
8
0
10
-0.629000
20
-0.116000
40
0.025000
0
INSERT
8
0
2
EPAD
10
-0.629000
20
-0.516000
41
0.070000
42
0.070000
0
CIRCLE
8
0
10
-0.629000
20
-0.516000
40
0.025000
0
INSERT
8
0
2
EPAD
10
0.840000
20
1.238000
41
0.080000
42
0.080000
0
CIRCLE
8
0
10
0.840000
20
1.238000
40
0.025000
0
INSERT
8
0
2
EPAD
10
0.640000
20
1.238000
41
0.080000
42
0.080000
0
CIRCLE
8
0
10
0.640000
20
1.238000
40
0.025000
0
INSERT
8
0
2
EPAD
10
0.740000
20
1.017000
41
0.080000
42
0.080000
0
CIRCLE
8
0
10
0.740000
20
1.017000
40
0.025000
0
INSERT
8
0
2
EPAD
10
1.783000
20
-1.379000
41
0.250000
42
0.250000
0
CIRCLE
8
0
10
1.783000
20
-1.379000
40
0.030000
0
INSERT
8
0
2
EPAD
10
1.783000
20
1.383000
41
0.250000
42
0.250000
0
CIRCLE
8
0
10
1.783000
20
1.383000
40
0.030000
0
INSERT
8
0
2
EPAD
10
-1.803000
20
1.395000
41
0.250000
42
0.250000
0
CIRCLE
8
0
10
-1.803000
20
1.395000
40
0.030000
0
POLYLINE
8
0
66
1
40
0.008000
41
0.008000
0
VERTEX
8
0
10
-1.956000
20
-1.545000
0
VERTEX
8
0
10
1.956000
20
-1.545000
0
VERTEX
8
0
10
1.956000
20
1.545000
0
VERTEX
8
0
10
-1.956000
20
1.545000
0
VERTEX
8
0
10
-1.956000
20
-1.545000
0
SEQEND
8
0
0
POLYLINE
8
0
66
1
40
0.008000
41
0.008000
0
VERTEX
8
0
10
-1.623000
20
-1.101000
0
VERTEX
8
0
10
-1.623000
20
-1.501000
0
SEQEND
8
0
0
POLYLINE
8
0
66
1
40
0.008000
41
0.008000
0
VERTEX
8
0
10
-1.223000
20
-1.101000
0
VERTEX
8
0
10
-1.223000
20
-1.501000
0
SEQEND
8
0
0
POLYLINE
8
0
66
1
40
0.008000
41
0.008000
0
VERTEX
8
0
10
-1.623000
20
-1.501000
0
VERTEX
8
0
10
-1.223000
20
-1.501000
0
SEQEND
8
0
0
POLYLINE
8
0
66
1
40
0.008000
41
0.008000
0
VERTEX
8
0
10
-1.623000
20
-1.101000
0
VERTEX
8
0
10
-1.223000
20
-1.101000
0
SEQEND
8
0
0
TEXT
8
12632256
10
-1.737000
20
-1.232000
40
0.048000
41
1.041667
1
J1
0
CIRCLE
8
12632256
10
-0.955000
20
-1.306000
40
0.213000
0
POLYLINE
8
0
66
1
40
0.008000
41
0.008000
0
VERTEX
8
0
10
-1.035000
20
-1.116000
0
VERTEX
8
0
10
-1.035000
20
-1.156000
0
SEQEND
8
0
0
POLYLINE
8
0
66
1
40
0.008000
41
0.008000
0
VERTEX
8
0
10
-1.055000
20
-1.136000
0
VERTEX
8
0
10
-1.015000
20
-1.136000
0
SEQEND
8
0
0
TEXT
8
12632256
10
-1.219000
20
-1.512000
40
0.048000
41
1.041667
1
BR1
0
POLYLINE
8
0
66
1
40
0.008000
41
0.008000
0
VERTEX
8
0
10
-0.661000
20
-1.498000
0
VERTEX
8
0
10
0.716000
20
-1.498000
0
VERTEX
8
0
10
0.716000
20
-1.009000
0
VERTEX
8
0
10
-0.661000
20
-1.009000
0
VERTEX
8
0
10
-0.661000
20
-1.498000
0
SEQEND
8
0
0
POLYLINE
8
0
66
1
40
0.008000
41
0.008000
0
VERTEX
8
0
10
-0.134000
20
-1.382000
0
VERTEX
8
0
10
0.165000
20
-1.382000
0
VERTEX
8
0
10
0.165000
20
-1.282000
0
VERTEX
8
0
10
-0.134000
20
-1.282000
0
VERTEX
8
0
10
-0.134000
20
-1.382000
0
SEQEND
8
0
0
POLYLINE
8
0
66
1
40
0.008000
41
0.008000
0
VERTEX
8
0
10
-0.134000
20
-1.282000
0
VERTEX
8
0
10
-0.134000
20
-1.232000
0
VERTEX
8
0
10
0.165000
20
-1.232000
0
VERTEX
8
0
10
0.165000
20
-1.282000
0
SEQEND
8
0
0
POLYLINE
8
0
66
1
40
0.008000
41
0.008000
0
VERTEX
8
0
10
-0.134000
20
-1.282000
0
VERTEX
8
0
10
-0.084000
20
-1.232000
0
SEQEND
8
0
0
POLYLINE
8
0
66
1
40
0.008000
41
0.008000
0
VERTEX
8
0
10
-0.084000
20
-1.282000
0
VERTEX
8
0
10
-0.034000
20
-1.232000
0
SEQEND
8
0
0
POLYLINE
8
0
66
1
40
0.008000
41
0.008000
0
VERTEX
8
0
10
-0.034000
20
-1.282000
0
VERTEX
8
0
10
0.015000
20
-1.232000
0
SEQEND
8
0
0
POLYLINE
8
0
66
1
40
0.008000
41
0.008000
0
VERTEX
8
0
10
0.015000
20
-1.282000
0
VERTEX
8
0
10
0.065000
20
-1.232000
0
SEQEND
8
0
0
POLYLINE
8
0
66
1
40
0.008000
41
0.008000
0
VERTEX
8
0
10
0.065000
20
-1.282000
0
VERTEX
8
0
10
0.115000
20
-1.232000
0
SEQEND
8
0
0
POLYLINE
8
0
66
1
40
0.008000
41
0.008000
0
VERTEX
8
0
10
0.115000
20
-1.282000
0
VERTEX
8
0
10
0.165000
20
-1.232000
0
SEQEND
8
0
0
TEXT
8
12632256
10
-0.034000
20
-1.222000
40
0.048000
41
1.041667
1
U3
0
POLYLINE
8
0
66
1
40
0.008000
41
0.008000
0
VERTEX
8
0
10
0.898000
20
-0.388000
0
VERTEX
8
0
10
0.998000
20
-0.388000
0
VERTEX
8
0
10
0.998000
20
-0.088000
0
VERTEX
8
0
10
0.898000
20
-0.088000
0
VERTEX
8
0
10
0.898000
20
-0.388000
0
VERTEX
8
0
10
0.848000
20
-0.388000
0
VERTEX
8
0
10
0.848000
20
-0.088000
0
VERTEX
8
0
10
0.898000
20
-0.088000
0
SEQEND
8
0
0
POLYLINE
8
0
66
1
40
0.008000
41
0.008000
0
VERTEX
8
0
10
0.898000
20
-0.388000
0
VERTEX
8
0
10
0.848000
20
-0.338000
0
SEQEND
8
0
0
POLYLINE
8
0
66
1
40
0.008000
41
0.008000
0
VERTEX
8
0
10
0.898000
20
-0.338000
0
VERTEX
8
0
10
0.848000
20
-0.288000
0
SEQEND
8
0
0
POLYLINE
8
0
66
1
40
0.008000
41
0.008000
0
VERTEX
8
0
10
0.898000
20
-0.288000
0
VERTEX
8
0
10
0.848000
20
-0.238000
0
SEQEND
8
0
0
POLYLINE
8
0
66
1
40
0.008000
41
0.008000
0
VERTEX
8
0
10
0.898000
20
-0.238000
0
VERTEX
8
0
10
0.848000
20
-0.188000
0
SEQEND
8
0
0
POLYLINE
8
0
66
1
40
0.008000
41
0.008000
0
VERTEX
8
0
10
0.898000
20
-0.188000
0
VERTEX
8
0
10
0.848000
20
-0.138000
0
SEQEND
8
0
0
POLYLINE
8
0
66
1
40
0.008000
41
0.008000
0
VERTEX
8
0
10
0.898000
20
-0.138000
0
VERTEX
8
0
10
0.848000
20
-0.088000
0
SEQEND
8
0
0
TEXT
8
12632256
10
0.838000
20
-0.288000
40
0.048000
41
1.041667
50
90.000000
1
U4
0
POLYLINE
8
0
66
1
40
0.008000
41
0.008000
0
VERTEX
8
0
10
-1.170000
20
-1.033000
0
VERTEX
8
0
10
-1.120000
20
-1.033000
0
SEQEND
8
0
0
POLYLINE
8
0
66
1
40
0.008000
41
0.008000
0
VERTEX
8
0
10
-1.120000
20
-1.058000
0
VERTEX
8
0
10
-0.920000
20
-1.058000
0
VERTEX
8
0
10
-0.920000
20
-1.008000
0
VERTEX
8
0
10
-1.120000
20
-1.008000
0
VERTEX
8
0
10
-1.120000
20
-1.058000
0
SEQEND
8
0
0
POLYLINE
8
0
66
1
40
0.008000
41
0.008000
0
VERTEX
8
0
10
-0.920000
20
-1.033000
0
VERTEX
8
0
10
-0.870000
20
-1.033000
0
SEQEND
8
0
0
TEXT
8
12632256
10
-1.070000
20
-0.998000
40
0.048000
41
1.041667
1
R2
0
POLYLINE
8
0
66
1
40
0.008000
41
0.008000
0
VERTEX
8
0
10
-0.094000
20
-0.987000
0
VERTEX
8
0
10
0.109000
20
-0.987000
0
VERTEX
8
0
10
0.109000
20
-0.882000
0
VERTEX
8
0
10
-0.094000
20
-0.882000
0
VERTEX
8
0
10
-0.094000
20
-0.987000
0
SEQEND
8
0
0
POLYLINE
8
0
66
1
40
0.008000
41
0.008000
0
VERTEX
8
0
10
-0.062000
20
-0.883000
0
VERTEX
8
0
10
-0.062000
20
-0.986000
0
SEQEND
8
0
0
POLYLINE
8
0
66
1
40
0.008000
41
0.008000
0
VERTEX
8
0
10
-0.122000
20
-0.935000
0
VERTEX
8
0
10
-0.094000
20
-0.935000
0
SEQEND
8
0
0
POLYLINE
8
0
66
1
40
0.008000
41
0.008000
0
VERTEX
8
0
10
0.109000
20
-0.935000
0
VERTEX
8
0
10
0.137000
20
-0.935000
0
SEQEND
8
0
0
TEXT
8
12632256
10
-0.042000
20
-0.872000
40
0.048000
41
1.041667
1
D2
0
CIRCLE
8
12632256
10
-0.801000
20
-0.753000
40
0.200000
0
POLYLINE
8
0
66
1
40
0.008000
41
0.008000
0
VERTEX
8
0
10
-0.926000
20
-0.653000
0
VERTEX
8
0
10
-0.876000
20
-0.653000
0
SEQEND
8
0
0
POLYLINE
8
0
66
1
40
0.008000
41
0.008000
0
VERTEX
8
0
10
-0.901000
20
-0.628000
0
VERTEX
8
0
10
-0.901000
20
-0.678000
0
SEQEND
8
0
0
TEXT
8
12632256
10
-1.099000
20
-0.890000
40
0.048000
41
1.041667
1
C1
0
CIRCLE
8
12632256
10
0.577000
20
-0.860000
40
0.100000
0
POLYLINE
8
0
66
1
40
0.008000
41
0.008000
0
VERTEX
8
0
10
0.502000
20
-0.810000
0
VERTEX
8
0
10
0.552000
20
-0.810000
0
SEQEND
8
0
0
POLYLINE
8
0
66
1
40
0.008000
41
0.008000
0
VERTEX
8
0
10
0.527000
20
-0.785000
0
VERTEX
8
0
10
0.527000
20
-0.835000
0
SEQEND
8
0
0
TEXT
8
12632256
10
0.527000
20
-0.750000
40
0.048000
41
1.041667
1
C2
0
POLYLINE
8
0
66
1
40
0.008000
41
0.008000
0
VERTEX
8
0
10
0.438000
20
-0.624000
0
VERTEX
8
0
10
0.441000
20
-0.614000
0
VERTEX
8
0
10
0.449000
20
-0.604000
0
VERTEX
8
0
10
0.463000
20
-0.596000
0
VERTEX
8
0
10
0.481000
20
-0.588000
0
VERTEX
8
0
10
0.503000
20
-0.582000
0
VERTEX
8
0
10
0.529000
20
-0.578000
0
VERTEX
8
0
10
0.557000
20
-0.575000
0
VERTEX
8
0
10
0.588000
20
-0.574000
0
SEQEND
8
0
0
POLYLINE
8
0
66
1
40
0.008000
41
0.008000
0
VERTEX
8
0
10
0.738000
20
-0.624000
0
VERTEX
8
0
10
0.735000
20
-0.614000
0
VERTEX
8
0
10
0.726000
20
-0.604000
0
VERTEX
8
0
10
0.712000
20
-0.596000
0
VERTEX
8
0
10
0.694000
20
-0.588000
0
VERTEX
8
0
10
0.672000
20
-0.582000
0
VERTEX
8
0
10
0.647000
20
-0.578000
0
VERTEX
8
0
10
0.619000
20
-0.575000
0
VERTEX
8
0
10
0.588000
20
-0.574000
0
SEQEND
8
0
0
POLYLINE
8
0
66
1
40
0.008000
41
0.008000
0
VERTEX
8
0
10
0.738000
20
-0.624000
0
VERTEX
8
0
10
0.735000
20
-0.634000
0
VERTEX
8
0
10
0.726000
20
-0.644000
0
VERTEX
8
0
10
0.712000
20
-0.652000
0
VERTEX
8
0
10
0.694000
20
-0.660000
0
VERTEX
8
0
10
0.672000
20
-0.666000
0
VERTEX
8
0
10
0.647000
20
-0.670000
0
VERTEX
8
0
10
0.619000
20
-0.673000
0
VERTEX
8
0
10
0.588000
20
-0.674000
0
SEQEND
8
0
0
POLYLINE
8
0
66
1
40
0.008000
41
0.008000
0
VERTEX
8
0
10
0.438000
20
-0.624000
0
VERTEX
8
0
10
0.441000
20
-0.634000
0
VERTEX
8
0
10
0.449000
20
-0.644000
0
VERTEX
8
0
10
0.463000
20
-0.652000
0
VERTEX
8
0
10
0.481000
20
-0.660000
0
VERTEX
8
0
10
0.503000
20
-0.666000
0
VERTEX
8
0
10
0.529000
20
-0.670000
0
VERTEX
8
0
10
0.557000
20
-0.673000
0
VERTEX
8
0
10
0.588000
20
-0.674000
0
SEQEND
8
0
0
TEXT
8
12632256
10
0.538000
20
-0.564000
40
0.048000
41
1.041667
1
C3
0
POLYLINE
8
0
66
1
40
0.008000
41
0.008000
0
VERTEX
8
0
10
-0.977000
20
0.333000
0
VERTEX
8
0
10
-0.979000
20
0.353000
0
VERTEX
8
0
10
-0.985000
20
0.372000
0
VERTEX
8
0
10
-0.994000
20
0.389000
0
VERTEX
8
0
10
-1.006000
20
0.404000
0
VERTEX
8
0
10
-1.021000
20
0.416000
0
VERTEX
8
0
10
-1.038000
20
0.425000
0
VERTEX
8
0
10
-1.057000
20
0.431000
0
VERTEX
8
0
10
-1.077000
20
0.433000
0
SEQEND
8
0
0
POLYLINE
8
0
66
1
40
0.008000
41
0.008000
0
VERTEX
8
0
10
-0.977000
20
0.333000
0
VERTEX
8
0
10
-0.979000
20
0.312000
0
VERTEX
8
0
10
-0.985000
20
0.293000
0
VERTEX
8
0
10
-0.994000
20
0.276000
0
VERTEX
8
0
10
-1.006000
20
0.262000
0
VERTEX
8
0
10
-1.021000
20
0.250000
0
VERTEX
8
0
10
-1.038000
20
0.241000
0
VERTEX
8
0
10
-1.057000
20
0.235000
0
VERTEX
8
0
10
-1.077000
20
0.233000
0
SEQEND
8
0
0
POLYLINE
8
0
66
1
40
0.008000
41
0.008000
0
VERTEX
8
0
10
-1.077000
20
0.433000
0
VERTEX
8
0
10
-1.077000
20
0.583000
0
SEQEND
8
0
0
POLYLINE
8
0
66
1
40
0.008000
41
0.008000
0
VERTEX
8
0
10
0.922000
20
0.583000
0
VERTEX
8
0
10
0.922000
20
0.083000
0
SEQEND
8
0
0
POLYLINE
8
0
66
1
40
0.008000
41
0.008000
0
VERTEX
8
0
10
-1.077000
20
0.083000
0
VERTEX
8
0
10
-1.077000
20
0.233000
0
SEQEND
8
0
0
POLYLINE
8
0
66
1
40
0.008000
41
0.008000
0
VERTEX
8
0
10
-1.077000
20
0.583000
0
VERTEX
8
0
10
0.922000
20
0.583000
0
SEQEND
8
0
0
POLYLINE
8
0
66
1
40
0.008000
41
0.008000
0
VERTEX
8
0
10
-1.077000
20
0.083000
0
VERTEX
8
0
10
0.922000
20
0.083000
0
SEQEND
8
0
0
TEXT
8
12632256
10
-1.087000
20
0.283000
40
0.048000
41
1.041667
50
90.000000
1
U2
0
POLYLINE
8
0
66
1
40
0.008000
41
0.008000
0
VERTEX
8
0
10
0.352000
20
0.138000
0
VERTEX
8
0
10
0.052000
20
0.138000
0
VERTEX
8
0
10
0.002000
20
0.188000
0
VERTEX
8
0
10
0.002000
20
0.288000
0
VERTEX
8
0
10
0.052000
20
0.338000
0
VERTEX
8
0
10
0.352000
20
0.338000
0
VERTEX
8
0
10
0.402000
20
0.288000
0
VERTEX
8
0
10
0.402000
20
0.188000
0
VERTEX
8
0
10
0.352000
20
0.138000
0
SEQEND
8
0
0
TEXT
8
12632256
10
0.152000
20
0.080000
40
0.048000
41
1.041667
1
X1
0
POLYLINE
8
0
66
1
40
0.008000
41
0.008000
0
VERTEX
8
0
10
0.295000
20
0.349000
0
VERTEX
8
0
10
0.285000
20
0.351000
0
VERTEX
8
0
10
0.275000
20
0.357000
0
VERTEX
8
0
10
0.267000
20
0.366000
0
VERTEX
8
0
10
0.260000
20
0.378000
0
VERTEX
8
0
10
0.254000
20
0.393000
0
VERTEX
8
0
10
0.249000
20
0.410000
0
VERTEX
8
0
10
0.246000
20
0.429000
0
VERTEX
8
0
10
0.245000
20
0.449000
0
SEQEND
8
0
0
POLYLINE
8
0
66
1
40
0.008000
41
0.008000
0
VERTEX
8
0
10
0.295000
20
0.549000
0
VERTEX
8
0
10
0.285000
20
0.547000
0
VERTEX
8
0
10
0.275000
20
0.541000
0
VERTEX
8
0
10
0.267000
20
0.532000
0
VERTEX
8
0
10
0.260000
20
0.520000
0
VERTEX
8
0
10
0.254000
20
0.505000
0
VERTEX
8
0
10
0.249000
20
0.488000
0
VERTEX
8
0
10
0.246000
20
0.469000
0
VERTEX
8
0
10
0.245000
20
0.449000
0
SEQEND
8
0
0
POLYLINE
8
0
66
1
40
0.008000
41
0.008000
0
VERTEX
8
0
10
0.295000
20
0.349000
0
VERTEX
8
0
10
0.305000
20
0.351000
0
VERTEX
8
0
10
0.315000
20
0.357000
0
VERTEX
8
0
10
0.323000
20
0.366000
0
VERTEX
8
0
10
0.330000
20
0.378000
0
VERTEX
8
0
10
0.336000
20
0.393000
0
VERTEX
8
0
10
0.341000
20
0.410000
0
VERTEX
8
0
10
0.344000
20
0.429000
0
VERTEX
8
0
10
0.345000
20
0.449000
0
SEQEND
8
0
0
POLYLINE
8
0
66
1
40
0.008000
41
0.008000
0
VERTEX
8
0
10
0.295000
20
0.549000
0
VERTEX
8
0
10
0.305000
20
0.547000
0
VERTEX
8
0
10
0.315000
20
0.541000
0
VERTEX
8
0
10
0.323000
20
0.532000
0
VERTEX
8
0
10
0.330000
20
0.520000
0
VERTEX
8
0
10
0.336000
20
0.505000
0
VERTEX
8
0
10
0.341000
20
0.488000
0
VERTEX
8
0
10
0.344000
20
0.469000
0
VERTEX
8
0
10
0.345000
20
0.449000
0
SEQEND
8
0
0
TEXT
8
12632256
10
0.235000
20
0.399000
40
0.048000
41
1.041667
50
90.000000
1
C7
0
POLYLINE
8
0
66
1
40
0.008000
41
0.008000
0
VERTEX
8
0
10
0.110000
20
0.349000
0
VERTEX
8
0
10
0.100000
20
0.351000
0
VERTEX
8
0
10
0.090000
20
0.357000
0
VERTEX
8
0
10
0.082000
20
0.366000
0
VERTEX
8
0
10
0.074000
20
0.378000
0
VERTEX
8
0
10
0.068000
20
0.393000
0
VERTEX
8
0
10
0.064000
20
0.410000
0
VERTEX
8
0
10
0.061000
20
0.429000
0
VERTEX
8
0
10
0.060000
20
0.449000
0
SEQEND
8
0
0
POLYLINE
8
0
66
1
40
0.008000
41
0.008000
0
VERTEX
8
0
10
0.110000
20
0.549000
0
VERTEX
8
0
10
0.100000
20
0.547000
0
VERTEX
8
0
10
0.090000
20
0.541000
0
VERTEX
8
0
10
0.082000
20
0.532000
0
VERTEX
8
0
10
0.074000
20
0.520000
0
VERTEX
8
0
10
0.068000
20
0.505000
0
VERTEX
8
0
10
0.064000
20
0.488000
0
VERTEX
8
0
10
0.061000
20
0.469000
0
VERTEX
8
0
10
0.060000
20
0.449000
0
SEQEND
8
0
0
POLYLINE
8
0
66
1
40
0.008000
41
0.008000
0
VERTEX
8
0
10
0.110000
20
0.349000
0
VERTEX
8
0
10
0.120000
20
0.351000
0
VERTEX
8
0
10
0.130000
20
0.357000
0
VERTEX
8
0
10
0.138000
20
0.366000
0
VERTEX
8
0
10
0.146000
20
0.378000
0
VERTEX
8
0
10
0.152000
20
0.393000
0
VERTEX
8
0
10
0.156000
20
0.410000
0
VERTEX
8
0
10
0.159000
20
0.429000
0
VERTEX
8
0
10
0.160000
20
0.449000
0
SEQEND
8
0
0
POLYLINE
8
0
66
1
40
0.008000
41
0.008000
0
VERTEX
8
0
10
0.110000
20
0.549000
0
VERTEX
8
0
10
0.120000
20
0.547000
0
VERTEX
8
0
10
0.130000
20
0.541000
0
VERTEX
8
0
10
0.138000
20
0.532000
0
VERTEX
8
0
10
0.146000
20
0.520000
0
VERTEX
8
0
10
0.152000
20
0.505000
0
VERTEX
8
0
10
0.156000
20
0.488000
0
VERTEX
8
0
10
0.159000
20
0.469000
0
VERTEX
8
0
10
0.160000
20
0.449000
0
SEQEND
8
0
0
TEXT
8
12632256
10
0.050000
20
0.399000
40
0.048000
41
1.041667
50
90.000000
1
C8
0
POLYLINE
8
0
66
1
40
0.008000
41
0.008000
0
VERTEX
8
0
10
-1.098000
20
-0.154000
0
VERTEX
8
0
10
-1.098000
20
-0.204000
0
SEQEND
8
0
0
POLYLINE
8
0
66
1
40
0.008000
41
0.008000
0
VERTEX
8
0
10
-1.123000
20
-0.404000
0
VERTEX
8
0
10
-1.073000
20
-0.404000
0
VERTEX
8
0
10
-1.073000
20
-0.204000
0
VERTEX
8
0
10
-1.123000
20
-0.204000
0
VERTEX
8
0
10
-1.123000
20
-0.404000
0
SEQEND
8
0
0
POLYLINE
8
0
66
1
40
0.008000
41
0.008000
0
VERTEX
8
0
10
-1.098000
20
-0.404000
0
VERTEX
8
0
10
-1.098000
20
-0.454000
0
SEQEND
8
0
0
TEXT
8
12632256
10
-1.015000
20
-0.354000
40
0.048000
41
1.041667
50
90.000000
1
R3
0
POLYLINE
8
0
66
1
40
0.008000
41
0.008000
0
VERTEX
8
0
10
-1.635000
20
1.040000
0
VERTEX
8
0
10
0.464000
20
1.040000
0
VERTEX
8
0
10
0.464000
20
1.290000
0
VERTEX
8
0
10
-1.635000
20
1.290000
0
VERTEX
8
0
10
-1.635000
20
1.040000
0
SEQEND
8
0
0
POLYLINE
8
0
66
1
40
0.008000
41
0.008000
0
VERTEX
8
0
10
0.464000
20
1.090000
0
VERTEX
8
0
10
-1.635000
20
1.090000
0
SEQEND
8
0
0
TEXT
8
12632256
10
-0.635000
20
0.982000
40
0.048000
41
1.041667
1
J2
0
POLYLINE
8
0
66
1
40
0.008000
41
0.008000
0
VERTEX
8
0
10
-0.529000
20
-0.310000
0
VERTEX
8
0
10
0.370000
20
-0.310000
0
VERTEX
8
0
10
0.370000
20
-0.060000
0
VERTEX
8
0
10
-0.529000
20
-0.060000
0
VERTEX
8
0
10
-0.529000
20
-0.310000
0
SEQEND
8
0
0
POLYLINE
8
0
66
1
40
0.008000
41
0.008000
0
VERTEX
8
0
10
-0.529000
20
-0.110000
0
VERTEX
8
0
10
0.370000
20
-0.110000
0
SEQEND
8
0
0
TEXT
8
12632256
10
0.402000
20
-0.231000
40
0.048000
41
1.041667
1
J3
0
POLYLINE
8
0
66
1
40
0.008000
41
0.008000
0
VERTEX
8
0
10
-0.437000
20
-0.441000
0
VERTEX
8
0
10
-0.437000
20
-0.491000
0
SEQEND
8
0
0
POLYLINE
8
0
66
1
40
0.008000
41
0.008000
0
VERTEX
8
0
10
-0.462000
20
-0.691000
0
VERTEX
8
0
10
-0.412000
20
-0.691000
0
VERTEX
8
0
10
-0.412000
20
-0.491000
0
VERTEX
8
0
10
-0.462000
20
-0.491000
0
VERTEX
8
0
10
-0.462000
20
-0.691000
0
SEQEND
8
0
0
POLYLINE
8
0
66
1
40
0.008000
41
0.008000
0
VERTEX
8
0
10
-0.437000
20
-0.691000
0
VERTEX
8
0
10
-0.437000
20
-0.741000
0
SEQEND
8
0
0
TEXT
8
12632256
10
-0.354000
20
-0.641000
40
0.048000
41
1.041667
50
90.000000
1
R1
0
POLYLINE
8
0
66
1
40
0.008000
41
0.008000
0
VERTEX
8
0
10
-0.326000
20
-0.441000
0
VERTEX
8
0
10
-0.326000
20
-0.491000
0
SEQEND
8
0
0
POLYLINE
8
0
66
1
40
0.008000
41
0.008000
0
VERTEX
8
0
10
-0.351000
20
-0.691000
0
VERTEX
8
0
10
-0.301000
20
-0.691000
0
VERTEX
8
0
10
-0.301000
20
-0.491000
0
VERTEX
8
0
10
-0.351000
20
-0.491000
0
VERTEX
8
0
10
-0.351000
20
-0.691000
0
SEQEND
8
0
0
POLYLINE
8
0
66
1
40
0.008000
41
0.008000
0
VERTEX
8
0
10
-0.326000
20
-0.691000
0
VERTEX
8
0
10
-0.326000
20
-0.741000
0
SEQEND
8
0
0
TEXT
8
12632256
10
-0.243000
20
-0.641000
40
0.048000
41
1.041667
50
90.000000
1
R4
0
POLYLINE
8
0
66
1
40
0.008000
41
0.008000
0
VERTEX
8
0
10
-0.204000
20
-0.441000
0
VERTEX
8
0
10
-0.204000
20
-0.491000
0
SEQEND
8
0
0
POLYLINE
8
0
66
1
40
0.008000
41
0.008000
0
VERTEX
8
0
10
-0.229000
20
-0.691000
0
VERTEX
8
0
10
-0.179000
20
-0.691000
0
VERTEX
8
0
10
-0.179000
20
-0.491000
0
VERTEX
8
0
10
-0.229000
20
-0.491000
0
VERTEX
8
0
10
-0.229000
20
-0.691000
0
SEQEND
8
0
0
POLYLINE
8
0
66
1
40
0.008000
41
0.008000
0
VERTEX
8
0
10
-0.204000
20
-0.691000
0
VERTEX
8
0
10
-0.204000
20
-0.741000
0
SEQEND
8
0
0
TEXT
8
12632256
10
-0.121000
20
-0.641000
40
0.048000
41
1.041667
50
90.000000
1
R5
0
POLYLINE
8
0
66
1
40
0.008000
41
0.008000
0
VERTEX
8
0
10
-0.094000
20
-0.441000
0
VERTEX
8
0
10
-0.094000
20
-0.491000
0
SEQEND
8
0
0
POLYLINE
8
0
66
1
40
0.008000
41
0.008000
0
VERTEX
8
0
10
-0.119000
20
-0.691000
0
VERTEX
8
0
10
-0.069000
20
-0.691000
0
VERTEX
8
0
10
-0.069000
20
-0.491000
0
VERTEX
8
0
10
-0.119000
20
-0.491000
0
VERTEX
8
0
10
-0.119000
20
-0.691000
0
SEQEND
8
0
0
POLYLINE
8
0
66
1
40
0.008000
41
0.008000
0
VERTEX
8
0
10
-0.094000
20
-0.691000
0
VERTEX
8
0
10
-0.094000
20
-0.741000
0
SEQEND
8
0
0
TEXT
8
12632256
10
-0.011000
20
-0.641000
40
0.048000
41
1.041667
50
90.000000
1
R6
0
POLYLINE
8
0
66
1
40
0.008000
41
0.008000
0
VERTEX
8
0
10
1.383000
20
-0.158000
0
VERTEX
8
0
10
1.883000
20
-0.158000
0
VERTEX
8
0
10
1.883000
20
-0.058000
0
VERTEX
8
0
10
1.383000
20
-0.058000
0
VERTEX
8
0
10
1.383000
20
-0.158000
0
SEQEND
8
0
0
TEXT
8
12632256
10
1.583000
20
-0.048000
40
0.048000
41
1.041667
1
J6
0
POLYLINE
8
0
66
1
40
0.008000
41
0.008000
0
VERTEX
8
0
10
0.530000
20
0.781000
0
VERTEX
8
0
10
0.580000
20
0.781000
0
SEQEND
8
0
0
POLYLINE
8
0
66
1
40
0.008000
41
0.008000
0
VERTEX
8
0
10
0.580000
20
0.756000
0
VERTEX
8
0
10
0.780000
20
0.756000
0
VERTEX
8
0
10
0.780000
20
0.806000
0
VERTEX
8
0
10
0.580000
20
0.806000
0
VERTEX
8
0
10
0.580000
20
0.756000
0
SEQEND
8
0
0
POLYLINE
8
0
66
1
40
0.008000
41
0.008000
0
VERTEX
8
0
10
0.780000
20
0.781000
0
VERTEX
8
0
10
0.830000
20
0.781000
0
SEQEND
8
0
0
TEXT
8
12632256
10
0.630000
20
0.816000
40
0.048000
41
1.041667
1
R9
0
POLYLINE
8
0
66
1
40
0.008000
41
0.008000
0
VERTEX
8
0
10
1.588000
20
0.709000
0
VERTEX
8
0
10
1.588000
20
0.909000
0
SEQEND
8
0
0
POLYLINE
8
0
66
1
40
0.008000
41
0.008000
0
VERTEX
8
0
10
1.523000
20
0.679000
0
VERTEX
8
0
10
1.538000
20
0.681000
0
VERTEX
8
0
10
1.554000
20
0.686000
0
VERTEX
8
0
10
1.570000
20
0.696000
0
VERTEX
8
0
10
1.588000
20
0.709000
0
SEQEND
8
0
0
POLYLINE
8
0
66
1
40
0.008000
41
0.008000
0
VERTEX
8
0
10
1.523000
20
0.679000
0
VERTEX
8
0
10
1.498000
20
0.680000
0
VERTEX
8
0
10
1.486000
20
0.683000
0
VERTEX
8
0
10
1.474000
20
0.687000
0
VERTEX
8
0
10
1.463000
20
0.692000
0
VERTEX
8
0
10
1.453000
20
0.698000
0
VERTEX
8
0
10
1.443000
20
0.705000
0
VERTEX
8
0
10
1.434000
20
0.714000
0
VERTEX
8
0
10
1.419000
20
0.733000
0
VERTEX
8
0
10
1.408000
20
0.756000
0
VERTEX
8
0
10
1.404000
20
0.768000
0
VERTEX
8
0
10
1.401000
20
0.781000
0
VERTEX
8
0
10
1.399000
20
0.795000
0
VERTEX
8
0
10
1.398000
20
0.809000
0
SEQEND
8
0
0
POLYLINE
8
0
66
1
40
0.008000
41
0.008000
0
VERTEX
8
0
10
1.523000
20
0.939000
0
VERTEX
8
0
10
1.538000
20
0.937000
0
VERTEX
8
0
10
1.554000
20
0.932000
0
VERTEX
8
0
10
1.570000
20
0.922000
0
VERTEX
8
0
10
1.588000
20
0.909000
0
SEQEND
8
0
0
POLYLINE
8
0
66
1
40
0.008000
41
0.008000
0
VERTEX
8
0
10
1.523000
20
0.939000
0
VERTEX
8
0
10
1.510000
20
0.939000
0
VERTEX
8
0
10
1.498000
20
0.938000
0
VERTEX
8
0
10
1.486000
20
0.935000
0
VERTEX
8
0
10
1.474000
20
0.931000
0
VERTEX
8
0
10
1.463000
20
0.926000
0
VERTEX
8
0
10
1.453000
20
0.920000
0
VERTEX
8
0
10
1.443000
20
0.912000
0
VERTEX
8
0
10
1.434000
20
0.904000
0
VERTEX
8
0
10
1.419000
20
0.884000
0
VERTEX
8
0
10
1.408000
20
0.862000
0
VERTEX
8
0
10
1.404000
20
0.849000
0
VERTEX
8
0
10
1.401000
20
0.836000
0
VERTEX
8
0
10
1.399000
20
0.823000
0
VERTEX
8
0
10
1.398000
20
0.809000
0
SEQEND
8
0
0
TEXT
8
12632256
10
1.388000
20
0.759000
40
0.048000
41
1.041667
50
90.000000
1
Q1
0
CIRCLE
8
12632256
10
1.385000
20
1.198000
40
0.242000
0
CIRCLE
8
12632256
10
1.385000
20
1.198000
40
0.050000
0
TEXT
8
12632256
10
1.220000
20
1.303000
40
0.080000
41
1.125000
1
+
0
TEXT
8
12632256
10
1.285000
20
1.451000
40
0.048000
41
1.041667
1
BUZ1
0
POLYLINE
8
0
66
1
40
0.008000
41
0.008000
0
VERTEX
8
0
10
1.578000
20
0.392000
0
VERTEX
8
0
10
1.578000
20
0.342000
0
SEQEND
8
0
0
POLYLINE
8
0
66
1
40
0.008000
41
0.008000
0
VERTEX
8
0
10
1.553000
20
0.142000
0
VERTEX
8
0
10
1.603000
20
0.142000
0
VERTEX
8
0
10
1.603000
20
0.342000
0
VERTEX
8
0
10
1.553000
20
0.342000
0
VERTEX
8
0
10
1.553000
20
0.142000
0
SEQEND
8
0
0
POLYLINE
8
0
66
1
40
0.008000
41
0.008000
0
VERTEX
8
0
10
1.578000
20
0.142000
0
VERTEX
8
0
10
1.578000
20
0.092000
0
SEQEND
8
0
0
TEXT
8
12632256
10
1.661000
20
0.167000
40
0.048000
41
1.041667
50
90.000000
1
R14
0
POLYLINE
8
0
66
1
40
0.008000
41
0.008000
0
VERTEX
8
0
10
1.696000
20
0.392000
0
VERTEX
8
0
10
1.696000
20
0.342000
0
SEQEND
8
0
0
POLYLINE
8
0
66
1
40
0.008000
41
0.008000
0
VERTEX
8
0
10
1.671000
20
0.142000
0
VERTEX
8
0
10
1.721000
20
0.142000
0
VERTEX
8
0
10
1.721000
20
0.342000
0
VERTEX
8
0
10
1.671000
20
0.342000
0
VERTEX
8
0
10
1.671000
20
0.142000
0
SEQEND
8
0
0
POLYLINE
8
0
66
1
40
0.008000
41
0.008000
0
VERTEX
8
0
10
1.696000
20
0.142000
0
VERTEX
8
0
10
1.696000
20
0.092000
0
SEQEND
8
0
0
TEXT
8
12632256
10
1.779000
20
0.167000
40
0.048000
41
1.041667
50
90.000000
1
R15
0
POLYLINE
8
0
66
1
40
0.008000
41
0.008000
0
VERTEX
8
0
10
1.808000
20
0.384000
0
VERTEX
8
0
10
1.808000
20
0.334000
0
SEQEND
8
0
0
POLYLINE
8
0
66
1
40
0.008000
41
0.008000
0
VERTEX
8
0
10
1.783000
20
0.134000
0
VERTEX
8
0
10
1.833000
20
0.134000
0
VERTEX
8
0
10
1.833000
20
0.334000
0
VERTEX
8
0
10
1.783000
20
0.334000
0
VERTEX
8
0
10
1.783000
20
0.134000
0
SEQEND
8
0
0
POLYLINE
8
0
66
1
40
0.008000
41
0.008000
0
VERTEX
8
0
10
1.808000
20
0.134000
0
VERTEX
8
0
10
1.808000
20
0.084000
0
SEQEND
8
0
0
TEXT
8
12632256
10
1.891000
20
0.159000
40
0.048000
41
1.041667
50
90.000000
1
R16
0
POLYLINE
8
0
66
1
40
0.008000
41
0.008000
0
VERTEX
8
0
10
1.609000
20
-0.725000
0
VERTEX
8
0
10
1.714000
20
-0.725000
0
VERTEX
8
0
10
1.714000
20
-0.521000
0
VERTEX
8
0
10
1.609000
20
-0.521000
0
VERTEX
8
0
10
1.609000
20
-0.725000
0
SEQEND
8
0
0
POLYLINE
8
0
66
1
40
0.008000
41
0.008000
0
VERTEX
8
0
10
1.713000
20
-0.553000
0
VERTEX
8
0
10
1.610000
20
-0.553000
0
SEQEND
8
0
0
POLYLINE
8
0
66
1
40
0.008000
41
0.008000
0
VERTEX
8
0
10
1.661000
20
-0.493000
0
VERTEX
8
0
10
1.661000
20
-0.521000
0
SEQEND
8
0
0
POLYLINE
8
0
66
1
40
0.008000
41
0.008000
0
VERTEX
8
0
10
1.661000
20
-0.725000
0
VERTEX
8
0
10
1.661000
20
-0.753000
0
SEQEND
8
0
0
TEXT
8
12632256
10
1.772000
20
-0.673000
40
0.048000
41
1.041667
50
90.000000
1
D1
0
POLYLINE
8
0
66
1
40
0.008000
41
0.008000
0
VERTEX
8
0
10
1.436000
20
-0.733000
0
VERTEX
8
0
10
1.541000
20
-0.733000
0
VERTEX
8
0
10
1.541000
20
-0.529000
0
VERTEX
8
0
10
1.436000
20
-0.529000
0
VERTEX
8
0
10
1.436000
20
-0.733000
0
SEQEND
8
0
0
POLYLINE
8
0
66
1
40
0.008000
41
0.008000
0
VERTEX
8
0
10
1.540000
20
-0.561000
0
VERTEX
8
0
10
1.437000
20
-0.561000
0
SEQEND
8
0
0
POLYLINE
8
0
66
1
40
0.008000
41
0.008000
0
VERTEX
8
0
10
1.488000
20
-0.501000
0
VERTEX
8
0
10
1.488000
20
-0.529000
0
SEQEND
8
0
0
POLYLINE
8
0
66
1
40
0.008000
41
0.008000
0
VERTEX
8
0
10
1.488000
20
-0.733000
0
VERTEX
8
0
10
1.488000
20
-0.761000
0
SEQEND
8
0
0
TEXT
8
12632256
10
1.599000
20
-0.681000
40
0.048000
41
1.041667
50
90.000000
1
D3
0
POLYLINE
8
0
66
1
40
0.008000
41
0.008000
0
VERTEX
8
0
10
1.774000
20
-0.725000
0
VERTEX
8
0
10
1.879000
20
-0.725000
0
VERTEX
8
0
10
1.879000
20
-0.521000
0
VERTEX
8
0
10
1.774000
20
-0.521000
0
VERTEX
8
0
10
1.774000
20
-0.725000
0
SEQEND
8
0
0
POLYLINE
8
0
66
1
40
0.008000
41
0.008000
0
VERTEX
8
0
10
1.878000
20
-0.553000
0
VERTEX
8
0
10
1.775000
20
-0.553000
0
SEQEND
8
0
0
POLYLINE
8
0
66
1
40
0.008000
41
0.008000
0
VERTEX
8
0
10
1.826000
20
-0.493000
0
VERTEX
8
0
10
1.826000
20
-0.521000
0
SEQEND
8
0
0
POLYLINE
8
0
66
1
40
0.008000
41
0.008000
0
VERTEX
8
0
10
1.826000
20
-0.725000
0
VERTEX
8
0
10
1.826000
20
-0.753000
0
SEQEND
8
0
0
TEXT
8
12632256
10
1.937000
20
-0.673000
40
0.048000
41
1.041667
50
90.000000
1
D4
0
POLYLINE
8
0
66
1
40
0.008000
41
0.008000
0
VERTEX
8
0
10
0.842000
20
-0.597000
0
VERTEX
8
0
10
0.842000
20
-0.647000
0
SEQEND
8
0
0
POLYLINE
8
0
66
1
40
0.008000
41
0.008000
0
VERTEX
8
0
10
0.817000
20
-0.847000
0
VERTEX
8
0
10
0.867000
20
-0.847000
0
VERTEX
8
0
10
0.867000
20
-0.647000
0
VERTEX
8
0
10
0.817000
20
-0.647000
0
VERTEX
8
0
10
0.817000
20
-0.847000
0
SEQEND
8
0
0
POLYLINE
8
0
66
1
40
0.008000
41
0.008000
0
VERTEX
8
0
10
0.842000
20
-0.847000
0
VERTEX
8
0
10
0.842000
20
-0.897000
0
SEQEND
8
0
0
TEXT
8
12632256
10
0.925000
20
-0.797000
40
0.048000
41
1.041667
50
90.000000
1
R7
0
POLYLINE
8
0
66
1
40
0.008000
41
0.008000
0
VERTEX
8
0
10
0.940000
20
-0.597000
0
VERTEX
8
0
10
0.940000
20
-0.647000
0
SEQEND
8
0
0
POLYLINE
8
0
66
1
40
0.008000
41
0.008000
0
VERTEX
8
0
10
0.915000
20
-0.847000
0
VERTEX
8
0
10
0.965000
20
-0.847000
0
VERTEX
8
0
10
0.965000
20
-0.647000
0
VERTEX
8
0
10
0.915000
20
-0.647000
0
VERTEX
8
0
10
0.915000
20
-0.847000
0
SEQEND
8
0
0
POLYLINE
8
0
66
1
40
0.008000
41
0.008000
0
VERTEX
8
0
10
0.940000
20
-0.847000
0
VERTEX
8
0
10
0.940000
20
-0.897000
0
SEQEND
8
0
0
TEXT
8
12632256
10
1.023000
20
-0.797000
40
0.048000
41
1.041667
50
90.000000
1
R8
0
POLYLINE
8
0
66
1
40
0.008000
41
0.008000
0
VERTEX
8
0
10
0.770000
20
-1.109000
0
VERTEX
8
0
10
0.770000
20
-1.509000
0
SEQEND
8
0
0
POLYLINE
8
0
66
1
40
0.008000
41
0.008000
0
VERTEX
8
0
10
1.170000
20
-1.109000
0
VERTEX
8
0
10
1.170000
20
-1.509000
0
SEQEND
8
0
0
POLYLINE
8
0
66
1
40
0.008000
41
0.008000
0
VERTEX
8
0
10
0.770000
20
-1.509000
0
VERTEX
8
0
10
1.170000
20
-1.509000
0
SEQEND
8
0
0
POLYLINE
8
0
66
1
40
0.008000
41
0.008000
0
VERTEX
8
0
10
0.770000
20
-1.109000
0
VERTEX
8
0
10
1.170000
20
-1.109000
0
SEQEND
8
0
0
TEXT
8
12632256
10
0.721000
20
-1.073000
40
0.048000
41
1.041667
1
J4
0
POLYLINE
8
0
66
1
40
0.008000
41
0.008000
0
VERTEX
8
0
10
1.203000
20
-1.109000
0
VERTEX
8
0
10
1.203000
20
-1.509000
0
SEQEND
8
0
0
POLYLINE
8
0
66
1
40
0.008000
41
0.008000
0
VERTEX
8
0
10
1.603000
20
-1.109000
0
VERTEX
8
0
10
1.603000
20
-1.509000
0
SEQEND
8
0
0
POLYLINE
8
0
66
1
40
0.008000
41
0.008000
0
VERTEX
8
0
10
1.203000
20
-1.509000
0
VERTEX
8
0
10
1.603000
20
-1.509000
0
SEQEND
8
0
0
POLYLINE
8
0
66
1
40
0.008000
41
0.008000
0
VERTEX
8
0
10
1.203000
20
-1.109000
0
VERTEX
8
0
10
1.603000
20
-1.109000
0
SEQEND
8
0
0
TEXT
8
12632256
10
1.632000
20
-1.225000
40
0.048000
41
1.041667
1
J5
0
POLYLINE
8
0
66
1
40
0.008000
41
0.008000
0
VERTEX
8
0
10
-1.532000
20
-0.212000
0
VERTEX
8
0
10
-1.932000
20
-0.212000
0
SEQEND
8
0
0
POLYLINE
8
0
66
1
40
0.008000
41
0.008000
0
VERTEX
8
0
10
-1.532000
20
-1.012000
0
VERTEX
8
0
10
-1.932000
20
-1.012000
0
VERTEX
8
0
10
-1.932000
20
-0.212000
0
SEQEND
8
0
0
POLYLINE
8
0
66
1
40
0.008000
41
0.008000
0
VERTEX
8
0
10
-1.532000
20
-0.212000
0
VERTEX
8
0
10
-1.532000
20
-1.012000
0
SEQEND
8
0
0
TEXT
8
12632256
10
-1.269000
20
-0.655000
40
0.048000
41
1.041667
50
90.000000
1
J7
0
POLYLINE
8
0
66
1
40
0.008000
41
0.008000
0
VERTEX
8
0
10
-1.524000
20
0.609000
0
VERTEX
8
0
10
-1.924000
20
0.609000
0
SEQEND
8
0
0
POLYLINE
8
0
66
1
40
0.008000
41
0.008000
0
VERTEX
8
0
10
-1.524000
20
-0.190000
0
VERTEX
8
0
10
-1.924000
20
-0.190000
0
VERTEX
8
0
10
-1.924000
20
0.609000
0
SEQEND
8
0
0
POLYLINE
8
0
66
1
40
0.008000
41
0.008000
0
VERTEX
8
0
10
-1.524000
20
0.609000
0
VERTEX
8
0
10
-1.524000
20
-0.190000
0
SEQEND
8
0
0
TEXT
8
12632256
10
-1.301000
20
0.195000
40
0.048000
41
1.041667
50
90.000000
1
J8
0
POLYLINE
8
0
66
1
40
0.008000
41
0.008000
0
VERTEX
8
0
10
-0.996000
20
-0.154000
0
VERTEX
8
0
10
-0.996000
20
-0.204000
0
SEQEND
8
0
0
POLYLINE
8
0
66
1
40
0.008000
41
0.008000
0
VERTEX
8
0
10
-1.021000
20
-0.404000
0
VERTEX
8
0
10
-0.971000
20
-0.404000
0
VERTEX
8
0
10
-0.971000
20
-0.204000
0
VERTEX
8
0
10
-1.021000
20
-0.204000
0
VERTEX
8
0
10
-1.021000
20
-0.404000
0
SEQEND
8
0
0
POLYLINE
8
0
66
1
40
0.008000
41
0.008000
0
VERTEX
8
0
10
-0.996000
20
-0.404000
0
VERTEX
8
0
10
-0.996000
20
-0.454000
0
SEQEND
8
0
0
TEXT
8
12632256
10
-0.913000
20
-0.379000
40
0.048000
41
1.041667
50
90.000000
1
R10
0
POLYLINE
8
0
66
1
40
0.008000
41
0.008000
0
VERTEX
8
0
10
-0.885000
20
-0.158000
0
VERTEX
8
0
10
-0.885000
20
-0.208000
0
SEQEND
8
0
0
POLYLINE
8
0
66
1
40
0.008000
41
0.008000
0
VERTEX
8
0
10
-0.910000
20
-0.408000
0
VERTEX
8
0
10
-0.860000
20
-0.408000
0
VERTEX
8
0
10
-0.860000
20
-0.208000
0
VERTEX
8
0
10
-0.910000
20
-0.208000
0
VERTEX
8
0
10
-0.910000
20
-0.408000
0
SEQEND
8
0
0
POLYLINE
8
0
66
1
40
0.008000
41
0.008000
0
VERTEX
8
0
10
-0.885000
20
-0.408000
0
VERTEX
8
0
10
-0.885000
20
-0.458000
0
SEQEND
8
0
0
TEXT
8
12632256
10
-0.802000
20
-0.383000
40
0.048000
41
1.041667
50
90.000000
1
R11
0
POLYLINE
8
0
66
1
40
0.008000
41
0.008000
0
VERTEX
8
0
10
-0.744000
20
-0.158000
0
VERTEX
8
0
10
-0.744000
20
-0.208000
0
SEQEND
8
0
0
POLYLINE
8
0
66
1
40
0.008000
41
0.008000
0
VERTEX
8
0
10
-0.769000
20
-0.408000
0
VERTEX
8
0
10
-0.719000
20
-0.408000
0
VERTEX
8
0
10
-0.719000
20
-0.208000
0
VERTEX
8
0
10
-0.769000
20
-0.208000
0
VERTEX
8
0
10
-0.769000
20
-0.408000
0
SEQEND
8
0
0
POLYLINE
8
0
66
1
40
0.008000
41
0.008000
0
VERTEX
8
0
10
-0.744000
20
-0.408000
0
VERTEX
8
0
10
-0.744000
20
-0.458000
0
SEQEND
8
0
0
TEXT
8
12632256
10
-0.661000
20
-0.383000
40
0.048000
41
1.041667
50
90.000000
1
R12
0
POLYLINE
8
0
66
1
40
0.008000
41
0.008000
0
VERTEX
8
0
10
-0.629000
20
-0.166000
0
VERTEX
8
0
10
-0.629000
20
-0.216000
0
SEQEND
8
0
0
POLYLINE
8
0
66
1
40
0.008000
41
0.008000
0
VERTEX
8
0
10
-0.654000
20
-0.416000
0
VERTEX
8
0
10
-0.604000
20
-0.416000
0
VERTEX
8
0
10
-0.604000
20
-0.216000
0
VERTEX
8
0
10
-0.654000
20
-0.216000
0
VERTEX
8
0
10
-0.654000
20
-0.416000
0
SEQEND
8
0
0
POLYLINE
8
0
66
1
40
0.008000
41
0.008000
0
VERTEX
8
0
10
-0.629000
20
-0.416000
0
VERTEX
8
0
10
-0.629000
20
-0.466000
0
SEQEND
8
0
0
TEXT
8
12632256
10
-0.546000
20
-0.391000
40
0.048000
41
1.041667
50
90.000000
1
R13
0
POLYLINE
8
0
66
1
40
0.008000
41
0.008000
0
VERTEX
8
0
10
0.590000
20
1.163000
0
VERTEX
8
0
10
0.890000
20
1.163000
0
VERTEX
8
0
10
0.890000
20
1.313000
0
VERTEX
8
0
10
0.590000
20
1.313000
0
VERTEX
8
0
10
0.590000
20
1.163000
0
SEQEND
8
0
0
POLYLINE
8
0
66
1
40
0.008000
41
0.008000
0
VERTEX
8
0
10
0.790000
20
1.013000
0
VERTEX
8
0
10
0.690000
20
1.013000
0
SEQEND
8
0
0
POLYLINE
8
0
66
1
40
0.008000
41
0.008000
0
VERTEX
8
0
10
0.645000
20
0.942000
0
VERTEX
8
0
10
0.838000
20
0.942000
0
VERTEX
8
0
10
0.838000
20
1.163000
0
VERTEX
8
0
10
0.645000
20
1.163000
0
VERTEX
8
0
10
0.645000
20
0.942000
0
SEQEND
8
0
0
TEXT
8
12632256
10
0.665000
20
1.323000
40
0.048000
41
1.041667
1
RV1
0
POLYLINE
8
0
66
1
40
0.008000
41
0.008000
0
VERTEX
8
0
10
0.055000
20
-1.214000
0
VERTEX
8
0
10
0.093000
20
-1.214000
0
SEQEND
8
0
0
POLYLINE
8
0
66
1
40
0.008000
41
0.008000
0
VERTEX
8
0
10
0.055000
20
-1.103000
0
VERTEX
8
0
10
0.094000
20
-1.103000
0
SEQEND
8
0
0
POLYLINE
8
0
66
1
40
0.008000
41
0.008000
0
VERTEX
8
0
10
0.135000
20
-1.229000
0
VERTEX
8
0
10
0.135000
20
-1.249000
0
SEQEND
8
0
0
POLYLINE
8
0
66
1
40
0.008000
41
0.008000
0
VERTEX
8
0
10
0.125000
20
-1.239000
0
VERTEX
8
0
10
0.145000
20
-1.239000
0
SEQEND
8
0
0
TEXT
8
12632256
10
0.305000
20
-1.205000
40
0.048000
41
1.041667
71
2
1
C4
0
POLYLINE
8
0
66
1
40
0.008000
41
0.008000
0
VERTEX
8
0
10
-0.142000
20
0.556000
0
VERTEX
8
0
10
-0.180000
20
0.556000
0
SEQEND
8
0
0
POLYLINE
8
0
66
1
40
0.008000
41
0.008000
0
VERTEX
8
0
10
-0.142000
20
0.445000
0
VERTEX
8
0
10
-0.181000
20
0.445000
0
SEQEND
8
0
0
POLYLINE
8
0
66
1
40
0.008000
41
0.008000
0
VERTEX
8
0
10
-0.222000
20
0.571000
0
VERTEX
8
0
10
-0.222000
20
0.591000
0
SEQEND
8
0
0
POLYLINE
8
0
66
1
40
0.008000
41
0.008000
0
VERTEX
8
0
10
-0.212000
20
0.581000
0
VERTEX
8
0
10
-0.232000
20
0.581000
0
SEQEND
8
0
0
TEXT
8
12632256
10
-0.296000
20
0.487000
40
0.048000
41
1.041667
71
2
1
C5
0
POLYLINE
8
0
66
1
40
0.008000
41
0.008000
0
VERTEX
8
0
10
-0.031000
20
0.219000
0
VERTEX
8
0
10
-0.069000
20
0.219000
0
SEQEND
8
0
0
POLYLINE
8
0
66
1
40
0.008000
41
0.008000
0
VERTEX
8
0
10
-0.031000
20
0.108000
0
VERTEX
8
0
10
-0.070000
20
0.108000
0
SEQEND
8
0
0
POLYLINE
8
0
66
1
40
0.008000
41
0.008000
0
VERTEX
8
0
10
-0.111000
20
0.234000
0
VERTEX
8
0
10
-0.111000
20
0.254000
0
SEQEND
8
0
0
POLYLINE
8
0
66
1
40
0.008000
41
0.008000
0
VERTEX
8
0
10
-0.101000
20
0.244000
0
VERTEX
8
0
10
-0.121000
20
0.244000
0
SEQEND
8
0
0
TEXT
8
12632256
10
0.000000
20
0.264000
40
0.048000
41
1.041667
71
2
1
C6
0
POLYLINE
8
0
66
1
40
0.008000
41
0.008000
0
VERTEX
8
0
10
-0.995000
20
0.202000
0
VERTEX
8
0
10
-0.995000
20
0.164000
0
SEQEND
8
0
0
POLYLINE
8
0
66
1
40
0.008000
41
0.008000
0
VERTEX
8
0
10
-0.884000
20
0.202000
0
VERTEX
8
0
10
-0.884000
20
0.163000
0
SEQEND
8
0
0
POLYLINE
8
0
66
1
40
0.008000
41
0.008000
0
VERTEX
8
0
10
-1.010000
20
0.122000
0
VERTEX
8
0
10
-1.030000
20
0.122000
0
SEQEND
8
0
0
POLYLINE
8
0
66
1
40
0.008000
41
0.008000
0
VERTEX
8
0
10
-1.020000
20
0.132000
0
VERTEX
8
0
10
-1.020000
20
0.112000
0
SEQEND
8
0
0
TEXT
8
12632256
10
-0.922000
20
0.402000
40
0.048000
41
1.041667
50
90.000000
71
2
1
C9
0
POLYLINE
8
0
66
1
40
0.008000
41
0.008000
0
VERTEX
8
0
10
1.073000
20
-0.320000
0
VERTEX
8
0
10
1.073000
20
-0.290000
0
SEQEND
8
0
0
POLYLINE
8
0
66
1
40
0.008000
41
0.008000
0
VERTEX
8
0
10
1.013000
20
-0.320000
0
VERTEX
8
0
10
1.013000
20
-0.290000
0
SEQEND
8
0
0
POLYLINE
8
0
66
1
40
0.008000
41
0.008000
0
VERTEX
8
0
10
1.103000
20
-0.270000
0
VERTEX
8
0
10
1.103000
20
-0.250000
0
SEQEND
8
0
0
POLYLINE
8
0
66
1
40
0.008000
41
0.008000
0
VERTEX
8
0
10
1.113000
20
-0.260000
0
VERTEX
8
0
10
1.093000
20
-0.260000
0
SEQEND
8
0
0
TEXT
8
12632256
10
1.049000
20
-0.537000
40
0.048000
41
1.041667
50
90.000000
71
2
1
C10
0
POLYLINE
8
0
66
1
40
0.008000
41
0.008000
0
VERTEX
8
0
10
-0.814000
20
0.202000
0
VERTEX
8
0
10
-0.814000
20
0.164000
0
SEQEND
8
0
0
POLYLINE
8
0
66
1
40
0.008000
41
0.008000
0
VERTEX
8
0
10
-0.703000
20
0.202000
0
VERTEX
8
0
10
-0.703000
20
0.163000
0
SEQEND
8
0
0
POLYLINE
8
0
66
1
40
0.008000
41
0.008000
0
VERTEX
8
0
10
-0.829000
20
0.122000
0
VERTEX
8
0
10
-0.849000
20
0.122000
0
SEQEND
8
0
0
POLYLINE
8
0
66
1
40
0.008000
41
0.008000
0
VERTEX
8
0
10
-0.839000
20
0.132000
0
VERTEX
8
0
10
-0.839000
20
0.112000
0
SEQEND
8
0
0
TEXT
8
12632256
10
-0.722000
20
0.431000
40
0.048000
41
1.041667
50
90.000000
71
2
1
C11
0
POLYLINE
8
0
66
1
40
0.015000
41
0.015000
0
VERTEX
8
0
10
1.358000
20
-1.104000
0
VERTEX
8
0
10
1.909000
20
-1.104000
0
VERTEX
8
0
10
1.909000
20
-0.037000
0
VERTEX
8
0
10
1.358000
20
-0.037000
0
VERTEX
8
0
10
1.358000
20
-1.104000
0
SEQEND
8
0
0
TEXT
8
12632256
10
0.818000
20
-1.079000
40
0.048000
41
0.833333
1
SSR1 GND
0
TEXT
8
12632256
10
1.248000
20
-1.075000
40
0.048000
41
0.833333
1
SSR2 GND
0
TEXT
8
12632256
10
1.507000
20
-0.331000
40
0.048000
41
0.833333
1
MAX31855
0
TEXT
8
12632256
10
-1.492000
20
-1.080000
40
0.056000
41
0.892857
1
VIN
0
TEXT
8
12632256
10
0.015000
20
-0.458000
40
0.056000
41
0.892857
1
BOTONES
0
TEXT
8
12632256
10
-0.452000
20
-0.049000
40
0.056000
41
0.892857
1
U D R L + + + +
0
TEXT
8
12632256
10
-1.708000
20
0.966000
40
0.056000
41
0.892857
1
20
0
TEXT
8
12632256
10
0.421000
20
0.942000
40
0.056000
41
0.892857
1
1
0
TEXT
8
12632256
10
-1.444000
20
-0.931000
40
0.056000
41
0.892857
50
90.000000
1
GND GND A1 A0
0
TEXT
8
12632256
10
-1.354000
20
-0.982000
40
0.056000
41
0.892857
50
90.000000
1
ANALOG IN 4-20mA
0
TEXT
8
12632256
10
-1.437000
20
-0.183000
40
0.056000
41
0.892857
50
90.000000
1
GND GND DOOR AUX
0
POLYLINE
8
0
66
1
40
0.000000
41
0.000000
0
VERTEX
8
0
10
-1.581000
20
1.311000
0
VERTEX
8
0
10
-0.166000
20
1.311000
0
VERTEX
8
0
10
-0.166000
20
1.534000
0
VERTEX
8
0
10
-1.581000
20
1.534000
0
VERTEX
8
0
10
-1.581000
20
1.311000
0
SEQEND
8
0
0
POLYLINE
8
0
66
1
40
0.029000
41
0.029000
0
VERTEX
8
0
10
-1.007000
20
0.690000
0
VERTEX
8
0
10
-0.173000
20
0.690000
0
VERTEX
8
0
10
-0.173000
20
0.950000
0
VERTEX
8
0
10
-1.007000
20
0.950000
0
VERTEX
8
0
10
-1.007000
20
0.690000
0
SEQEND
8
0
0
TEXT
8
12632256
10
-0.889000
20
0.852000
40
0.056000
41
0.892857
1
MUFLA
0
TEXT
8
12632256
10
-0.547000
20
0.848000
40
0.056000
41
0.892857
1
RAMPA
0
TEXT
8
12632256
10
-0.688000
20
0.746000
40
0.056000
41
0.892857
1
2018
0
TEXT
8
12632256
10
1.795000
20
0.694000
40
0.056000
41
0.892857
50
90.000000
1
JUDAPIES
0
TEXT
8
12632256
10
0.043000
20
1.411000
40
0.056000
41
0.892857
1
www.jpinglobal.com
0
TEXT
8
12632256
10
1.055000
20
0.702000
40
0.056000
41
0.892857
50
90.000000
1
Bogota-Colombia
0
TEXT
8
12632256
10
1.291000
20
0.116000
40
0.056000
41
0.892857
50
90.000000
1
DIELEC-MR001
0
TEXT
8
12632256
10
1.405000
20
0.301000
40
0.056000
41
0.892857
50
90.000000
1
V1.0
0
ENDSEC
0
EOF

