M48
INCH
T01C0.0200
T02C0.1181
T03C0.0600
T04C0.0450
T05C0.0400
T06C0.0300
%
T01
X+018015Y+025533
X+029527Y+016259
X+031354Y+016629
X+019173Y+025472
X+006220Y+023228
X+006614Y+016811
X+004118Y+025024
X+013952Y+020543
X+008931Y+022742
X+031377Y+024724
T02
X+001456Y+001496
X+037401Y+001653
X+037401Y+029291
X+001535Y+029409
T03
X+004330Y+002440
X+006330Y+002440
X+024803Y+002913
X+014960Y+002913
X+028267Y+002362
X+030267Y+002362
X+032598Y+002362
X+034598Y+002362
X+002244Y+012322
X+002244Y+010322
X+002244Y+008322
X+002244Y+006322
X+002322Y+020551
X+002322Y+018551
X+002322Y+016551
X+002322Y+014551
T04
X+009015Y+003385
X+011015Y+001385
X+009015Y+001385
X+011015Y+003385
X+010551Y+007913
X+012551Y+007913
T05
X+018724Y+002125
X+019724Y+002125
X+020724Y+002125
X+029055Y+012070
X+029055Y+013070
X+029055Y+014070
X+021637Y+006102
X+017637Y+006102
X+023212Y+027362
X+022212Y+027362
X+021212Y+027362
X+020212Y+027362
X+019212Y+027362
X+018212Y+027362
X+017212Y+027362
X+016212Y+027362
X+015212Y+027362
X+014212Y+027362
X+013212Y+027362
X+012212Y+027362
X+011212Y+027362
X+010212Y+027362
X+009212Y+027362
X+008212Y+027362
X+007212Y+027362
X+006212Y+027362
X+005212Y+027362
X+004212Y+027362
X+015275Y+013346
X+016275Y+013346
X+017275Y+013346
X+018275Y+013346
X+019275Y+013346
X+020275Y+013346
X+021275Y+013346
X+022275Y+013346
X+033905Y+014370
X+034905Y+014370
X+035905Y+014370
X+036905Y+014370
X+037905Y+014370
X+031929Y+027440
X+034960Y+027440
X+036181Y+007220
X+036181Y+011220
X+034448Y+007141
X+034448Y+011141
X+037834Y+007220
X+037834Y+011220
T06
X+007362Y+005118
X+011362Y+005118
X+024842Y+006850
X+025842Y+006850
X+024448Y+009212
X+026448Y+009212
X+009291Y+015787
X+010291Y+015787
X+011291Y+015787
X+012291Y+015787
X+013291Y+015787
X+014291Y+015787
X+015291Y+015787
X+016291Y+015787
X+017291Y+015787
X+018291Y+015787
X+019291Y+015787
X+020291Y+015787
X+021291Y+015787
X+022291Y+015787
X+023291Y+015787
X+024291Y+015787
X+025291Y+015787
X+026291Y+015787
X+027291Y+015787
X+028291Y+015787
X+028291Y+021787
X+027291Y+021787
X+026291Y+021787
X+025291Y+021787
X+024291Y+021787
X+023291Y+021787
X+022291Y+021787
X+021291Y+021787
X+020291Y+021787
X+019291Y+021787
X+018291Y+021787
X+017291Y+021787
X+016291Y+021787
X+015291Y+021787
X+014291Y+021787
X+013291Y+021787
X+012291Y+021787
X+011291Y+021787
X+010291Y+021787
X+009291Y+021787
X+022590Y+017834
X+020590Y+017834
X+022519Y+019448
X+022519Y+020448
X+020669Y+019448
X+020669Y+020448
X+008582Y+014409
X+008582Y+010409
X+015196Y+011535
X+015196Y+007535
X+016299Y+011535
X+016299Y+007535
X+017519Y+011535
X+017519Y+007535
X+018622Y+011535
X+018622Y+007535
X+024370Y+023267
X+028370Y+023267
X+034803Y+022743
X+034803Y+023543
X+034803Y+024343
X+035354Y+019874
X+035354Y+015874
X+036535Y+019874
X+036535Y+015874
X+037650Y+019795
X+037650Y+015795
X+027992Y+009980
X+027992Y+005980
X+028976Y+009980
X+028976Y+005980
X+009606Y+014409
X+009606Y+010409
X+010708Y+014370
X+010708Y+010370
X+012125Y+014370
X+012125Y+010370
X+013267Y+014291
X+013267Y+010291
X+027968Y+027834
X+025968Y+027834
X+026968Y+025629
M30
