  0
SECTION
  2
HEADER
  9
$ACADVER
  1
AC1009
  9
$INSUNITS
 70
     1
  0
ENDSEC
  0
SECTION
  2
TABLES
  0
TABLE
  2
LAYER
 70
     8
  0
LAYER
  2
0
 62
     7
 70
0
  6
CONTINUOUS
  0
LAYER
  2
1
 62
     1
 70
0
  6
CONTINUOUS
  0
LAYER
  2
2
 62
     2
 70
0
  6
CONTINUOUS
  0
LAYER
  2
3
 62
     3
 70
0
  6
CONTINUOUS
  0
LAYER
  2
4
 62
     4
 70
0
  6
CONTINUOUS
  0
LAYER
  2
5
 62
     5
 70
0
  6
CONTINUOUS
  0
LAYER
  2
6
 62
     6
 70
0
  6
CONTINUOUS
  0
LAYER
  2
7
 62
     7
 70
0
  6
CONTINUOUS
  0
ENDTAB
  0
TABLE
  2
STYLE
 70
     1
  0
STYLE
 70
     0
  2
STANDARD
  3
TXT
 40
0.00
 41
1.00
 42
1.00
 50
0.00
 71
     0
  0
ENDTAB
  0
ENDSEC
  0
SECTION
  2
BLOCKS
  0
BLOCK
  8
0
  2
EPAD
 70
0
 10
0.0
 20
0.0
  0
POLYLINE
  8
0
 66
1
 70
1
 40
0.5
 41
0.5
  0
VERTEX
  8
0
 10
-0.25
 20
0.0
 42
1.0
  0
VERTEX
  8
0
 10
0.25
 20
0.0
 42
1.0
  0
SEQEND
  8
0
  0
ENDBLK
  8
0
  0
BLOCK
  8
0
  2
RPAD
 70
0
 10
0.0
 20
0.0
  0
TRACE
  8
0
 10
-0.5
 20
-0.5
 11
-0.5
 21
0.5
 12
0.5
 22
-0.5
 13
0.5
 23
0.5
  0
ENDBLK
  8
0
  0
ENDSEC
0
SECTION
2
ENTITIES
0
INSERT
8
0
2
RPAD
10
-0.232472
20
0.058783
41
0.045000
42
0.057000
50
90.000000
0
INSERT
8
0
2
RPAD
10
-0.232472
20
-0.012083
41
0.045000
42
0.057000
50
90.000000
0
INSERT
8
0
2
RPAD
10
-0.334835
20
0.058783
41
0.045000
42
0.057000
50
90.000000
0
INSERT
8
0
2
RPAD
10
-0.334835
20
-0.012083
41
0.045000
42
0.057000
50
90.000000
0
INSERT
8
0
2
RPAD
10
0.562803
20
0.271382
41
0.043000
42
0.067000
50
0.000000
0
INSERT
8
0
2
RPAD
10
0.448630
20
0.271382
41
0.043000
42
0.067000
50
0.000000
0
INSERT
8
0
2
RPAD
10
-0.067118
20
-0.295547
41
0.043000
42
0.067000
50
180.000000
0
INSERT
8
0
2
RPAD
10
0.047055
20
-0.295547
41
0.043000
42
0.067000
50
180.000000
0
INSERT
8
0
2
RPAD
10
0.717134
20
-0.099043
41
0.060000
42
0.080000
50
-90.000000
0
INSERT
8
0
2
RPAD
10
0.717134
20
-0.209043
41
0.060000
42
0.080000
50
-90.000000
0
INSERT
8
0
2
RPAD
10
-0.137307
20
-0.283736
41
0.065000
42
0.120000
50
180.000000
0
INSERT
8
0
2
RPAD
10
-0.255307
20
-0.283736
41
0.065000
42
0.120000
50
180.000000
0
POLYLINE
8
0
66
1
40
0.008000
41
0.008000
0
VERTEX
8
0
10
-0.952157
20
-0.878224
0
VERTEX
8
0
10
0.952157
20
-0.878224
0
VERTEX
8
0
10
0.952157
20
1.161933
0
VERTEX
8
0
10
-0.952157
20
1.161933
0
VERTEX
8
0
10
-0.952157
20
-0.878224
0
SEQEND
8
0
0
POLYLINE
8
0
66
1
40
0.006000
41
0.006000
0
VERTEX
8
0
10
0.025992
20
-1.112933
0
VERTEX
8
0
10
0.050992
20
-1.162933
0
SEQEND
8
0
0
POLYLINE
8
0
66
1
40
0.006000
41
0.006000
0
VERTEX
8
0
10
0.075992
20
-1.112933
0
VERTEX
8
0
10
0.050992
20
-1.162933
0
SEQEND
8
0
0
POLYLINE
8
0
66
1
40
0.006000
41
0.006000
0
VERTEX
8
0
10
-0.248008
20
-1.112933
0
VERTEX
8
0
10
0.223992
20
-1.112933
0
VERTEX
8
0
10
0.223992
20
-0.462933
0
VERTEX
8
0
10
-0.248008
20
-0.462933
0
VERTEX
8
0
10
-0.248008
20
-1.112933
0
SEQEND
8
0
0
TEXT
8
0
10
-0.087008
20
-0.453933
40
0.048000
41
1.041667
1
J13
0
POLYLINE
8
0
66
1
40
0.008000
41
0.008000
0
VERTEX
8
0
10
0.587803
20
0.104453
0
VERTEX
8
0
10
-0.762197
20
0.104453
0
VERTEX
8
0
10
-0.762197
20
-0.095547
0
VERTEX
8
0
10
0.587803
20
-0.095547
0
SEQEND
8
0
0
POLYLINE
8
0
66
1
40
0.008000
41
0.008000
0
VERTEX
8
0
10
0.587803
20
0.104453
0
VERTEX
8
0
10
0.587803
20
0.054453
0
SEQEND
8
0
0
POLYLINE
8
0
66
1
40
0.008000
41
0.008000
0
VERTEX
8
0
10
0.587803
20
-0.095547
0
VERTEX
8
0
10
0.587803
20
-0.045547
0
SEQEND
8
0
0
POLYLINE
8
0
66
1
40
0.008000
41
0.008000
0
VERTEX
8
0
10
0.587803
20
0.054453
0
VERTEX
8
0
10
0.577580
20
0.053458
0
VERTEX
8
0
10
0.568125
20
0.050595
0
VERTEX
8
0
10
0.559623
20
0.046048
0
VERTEX
8
0
10
0.552256
20
0.040000
0
VERTEX
8
0
10
0.546208
20
0.032633
0
VERTEX
8
0
10
0.541661
20
0.024130
0
VERTEX
8
0
10
0.538798
20
0.014676
0
VERTEX
8
0
10
0.537803
20
0.004453
0
SEQEND
8
0
0
POLYLINE
8
0
66
1
40
0.008000
41
0.008000
0
VERTEX
8
0
10
0.587803
20
-0.045547
0
VERTEX
8
0
10
0.577580
20
-0.044552
0
VERTEX
8
0
10
0.568125
20
-0.041690
0
VERTEX
8
0
10
0.559623
20
-0.037143
0
VERTEX
8
0
10
0.552256
20
-0.031094
0
VERTEX
8
0
10
0.546208
20
-0.023727
0
VERTEX
8
0
10
0.541661
20
-0.015225
0
VERTEX
8
0
10
0.538798
20
-0.005771
0
VERTEX
8
0
10
0.537803
20
0.004453
0
SEQEND
8
0
0
CIRCLE
8
0
10
0.567803
20
0.088453
40
0.002828
0
TEXT
8
0
10
0.419102
20
0.009311
40
0.048000
41
1.041667
1
U1
0
CIRCLE
8
0
10
-0.682472
20
0.338311
40
0.100000
0
POLYLINE
8
0
66
1
40
0.008000
41
0.008000
0
VERTEX
8
0
10
-0.757472
20
0.388311
0
VERTEX
8
0
10
-0.707472
20
0.388311
0
SEQEND
8
0
0
POLYLINE
8
0
66
1
40
0.008000
41
0.008000
0
VERTEX
8
0
10
-0.732472
20
0.413311
0
VERTEX
8
0
10
-0.732472
20
0.363311
0
SEQEND
8
0
0
TEXT
8
0
10
-0.732835
20
0.448311
40
0.048000
41
1.041667
1
C1
0
POLYLINE
8
0
66
1
40
0.008000
41
0.008000
0
VERTEX
8
0
10
-0.116331
20
0.242248
0
VERTEX
8
0
10
-0.416331
20
0.242248
0
VERTEX
8
0
10
-0.466331
20
0.292248
0
VERTEX
8
0
10
-0.466331
20
0.392248
0
VERTEX
8
0
10
-0.416331
20
0.442248
0
VERTEX
8
0
10
-0.116331
20
0.442248
0
VERTEX
8
0
10
-0.066331
20
0.392248
0
VERTEX
8
0
10
-0.066331
20
0.292248
0
VERTEX
8
0
10
-0.116331
20
0.242248
0
SEQEND
8
0
0
TEXT
8
0
10
-0.316331
20
0.184248
40
0.048000
41
1.041667
1
X1
0
POLYLINE
8
0
66
1
40
0.007874
41
0.007874
0
VERTEX
8
0
10
-0.258063
20
0.023350
0
VERTEX
8
0
10
-0.206882
20
0.023350
0
SEQEND
8
0
0
TEXT
8
0
10
-0.130205
20
0.069413
40
0.048000
41
1.041667
50
90.000000
71
2
1
C8
0
POLYLINE
8
0
66
1
40
0.007874
41
0.007874
0
VERTEX
8
0
10
-0.360425
20
0.023350
0
VERTEX
8
0
10
-0.309244
20
0.023350
0
SEQEND
8
0
0
TEXT
8
0
10
-0.370362
20
0.073350
40
0.048000
41
1.041667
50
90.000000
71
2
1
C9
0
CIRCLE
8
0
10
0.161228
20
-0.337673
40
0.000000
0
CIRCLE
8
0
10
0.161228
20
-0.337673
40
0.100000
0
POLYLINE
8
0
66
1
40
0.008000
41
0.008000
0
VERTEX
8
0
10
0.261228
20
-0.212673
0
VERTEX
8
0
10
0.261228
20
-0.262673
0
SEQEND
8
0
0
POLYLINE
8
0
66
1
40
0.008000
41
0.008000
0
VERTEX
8
0
10
0.286228
20
-0.237673
0
VERTEX
8
0
10
0.236228
20
-0.237673
0
SEQEND
8
0
0
TEXT
8
0
10
0.344228
20
-0.375173
40
0.048000
41
1.041667
50
90.000000
1
D1
0
POLYLINE
8
0
66
1
40
0.007874
41
0.007874
0
VERTEX
8
0
10
0.525402
20
0.237917
0
VERTEX
8
0
10
0.486031
20
0.237917
0
SEQEND
8
0
0
POLYLINE
8
0
66
1
40
0.007874
41
0.007874
0
VERTEX
8
0
10
0.525402
20
0.304846
0
VERTEX
8
0
10
0.486031
20
0.304846
0
SEQEND
8
0
0
TEXT
8
0
10
0.555717
20
0.314783
40
0.048000
41
1.041667
71
2
1
R1
0
POLYLINE
8
0
66
1
40
0.007874
41
0.007874
0
VERTEX
8
0
10
-0.029717
20
-0.262083
0
VERTEX
8
0
10
0.009654
20
-0.262083
0
SEQEND
8
0
0
POLYLINE
8
0
66
1
40
0.007874
41
0.007874
0
VERTEX
8
0
10
-0.029717
20
-0.329012
0
VERTEX
8
0
10
0.009654
20
-0.329012
0
SEQEND
8
0
0
TEXT
8
0
10
0.064969
20
-0.386949
40
0.048000
41
1.041667
71
2
1
R24
0
TEXT
8
0
10
0.657299
20
-0.348618
40
0.056000
41
0.714286
50
90.000000
1
GND VCC SCL SDA
0
TEXT
8
0
10
-0.851134
20
-0.224681
40
0.080000
41
1.000000
50
90.000000
1
USB-I2C
0
TEXT
8
0
10
-0.870268
20
-0.792744
40
0.064000
41
0.937500
1
JUDAPIES
0
POLYLINE
8
0
66
1
40
0.008000
41
0.008000
0
VERTEX
8
0
10
0.667748
20
-0.266728
0
VERTEX
8
0
10
0.917748
20
-0.266728
0
VERTEX
8
0
10
0.917748
20
0.233272
0
VERTEX
8
0
10
0.667748
20
0.233272
0
VERTEX
8
0
10
0.667748
20
-0.266728
0
SEQEND
8
0
0
POLYLINE
8
0
66
1
40
0.008000
41
0.008000
0
VERTEX
8
0
10
0.717748
20
-0.266728
0
VERTEX
8
0
10
0.717748
20
0.233272
0
SEQEND
8
0
0
TEXT
8
0
10
0.785748
20
-0.400728
40
0.048000
41
1.041667
50
90.000000
1
J2
0
TEXT
8
0
10
-0.000575
20
1.065083
40
0.048000
41
1.041667
50
-90.000000
1
AC
0
TEXT
8
0
10
-0.293850
20
1.063209
40
0.048000
41
1.041667
50
-90.000000
1
AC
0
TEXT
8
0
10
-0.701551
20
1.064705
40
0.048000
41
1.041667
50
-90.000000
1
V+
0
TEXT
8
0
10
-0.796039
20
1.068642
40
0.048000
41
1.041667
50
-90.000000
1
V-
0
POLYLINE
8
0
66
1
40
0.008000
41
0.008000
0
VERTEX
8
0
10
-0.867906
20
0.854626
0
VERTEX
8
0
10
0.114661
20
0.854626
0
VERTEX
8
0
10
0.114661
20
1.082972
0
VERTEX
8
0
10
-0.867906
20
1.082972
0
VERTEX
8
0
10
-0.867906
20
0.854626
0
SEQEND
8
0
0
TEXT
8
0
10
-0.903000
20
0.770138
40
0.048000
41
1.041667
1
U2
0
TEXT
8
0
10
-0.000575
20
0.746185
40
0.048000
41
1.041667
50
-90.000000
1
AC
0
TEXT
8
0
10
-0.293850
20
0.744311
40
0.048000
41
1.041667
50
-90.000000
1
AC
0
TEXT
8
0
10
-0.701551
20
0.745807
40
0.048000
41
1.041667
50
-90.000000
1
V+
0
TEXT
8
0
10
-0.796039
20
0.749744
40
0.048000
41
1.041667
50
-90.000000
1
V-
0
POLYLINE
8
0
66
1
40
0.008000
41
0.008000
0
VERTEX
8
0
10
-0.867906
20
0.535728
0
VERTEX
8
0
10
0.114661
20
0.535728
0
VERTEX
8
0
10
0.114661
20
0.764075
0
VERTEX
8
0
10
-0.867906
20
0.764075
0
VERTEX
8
0
10
-0.867906
20
0.535728
0
SEQEND
8
0
0
TEXT
8
0
10
-0.906937
20
0.466988
40
0.048000
41
1.041667
1
U3
0
POLYLINE
8
0
66
1
40
0.008000
41
0.008000
0
VERTEX
8
0
10
0.900992
20
1.072957
0
VERTEX
8
0
10
0.500992
20
1.072957
0
SEQEND
8
0
0
POLYLINE
8
0
66
1
40
0.008000
41
0.008000
0
VERTEX
8
0
10
0.900992
20
0.472957
0
VERTEX
8
0
10
0.500992
20
0.472957
0
SEQEND
8
0
0
POLYLINE
8
0
66
1
40
0.008000
41
0.008000
0
VERTEX
8
0
10
0.500992
20
1.072957
0
VERTEX
8
0
10
0.500992
20
0.472957
0
SEQEND
8
0
0
POLYLINE
8
0
66
1
40
0.008000
41
0.008000
0
VERTEX
8
0
10
0.900992
20
0.472957
0
VERTEX
8
0
10
0.900992
20
1.072957
0
SEQEND
8
0
0
TEXT
8
0
10
0.730646
20
0.348941
40
0.048000
41
1.041667
50
90.000000
1
J3
0
TEXT
8
0
10
0.466299
20
0.483980
40
0.064000
41
0.781250
50
90.000000
1
L1   O1  O2
0
POLYLINE
8
0
66
1
40
0.008000
41
0.008000
0
VERTEX
8
0
10
-0.584835
20
-0.337673
0
VERTEX
8
0
10
-0.284835
20
-0.337673
0
VERTEX
8
0
10
-0.284835
20
-0.237673
0
VERTEX
8
0
10
-0.584835
20
-0.237673
0
VERTEX
8
0
10
-0.584835
20
-0.337673
0
SEQEND
8
0
0
TEXT
8
0
10
-0.701370
20
-0.314287
40
0.048000
41
1.041667
1
J1
0
TEXT
8
0
10
-0.597827
20
-0.432224
40
0.048000
41
0.833333
1
TX RX GND
0
POLYLINE
8
0
66
1
40
0.008000
41
0.008000
0
VERTEX
8
0
10
0.747134
20
-0.169043
0
VERTEX
8
0
10
0.747134
20
-0.139043
0
SEQEND
8
0
0
POLYLINE
8
0
66
1
40
0.008000
41
0.008000
0
VERTEX
8
0
10
0.687134
20
-0.169043
0
VERTEX
8
0
10
0.687134
20
-0.139043
0
SEQEND
8
0
0
POLYLINE
8
0
66
1
40
0.008000
41
0.008000
0
VERTEX
8
0
10
0.777134
20
-0.119043
0
VERTEX
8
0
10
0.777134
20
-0.099043
0
SEQEND
8
0
0
POLYLINE
8
0
66
1
40
0.008000
41
0.008000
0
VERTEX
8
0
10
0.787134
20
-0.109043
0
VERTEX
8
0
10
0.767134
20
-0.109043
0
SEQEND
8
0
0
TEXT
8
0
10
0.865134
20
-0.218043
40
0.048000
41
1.041667
50
90.000000
71
2
1
C2
0
POLYLINE
8
0
66
1
40
0.008000
41
0.008000
0
VERTEX
8
0
10
-0.215307
20
-0.338736
0
VERTEX
8
0
10
-0.177307
20
-0.338736
0
SEQEND
8
0
0
POLYLINE
8
0
66
1
40
0.008000
41
0.008000
0
VERTEX
8
0
10
-0.215307
20
-0.227736
0
VERTEX
8
0
10
-0.176307
20
-0.227736
0
SEQEND
8
0
0
POLYLINE
8
0
66
1
40
0.008000
41
0.008000
0
VERTEX
8
0
10
-0.135307
20
-0.353736
0
VERTEX
8
0
10
-0.135307
20
-0.373736
0
SEQEND
8
0
0
POLYLINE
8
0
66
1
40
0.008000
41
0.008000
0
VERTEX
8
0
10
-0.145307
20
-0.363736
0
VERTEX
8
0
10
-0.125307
20
-0.363736
0
SEQEND
8
0
0
TEXT
8
0
10
-0.125244
20
-0.404177
40
0.048000
41
1.041667
71
2
1
C16
0
INSERT
8
0
2
EPAD
10
0.050992
20
-0.522933
41
0.090000
42
0.090000
0
INSERT
8
0
2
EPAD
10
-0.075008
20
-0.522933
41
0.090000
42
0.090000
0
INSERT
8
0
2
EPAD
10
-0.075008
20
-0.620933
41
0.090000
42
0.090000
0
INSERT
8
0
2
EPAD
10
0.050992
20
-0.620933
41
0.090000
42
0.090000
0
INSERT
8
0
2
EPAD
10
-0.249008
20
-0.708933
41
0.150000
42
0.150000
0
INSERT
8
0
2
EPAD
10
-0.249008
20
-0.708933
41
0.150000
42
0.150000
0
INSERT
8
0
2
EPAD
10
0.224992
20
-0.708933
41
0.150000
42
0.150000
0
INSERT
8
0
2
EPAD
10
0.224992
20
-0.708933
41
0.150000
42
0.150000
0
POLYLINE
8
0
66
1
70
1
40
0
41
0
0
VERTEX
8
0
10
0.608591
20
0.194453
0
VERTEX
8
0
10
0.608591
20
0.114453
0
VERTEX
8
0
10
0.608491
20
0.113430
0
VERTEX
8
0
10
0.608205
20
0.112485
0
VERTEX
8
0
10
0.607750
20
0.111635
0
VERTEX
8
0
10
0.607145
20
0.110898
0
VERTEX
8
0
10
0.606408
20
0.110293
0
VERTEX
8
0
10
0.605558
20
0.109839
0
VERTEX
8
0
10
0.604613
20
0.109552
0
VERTEX
8
0
10
0.603591
20
0.109453
0
VERTEX
8
0
10
0.523591
20
0.109453
0
VERTEX
8
0
10
0.522568
20
0.109552
0
VERTEX
8
0
10
0.521623
20
0.109839
0
VERTEX
8
0
10
0.520773
20
0.110293
0
VERTEX
8
0
10
0.520036
20
0.110898
0
VERTEX
8
0
10
0.519431
20
0.111635
0
VERTEX
8
0
10
0.518976
20
0.112485
0
VERTEX
8
0
10
0.518690
20
0.113430
0
VERTEX
8
0
10
0.518591
20
0.114453
0
VERTEX
8
0
10
0.518591
20
0.194453
0
VERTEX
8
0
10
0.518690
20
0.195475
0
VERTEX
8
0
10
0.518976
20
0.196420
0
VERTEX
8
0
10
0.519431
20
0.197271
0
VERTEX
8
0
10
0.520036
20
0.198007
0
VERTEX
8
0
10
0.520773
20
0.198612
0
VERTEX
8
0
10
0.521623
20
0.199067
0
VERTEX
8
0
10
0.522568
20
0.199353
0
VERTEX
8
0
10
0.523591
20
0.199453
0
VERTEX
8
0
10
0.603591
20
0.199453
0
VERTEX
8
0
10
0.604613
20
0.199353
0
VERTEX
8
0
10
0.605558
20
0.199067
0
VERTEX
8
0
10
0.606408
20
0.198612
0
VERTEX
8
0
10
0.607145
20
0.198007
0
VERTEX
8
0
10
0.607750
20
0.197271
0
VERTEX
8
0
10
0.608205
20
0.196420
0
VERTEX
8
0
10
0.608491
20
0.195475
0
VERTEX
8
0
10
0.608591
20
0.194453
0
SEQEND
8
0
0
INSERT
8
0
2
EPAD
10
0.463591
20
0.154453
41
0.100000
42
0.100000
0
INSERT
8
0
2
EPAD
10
0.363591
20
0.154453
41
0.100000
42
0.100000
0
INSERT
8
0
2
EPAD
10
0.263591
20
0.154453
41
0.100000
42
0.100000
0
INSERT
8
0
2
EPAD
10
0.163591
20
0.154453
41
0.100000
42
0.100000
0
INSERT
8
0
2
EPAD
10
0.063591
20
0.154453
41
0.100000
42
0.100000
0
INSERT
8
0
2
EPAD
10
-0.036409
20
0.154453
41
0.100000
42
0.100000
0
INSERT
8
0
2
EPAD
10
-0.136409
20
0.154453
41
0.100000
42
0.100000
0
INSERT
8
0
2
EPAD
10
-0.236409
20
0.154453
41
0.100000
42
0.100000
0
INSERT
8
0
2
EPAD
10
-0.336409
20
0.154453
41
0.100000
42
0.100000
0
INSERT
8
0
2
EPAD
10
-0.436409
20
0.154453
41
0.100000
42
0.100000
0
INSERT
8
0
2
EPAD
10
-0.536409
20
0.154453
41
0.100000
42
0.100000
0
INSERT
8
0
2
EPAD
10
-0.636409
20
0.154453
41
0.100000
42
0.100000
0
INSERT
8
0
2
EPAD
10
-0.736409
20
0.154453
41
0.100000
42
0.100000
0
INSERT
8
0
2
EPAD
10
-0.736409
20
-0.145547
41
0.100000
42
0.100000
0
INSERT
8
0
2
EPAD
10
-0.636409
20
-0.145547
41
0.100000
42
0.100000
0
INSERT
8
0
2
EPAD
10
-0.536409
20
-0.145547
41
0.100000
42
0.100000
0
INSERT
8
0
2
EPAD
10
-0.436409
20
-0.145547
41
0.100000
42
0.100000
0
INSERT
8
0
2
EPAD
10
-0.336409
20
-0.145547
41
0.100000
42
0.100000
0
INSERT
8
0
2
EPAD
10
-0.236409
20
-0.145547
41
0.100000
42
0.100000
0
INSERT
8
0
2
EPAD
10
-0.136409
20
-0.145547
41
0.100000
42
0.100000
0
INSERT
8
0
2
EPAD
10
-0.036409
20
-0.145547
41
0.100000
42
0.100000
0
INSERT
8
0
2
EPAD
10
0.063591
20
-0.145547
41
0.100000
42
0.100000
0
INSERT
8
0
2
EPAD
10
0.163591
20
-0.145547
41
0.100000
42
0.100000
0
INSERT
8
0
2
EPAD
10
0.263591
20
-0.145547
41
0.100000
42
0.100000
0
INSERT
8
0
2
EPAD
10
0.363591
20
-0.145547
41
0.100000
42
0.100000
0
INSERT
8
0
2
EPAD
10
0.463591
20
-0.145547
41
0.100000
42
0.100000
0
INSERT
8
0
2
EPAD
10
0.562803
20
-0.145547
41
0.100000
42
0.100000
0
INSERT
8
0
2
EPAD
10
-0.732472
20
0.338311
41
0.100000
42
0.100000
0
INSERT
8
0
2
EPAD
10
-0.632472
20
0.338311
41
0.100000
42
0.100000
0
INSERT
8
0
2
EPAD
10
-0.166331
20
0.342248
41
0.100000
42
0.100000
0
INSERT
8
0
2
EPAD
10
-0.366331
20
0.342248
41
0.100000
42
0.100000
0
POLYLINE
8
0
66
1
70
1
40
0
41
0
0
VERTEX
8
0
10
-0.260972
20
0.081283
0
VERTEX
8
0
10
-0.260972
20
0.036283
0
VERTEX
8
0
10
-0.203972
20
0.036283
0
VERTEX
8
0
10
-0.203972
20
0.081283
0
VERTEX
8
0
10
-0.260972
20
0.081283
0
SEQEND
8
0
0
POLYLINE
8
0
66
1
70
1
40
0
41
0
0
VERTEX
8
0
10
-0.260972
20
0.010417
0
VERTEX
8
0
10
-0.260972
20
-0.034583
0
VERTEX
8
0
10
-0.203972
20
-0.034583
0
VERTEX
8
0
10
-0.203972
20
0.010417
0
VERTEX
8
0
10
-0.260972
20
0.010417
0
SEQEND
8
0
0
POLYLINE
8
0
66
1
70
1
40
0
41
0
0
VERTEX
8
0
10
-0.363335
20
0.081283
0
VERTEX
8
0
10
-0.363335
20
0.036283
0
VERTEX
8
0
10
-0.306335
20
0.036283
0
VERTEX
8
0
10
-0.306335
20
0.081283
0
VERTEX
8
0
10
-0.363335
20
0.081283
0
SEQEND
8
0
0
POLYLINE
8
0
66
1
70
1
40
0
41
0
0
VERTEX
8
0
10
-0.363335
20
0.010417
0
VERTEX
8
0
10
-0.363335
20
-0.034583
0
VERTEX
8
0
10
-0.306335
20
-0.034583
0
VERTEX
8
0
10
-0.306335
20
0.010417
0
VERTEX
8
0
10
-0.363335
20
0.010417
0
SEQEND
8
0
0
POLYLINE
8
0
66
1
70
1
40
0
41
0
0
VERTEX
8
0
10
0.211228
20
-0.247673
0
VERTEX
8
0
10
0.211228
20
-0.327673
0
VERTEX
8
0
10
0.211178
20
-0.328713
0
VERTEX
8
0
10
0.211030
20
-0.329718
0
VERTEX
8
0
10
0.210787
20
-0.330685
0
VERTEX
8
0
10
0.210457
20
-0.331609
0
VERTEX
8
0
10
0.210042
20
-0.332485
0
VERTEX
8
0
10
0.209547
20
-0.333309
0
VERTEX
8
0
10
0.208978
20
-0.334077
0
VERTEX
8
0
10
0.208338
20
-0.334783
0
VERTEX
8
0
10
0.207631
20
-0.335423
0
VERTEX
8
0
10
0.206864
20
-0.335992
0
VERTEX
8
0
10
0.206040
20
-0.336487
0
VERTEX
8
0
10
0.205164
20
-0.336902
0
VERTEX
8
0
10
0.204240
20
-0.337232
0
VERTEX
8
0
10
0.203273
20
-0.337474
0
VERTEX
8
0
10
0.202268
20
-0.337623
0
VERTEX
8
0
10
0.201228
20
-0.337673
0
VERTEX
8
0
10
0.121228
20
-0.337673
0
VERTEX
8
0
10
0.120189
20
-0.337623
0
VERTEX
8
0
10
0.119184
20
-0.337474
0
VERTEX
8
0
10
0.118217
20
-0.337232
0
VERTEX
8
0
10
0.117293
20
-0.336902
0
VERTEX
8
0
10
0.116417
20
-0.336487
0
VERTEX
8
0
10
0.115593
20
-0.335992
0
VERTEX
8
0
10
0.114825
20
-0.335423
0
VERTEX
8
0
10
0.114119
20
-0.334783
0
VERTEX
8
0
10
0.113479
20
-0.334077
0
VERTEX
8
0
10
0.112909
20
-0.333309
0
VERTEX
8
0
10
0.112415
20
-0.332485
0
VERTEX
8
0
10
0.112000
20
-0.331609
0
VERTEX
8
0
10
0.111669
20
-0.330685
0
VERTEX
8
0
10
0.111427
20
-0.329718
0
VERTEX
8
0
10
0.111279
20
-0.328713
0
VERTEX
8
0
10
0.111228
20
-0.327673
0
VERTEX
8
0
10
0.111228
20
-0.247673
0
VERTEX
8
0
10
0.111279
20
-0.246634
0
VERTEX
8
0
10
0.111427
20
-0.245629
0
VERTEX
8
0
10
0.111669
20
-0.244662
0
VERTEX
8
0
10
0.112000
20
-0.243738
0
VERTEX
8
0
10
0.112415
20
-0.242861
0
VERTEX
8
0
10
0.112909
20
-0.242037
0
VERTEX
8
0
10
0.113479
20
-0.241270
0
VERTEX
8
0
10
0.114119
20
-0.240564
0
VERTEX
8
0
10
0.114825
20
-0.239924
0
VERTEX
8
0
10
0.115593
20
-0.239354
0
VERTEX
8
0
10
0.116417
20
-0.238860
0
VERTEX
8
0
10
0.117293
20
-0.238445
0
VERTEX
8
0
10
0.118217
20
-0.238114
0
VERTEX
8
0
10
0.119184
20
-0.237872
0
VERTEX
8
0
10
0.120189
20
-0.237724
0
VERTEX
8
0
10
0.121228
20
-0.237673
0
VERTEX
8
0
10
0.201228
20
-0.237673
0
VERTEX
8
0
10
0.202268
20
-0.237724
0
VERTEX
8
0
10
0.203273
20
-0.237872
0
VERTEX
8
0
10
0.204240
20
-0.238114
0
VERTEX
8
0
10
0.205164
20
-0.238445
0
VERTEX
8
0
10
0.206040
20
-0.238860
0
VERTEX
8
0
10
0.206864
20
-0.239354
0
VERTEX
8
0
10
0.207631
20
-0.239924
0
VERTEX
8
0
10
0.208338
20
-0.240564
0
VERTEX
8
0
10
0.208978
20
-0.241270
0
VERTEX
8
0
10
0.209547
20
-0.242037
0
VERTEX
8
0
10
0.210042
20
-0.242861
0
VERTEX
8
0
10
0.210457
20
-0.243738
0
VERTEX
8
0
10
0.210787
20
-0.244662
0
VERTEX
8
0
10
0.211030
20
-0.245629
0
VERTEX
8
0
10
0.211178
20
-0.246634
0
VERTEX
8
0
10
0.211228
20
-0.247673
0
SEQEND
8
0
0
POLYLINE
8
0
66
1
70
1
40
0
41
0
0
VERTEX
8
0
10
0.211228
20
-0.347673
0
VERTEX
8
0
10
0.211228
20
-0.427673
0
VERTEX
8
0
10
0.211178
20
-0.428713
0
VERTEX
8
0
10
0.211030
20
-0.429718
0
VERTEX
8
0
10
0.210787
20
-0.430685
0
VERTEX
8
0
10
0.210457
20
-0.431609
0
VERTEX
8
0
10
0.210042
20
-0.432485
0
VERTEX
8
0
10
0.209547
20
-0.433309
0
VERTEX
8
0
10
0.208978
20
-0.434077
0
VERTEX
8
0
10
0.208338
20
-0.434783
0
VERTEX
8
0
10
0.207631
20
-0.435423
0
VERTEX
8
0
10
0.206864
20
-0.435992
0
VERTEX
8
0
10
0.206040
20
-0.436487
0
VERTEX
8
0
10
0.205164
20
-0.436902
0
VERTEX
8
0
10
0.204240
20
-0.437232
0
VERTEX
8
0
10
0.203273
20
-0.437474
0
VERTEX
8
0
10
0.202268
20
-0.437623
0
VERTEX
8
0
10
0.201228
20
-0.437673
0
VERTEX
8
0
10
0.121228
20
-0.437673
0
VERTEX
8
0
10
0.120189
20
-0.437623
0
VERTEX
8
0
10
0.119184
20
-0.437474
0
VERTEX
8
0
10
0.118217
20
-0.437232
0
VERTEX
8
0
10
0.117293
20
-0.436902
0
VERTEX
8
0
10
0.116417
20
-0.436487
0
VERTEX
8
0
10
0.115593
20
-0.435992
0
VERTEX
8
0
10
0.114825
20
-0.435423
0
VERTEX
8
0
10
0.114119
20
-0.434783
0
VERTEX
8
0
10
0.113479
20
-0.434077
0
VERTEX
8
0
10
0.112909
20
-0.433309
0
VERTEX
8
0
10
0.112415
20
-0.432485
0
VERTEX
8
0
10
0.112000
20
-0.431609
0
VERTEX
8
0
10
0.111669
20
-0.430685
0
VERTEX
8
0
10
0.111427
20
-0.429718
0
VERTEX
8
0
10
0.111279
20
-0.428713
0
VERTEX
8
0
10
0.111228
20
-0.427673
0
VERTEX
8
0
10
0.111228
20
-0.347673
0
VERTEX
8
0
10
0.111279
20
-0.346634
0
VERTEX
8
0
10
0.111427
20
-0.345629
0
VERTEX
8
0
10
0.111669
20
-0.344662
0
VERTEX
8
0
10
0.112000
20
-0.343738
0
VERTEX
8
0
10
0.112415
20
-0.342861
0
VERTEX
8
0
10
0.112909
20
-0.342037
0
VERTEX
8
0
10
0.113479
20
-0.341270
0
VERTEX
8
0
10
0.114119
20
-0.340564
0
VERTEX
8
0
10
0.114825
20
-0.339924
0
VERTEX
8
0
10
0.115593
20
-0.339354
0
VERTEX
8
0
10
0.116417
20
-0.338860
0
VERTEX
8
0
10
0.117293
20
-0.338445
0
VERTEX
8
0
10
0.118217
20
-0.338114
0
VERTEX
8
0
10
0.119184
20
-0.337872
0
VERTEX
8
0
10
0.120189
20
-0.337724
0
VERTEX
8
0
10
0.121228
20
-0.337673
0
VERTEX
8
0
10
0.201228
20
-0.337673
0
VERTEX
8
0
10
0.202268
20
-0.337724
0
VERTEX
8
0
10
0.203273
20
-0.337872
0
VERTEX
8
0
10
0.204240
20
-0.338114
0
VERTEX
8
0
10
0.205164
20
-0.338445
0
VERTEX
8
0
10
0.206040
20
-0.338860
0
VERTEX
8
0
10
0.206864
20
-0.339354
0
VERTEX
8
0
10
0.207631
20
-0.339924
0
VERTEX
8
0
10
0.208338
20
-0.340564
0
VERTEX
8
0
10
0.208978
20
-0.341270
0
VERTEX
8
0
10
0.209547
20
-0.342037
0
VERTEX
8
0
10
0.210042
20
-0.342861
0
VERTEX
8
0
10
0.210457
20
-0.343738
0
VERTEX
8
0
10
0.210787
20
-0.344662
0
VERTEX
8
0
10
0.211030
20
-0.345629
0
VERTEX
8
0
10
0.211178
20
-0.346634
0
VERTEX
8
0
10
0.211228
20
-0.347673
0
SEQEND
8
0
0
POLYLINE
8
0
66
1
70
1
40
0
41
0
0
VERTEX
8
0
10
0.584303
20
0.304882
0
VERTEX
8
0
10
0.541303
20
0.304882
0
VERTEX
8
0
10
0.541303
20
0.237882
0
VERTEX
8
0
10
0.584303
20
0.237882
0
VERTEX
8
0
10
0.584303
20
0.304882
0
SEQEND
8
0
0
POLYLINE
8
0
66
1
70
1
40
0
41
0
0
VERTEX
8
0
10
0.470130
20
0.304882
0
VERTEX
8
0
10
0.427130
20
0.304882
0
VERTEX
8
0
10
0.427130
20
0.237882
0
VERTEX
8
0
10
0.470130
20
0.237882
0
VERTEX
8
0
10
0.470130
20
0.304882
0
SEQEND
8
0
0
POLYLINE
8
0
66
1
70
1
40
0
41
0
0
VERTEX
8
0
10
-0.088618
20
-0.329047
0
VERTEX
8
0
10
-0.045618
20
-0.329047
0
VERTEX
8
0
10
-0.045618
20
-0.262047
0
VERTEX
8
0
10
-0.088618
20
-0.262047
0
VERTEX
8
0
10
-0.088618
20
-0.329047
0
SEQEND
8
0
0
POLYLINE
8
0
66
1
70
1
40
0
41
0
0
VERTEX
8
0
10
0.025555
20
-0.329047
0
VERTEX
8
0
10
0.068555
20
-0.329047
0
VERTEX
8
0
10
0.068555
20
-0.262047
0
VERTEX
8
0
10
0.025555
20
-0.262047
0
VERTEX
8
0
10
0.025555
20
-0.329047
0
SEQEND
8
0
0
INSERT
8
0
2
EPAD
10
0.669102
20
-0.561295
41
0.256220
42
0.256220
0
INSERT
8
0
2
EPAD
10
-0.708850
20
-0.561295
41
0.256220
42
0.256220
0
INSERT
8
0
2
EPAD
10
0.817748
20
-0.166728
41
0.090000
42
0.090000
0
INSERT
8
0
2
EPAD
10
0.817748
20
-0.066728
41
0.090000
42
0.090000
0
INSERT
8
0
2
EPAD
10
0.817748
20
0.033272
41
0.090000
42
0.090000
0
INSERT
8
0
2
EPAD
10
0.817748
20
0.133272
41
0.090000
42
0.090000
0
POLYLINE
8
0
66
1
70
1
40
0
41
0
0
VERTEX
8
0
10
-0.027079
20
0.973232
0
VERTEX
8
0
10
0.062921
20
0.973232
0
VERTEX
8
0
10
0.063961
20
0.973182
0
VERTEX
8
0
10
0.064966
20
0.973033
0
VERTEX
8
0
10
0.065933
20
0.972791
0
VERTEX
8
0
10
0.066857
20
0.972461
0
VERTEX
8
0
10
0.067733
20
0.972046
0
VERTEX
8
0
10
0.068557
20
0.971551
0
VERTEX
8
0
10
0.069325
20
0.970982
0
VERTEX
8
0
10
0.070031
20
0.970342
0
VERTEX
8
0
10
0.070671
20
0.969635
0
VERTEX
8
0
10
0.071240
20
0.968868
0
VERTEX
8
0
10
0.071735
20
0.968044
0
VERTEX
8
0
10
0.072150
20
0.967168
0
VERTEX
8
0
10
0.072480
20
0.966244
0
VERTEX
8
0
10
0.072722
20
0.965277
0
VERTEX
8
0
10
0.072871
20
0.964272
0
VERTEX
8
0
10
0.072921
20
0.963232
0
VERTEX
8
0
10
0.072921
20
0.873232
0
VERTEX
8
0
10
0.072871
20
0.872193
0
VERTEX
8
0
10
0.072722
20
0.871188
0
VERTEX
8
0
10
0.072480
20
0.870221
0
VERTEX
8
0
10
0.072150
20
0.869297
0
VERTEX
8
0
10
0.071735
20
0.868420
0
VERTEX
8
0
10
0.071240
20
0.867596
0
VERTEX
8
0
10
0.070671
20
0.866829
0
VERTEX
8
0
10
0.070031
20
0.866123
0
VERTEX
8
0
10
0.069325
20
0.865483
0
VERTEX
8
0
10
0.068557
20
0.864913
0
VERTEX
8
0
10
0.067733
20
0.864419
0
VERTEX
8
0
10
0.066857
20
0.864004
0
VERTEX
8
0
10
0.065933
20
0.863673
0
VERTEX
8
0
10
0.064966
20
0.863431
0
VERTEX
8
0
10
0.063961
20
0.863283
0
VERTEX
8
0
10
0.062921
20
0.863232
0
VERTEX
8
0
10
-0.027079
20
0.863232
0
VERTEX
8
0
10
-0.028118
20
0.863283
0
VERTEX
8
0
10
-0.029123
20
0.863431
0
VERTEX
8
0
10
-0.030090
20
0.863673
0
VERTEX
8
0
10
-0.031014
20
0.864004
0
VERTEX
8
0
10
-0.031891
20
0.864419
0
VERTEX
8
0
10
-0.032715
20
0.864913
0
VERTEX
8
0
10
-0.033482
20
0.865483
0
VERTEX
8
0
10
-0.034188
20
0.866123
0
VERTEX
8
0
10
-0.034828
20
0.866829
0
VERTEX
8
0
10
-0.035398
20
0.867596
0
VERTEX
8
0
10
-0.035892
20
0.868420
0
VERTEX
8
0
10
-0.036307
20
0.869297
0
VERTEX
8
0
10
-0.036638
20
0.870221
0
VERTEX
8
0
10
-0.036880
20
0.871188
0
VERTEX
8
0
10
-0.037028
20
0.872193
0
VERTEX
8
0
10
-0.037079
20
0.873232
0
VERTEX
8
0
10
-0.037079
20
0.963232
0
VERTEX
8
0
10
-0.037028
20
0.964272
0
VERTEX
8
0
10
-0.036880
20
0.965277
0
VERTEX
8
0
10
-0.036638
20
0.966244
0
VERTEX
8
0
10
-0.036307
20
0.967168
0
VERTEX
8
0
10
-0.035892
20
0.968044
0
VERTEX
8
0
10
-0.035398
20
0.968868
0
VERTEX
8
0
10
-0.034828
20
0.969635
0
VERTEX
8
0
10
-0.034188
20
0.970342
0
VERTEX
8
0
10
-0.033482
20
0.970982
0
VERTEX
8
0
10
-0.032715
20
0.971551
0
VERTEX
8
0
10
-0.031891
20
0.972046
0
VERTEX
8
0
10
-0.031014
20
0.972461
0
VERTEX
8
0
10
-0.030090
20
0.972791
0
VERTEX
8
0
10
-0.029123
20
0.973033
0
VERTEX
8
0
10
-0.028118
20
0.973182
0
VERTEX
8
0
10
-0.027079
20
0.973232
0
SEQEND
8
0
0
POLYLINE
8
0
66
1
70
1
40
0
41
0
0
VERTEX
8
0
10
-0.322354
20
0.973232
0
VERTEX
8
0
10
-0.232354
20
0.973232
0
VERTEX
8
0
10
-0.231315
20
0.973182
0
VERTEX
8
0
10
-0.230310
20
0.973033
0
VERTEX
8
0
10
-0.229343
20
0.972791
0
VERTEX
8
0
10
-0.228419
20
0.972461
0
VERTEX
8
0
10
-0.227543
20
0.972046
0
VERTEX
8
0
10
-0.226719
20
0.971551
0
VERTEX
8
0
10
-0.225951
20
0.970982
0
VERTEX
8
0
10
-0.225245
20
0.970342
0
VERTEX
8
0
10
-0.224605
20
0.969635
0
VERTEX
8
0
10
-0.224035
20
0.968868
0
VERTEX
8
0
10
-0.223541
20
0.968044
0
VERTEX
8
0
10
-0.223126
20
0.967168
0
VERTEX
8
0
10
-0.222795
20
0.966244
0
VERTEX
8
0
10
-0.222553
20
0.965277
0
VERTEX
8
0
10
-0.222405
20
0.964272
0
VERTEX
8
0
10
-0.222354
20
0.963232
0
VERTEX
8
0
10
-0.222354
20
0.873232
0
VERTEX
8
0
10
-0.222405
20
0.872193
0
VERTEX
8
0
10
-0.222553
20
0.871188
0
VERTEX
8
0
10
-0.222795
20
0.870221
0
VERTEX
8
0
10
-0.223126
20
0.869297
0
VERTEX
8
0
10
-0.223541
20
0.868420
0
VERTEX
8
0
10
-0.224035
20
0.867596
0
VERTEX
8
0
10
-0.224605
20
0.866829
0
VERTEX
8
0
10
-0.225245
20
0.866123
0
VERTEX
8
0
10
-0.225951
20
0.865483
0
VERTEX
8
0
10
-0.226719
20
0.864913
0
VERTEX
8
0
10
-0.227543
20
0.864419
0
VERTEX
8
0
10
-0.228419
20
0.864004
0
VERTEX
8
0
10
-0.229343
20
0.863673
0
VERTEX
8
0
10
-0.230310
20
0.863431
0
VERTEX
8
0
10
-0.231315
20
0.863283
0
VERTEX
8
0
10
-0.232354
20
0.863232
0
VERTEX
8
0
10
-0.322354
20
0.863232
0
VERTEX
8
0
10
-0.323394
20
0.863283
0
VERTEX
8
0
10
-0.324399
20
0.863431
0
VERTEX
8
0
10
-0.325366
20
0.863673
0
VERTEX
8
0
10
-0.326290
20
0.864004
0
VERTEX
8
0
10
-0.327166
20
0.864419
0
VERTEX
8
0
10
-0.327990
20
0.864913
0
VERTEX
8
0
10
-0.328758
20
0.865483
0
VERTEX
8
0
10
-0.329464
20
0.866123
0
VERTEX
8
0
10
-0.330104
20
0.866829
0
VERTEX
8
0
10
-0.330673
20
0.867596
0
VERTEX
8
0
10
-0.331168
20
0.868420
0
VERTEX
8
0
10
-0.331583
20
0.869297
0
VERTEX
8
0
10
-0.331913
20
0.870221
0
VERTEX
8
0
10
-0.332156
20
0.871188
0
VERTEX
8
0
10
-0.332304
20
0.872193
0
VERTEX
8
0
10
-0.332354
20
0.873232
0
VERTEX
8
0
10
-0.332354
20
0.963232
0
VERTEX
8
0
10
-0.332304
20
0.964272
0
VERTEX
8
0
10
-0.332156
20
0.965277
0
VERTEX
8
0
10
-0.331913
20
0.966244
0
VERTEX
8
0
10
-0.331583
20
0.967168
0
VERTEX
8
0
10
-0.331168
20
0.968044
0
VERTEX
8
0
10
-0.330673
20
0.968868
0
VERTEX
8
0
10
-0.330104
20
0.969635
0
VERTEX
8
0
10
-0.329464
20
0.970342
0
VERTEX
8
0
10
-0.328758
20
0.970982
0
VERTEX
8
0
10
-0.327990
20
0.971551
0
VERTEX
8
0
10
-0.327166
20
0.972046
0
VERTEX
8
0
10
-0.326290
20
0.972461
0
VERTEX
8
0
10
-0.325366
20
0.972791
0
VERTEX
8
0
10
-0.324399
20
0.973033
0
VERTEX
8
0
10
-0.323394
20
0.973182
0
VERTEX
8
0
10
-0.322354
20
0.973232
0
SEQEND
8
0
0
POLYLINE
8
0
66
1
70
1
40
0
41
0
0
VERTEX
8
0
10
-0.711055
20
0.958232
0
VERTEX
8
0
10
-0.631055
20
0.958232
0
VERTEX
8
0
10
-0.631055
20
0.878232
0
VERTEX
8
0
10
-0.711055
20
0.878232
0
VERTEX
8
0
10
-0.711055
20
0.958232
0
SEQEND
8
0
0
POLYLINE
8
0
66
1
70
1
40
0
41
0
0
VERTEX
8
0
10
-0.809480
20
0.958232
0
VERTEX
8
0
10
-0.729480
20
0.958232
0
VERTEX
8
0
10
-0.729480
20
0.878232
0
VERTEX
8
0
10
-0.809480
20
0.878232
0
VERTEX
8
0
10
-0.809480
20
0.958232
0
SEQEND
8
0
0
POLYLINE
8
0
66
1
70
1
40
0
41
0
0
VERTEX
8
0
10
-0.027079
20
0.654335
0
VERTEX
8
0
10
0.062921
20
0.654335
0
VERTEX
8
0
10
0.063961
20
0.654284
0
VERTEX
8
0
10
0.064966
20
0.654136
0
VERTEX
8
0
10
0.065933
20
0.653894
0
VERTEX
8
0
10
0.066857
20
0.653563
0
VERTEX
8
0
10
0.067733
20
0.653148
0
VERTEX
8
0
10
0.068557
20
0.652654
0
VERTEX
8
0
10
0.069325
20
0.652084
0
VERTEX
8
0
10
0.070031
20
0.651444
0
VERTEX
8
0
10
0.070671
20
0.650738
0
VERTEX
8
0
10
0.071240
20
0.649970
0
VERTEX
8
0
10
0.071735
20
0.649146
0
VERTEX
8
0
10
0.072150
20
0.648270
0
VERTEX
8
0
10
0.072480
20
0.647346
0
VERTEX
8
0
10
0.072722
20
0.646379
0
VERTEX
8
0
10
0.072871
20
0.645374
0
VERTEX
8
0
10
0.072921
20
0.644335
0
VERTEX
8
0
10
0.072921
20
0.554335
0
VERTEX
8
0
10
0.072871
20
0.553295
0
VERTEX
8
0
10
0.072722
20
0.552290
0
VERTEX
8
0
10
0.072480
20
0.551323
0
VERTEX
8
0
10
0.072150
20
0.550399
0
VERTEX
8
0
10
0.071735
20
0.549523
0
VERTEX
8
0
10
0.071240
20
0.548699
0
VERTEX
8
0
10
0.070671
20
0.547931
0
VERTEX
8
0
10
0.070031
20
0.547225
0
VERTEX
8
0
10
0.069325
20
0.546585
0
VERTEX
8
0
10
0.068557
20
0.546016
0
VERTEX
8
0
10
0.067733
20
0.545521
0
VERTEX
8
0
10
0.066857
20
0.545106
0
VERTEX
8
0
10
0.065933
20
0.544776
0
VERTEX
8
0
10
0.064966
20
0.544533
0
VERTEX
8
0
10
0.063961
20
0.544385
0
VERTEX
8
0
10
0.062921
20
0.544335
0
VERTEX
8
0
10
-0.027079
20
0.544335
0
VERTEX
8
0
10
-0.028118
20
0.544385
0
VERTEX
8
0
10
-0.029123
20
0.544533
0
VERTEX
8
0
10
-0.030090
20
0.544776
0
VERTEX
8
0
10
-0.031014
20
0.545106
0
VERTEX
8
0
10
-0.031891
20
0.545521
0
VERTEX
8
0
10
-0.032715
20
0.546016
0
VERTEX
8
0
10
-0.033482
20
0.546585
0
VERTEX
8
0
10
-0.034188
20
0.547225
0
VERTEX
8
0
10
-0.034828
20
0.547931
0
VERTEX
8
0
10
-0.035398
20
0.548699
0
VERTEX
8
0
10
-0.035892
20
0.549523
0
VERTEX
8
0
10
-0.036307
20
0.550399
0
VERTEX
8
0
10
-0.036638
20
0.551323
0
VERTEX
8
0
10
-0.036880
20
0.552290
0
VERTEX
8
0
10
-0.037028
20
0.553295
0
VERTEX
8
0
10
-0.037079
20
0.554335
0
VERTEX
8
0
10
-0.037079
20
0.644335
0
VERTEX
8
0
10
-0.037028
20
0.645374
0
VERTEX
8
0
10
-0.036880
20
0.646379
0
VERTEX
8
0
10
-0.036638
20
0.647346
0
VERTEX
8
0
10
-0.036307
20
0.648270
0
VERTEX
8
0
10
-0.035892
20
0.649146
0
VERTEX
8
0
10
-0.035398
20
0.649970
0
VERTEX
8
0
10
-0.034828
20
0.650738
0
VERTEX
8
0
10
-0.034188
20
0.651444
0
VERTEX
8
0
10
-0.033482
20
0.652084
0
VERTEX
8
0
10
-0.032715
20
0.652654
0
VERTEX
8
0
10
-0.031891
20
0.653148
0
VERTEX
8
0
10
-0.031014
20
0.653563
0
VERTEX
8
0
10
-0.030090
20
0.653894
0
VERTEX
8
0
10
-0.029123
20
0.654136
0
VERTEX
8
0
10
-0.028118
20
0.654284
0
VERTEX
8
0
10
-0.027079
20
0.654335
0
SEQEND
8
0
0
POLYLINE
8
0
66
1
70
1
40
0
41
0
0
VERTEX
8
0
10
-0.322354
20
0.654335
0
VERTEX
8
0
10
-0.232354
20
0.654335
0
VERTEX
8
0
10
-0.231315
20
0.654284
0
VERTEX
8
0
10
-0.230310
20
0.654136
0
VERTEX
8
0
10
-0.229343
20
0.653894
0
VERTEX
8
0
10
-0.228419
20
0.653563
0
VERTEX
8
0
10
-0.227543
20
0.653148
0
VERTEX
8
0
10
-0.226719
20
0.652654
0
VERTEX
8
0
10
-0.225951
20
0.652084
0
VERTEX
8
0
10
-0.225245
20
0.651444
0
VERTEX
8
0
10
-0.224605
20
0.650738
0
VERTEX
8
0
10
-0.224035
20
0.649970
0
VERTEX
8
0
10
-0.223541
20
0.649146
0
VERTEX
8
0
10
-0.223126
20
0.648270
0
VERTEX
8
0
10
-0.222795
20
0.647346
0
VERTEX
8
0
10
-0.222553
20
0.646379
0
VERTEX
8
0
10
-0.222405
20
0.645374
0
VERTEX
8
0
10
-0.222354
20
0.644335
0
VERTEX
8
0
10
-0.222354
20
0.554335
0
VERTEX
8
0
10
-0.222405
20
0.553295
0
VERTEX
8
0
10
-0.222553
20
0.552290
0
VERTEX
8
0
10
-0.222795
20
0.551323
0
VERTEX
8
0
10
-0.223126
20
0.550399
0
VERTEX
8
0
10
-0.223541
20
0.549523
0
VERTEX
8
0
10
-0.224035
20
0.548699
0
VERTEX
8
0
10
-0.224605
20
0.547931
0
VERTEX
8
0
10
-0.225245
20
0.547225
0
VERTEX
8
0
10
-0.225951
20
0.546585
0
VERTEX
8
0
10
-0.226719
20
0.546016
0
VERTEX
8
0
10
-0.227543
20
0.545521
0
VERTEX
8
0
10
-0.228419
20
0.545106
0
VERTEX
8
0
10
-0.229343
20
0.544776
0
VERTEX
8
0
10
-0.230310
20
0.544533
0
VERTEX
8
0
10
-0.231315
20
0.544385
0
VERTEX
8
0
10
-0.232354
20
0.544335
0
VERTEX
8
0
10
-0.322354
20
0.544335
0
VERTEX
8
0
10
-0.323394
20
0.544385
0
VERTEX
8
0
10
-0.324399
20
0.544533
0
VERTEX
8
0
10
-0.325366
20
0.544776
0
VERTEX
8
0
10
-0.326290
20
0.545106
0
VERTEX
8
0
10
-0.327166
20
0.545521
0
VERTEX
8
0
10
-0.327990
20
0.546016
0
VERTEX
8
0
10
-0.328758
20
0.546585
0
VERTEX
8
0
10
-0.329464
20
0.547225
0
VERTEX
8
0
10
-0.330104
20
0.547931
0
VERTEX
8
0
10
-0.330673
20
0.548699
0
VERTEX
8
0
10
-0.331168
20
0.549523
0
VERTEX
8
0
10
-0.331583
20
0.550399
0
VERTEX
8
0
10
-0.331913
20
0.551323
0
VERTEX
8
0
10
-0.332156
20
0.552290
0
VERTEX
8
0
10
-0.332304
20
0.553295
0
VERTEX
8
0
10
-0.332354
20
0.554335
0
VERTEX
8
0
10
-0.332354
20
0.644335
0
VERTEX
8
0
10
-0.332304
20
0.645374
0
VERTEX
8
0
10
-0.332156
20
0.646379
0
VERTEX
8
0
10
-0.331913
20
0.647346
0
VERTEX
8
0
10
-0.331583
20
0.648270
0
VERTEX
8
0
10
-0.331168
20
0.649146
0
VERTEX
8
0
10
-0.330673
20
0.649970
0
VERTEX
8
0
10
-0.330104
20
0.650738
0
VERTEX
8
0
10
-0.329464
20
0.651444
0
VERTEX
8
0
10
-0.328758
20
0.652084
0
VERTEX
8
0
10
-0.327990
20
0.652654
0
VERTEX
8
0
10
-0.327166
20
0.653148
0
VERTEX
8
0
10
-0.326290
20
0.653563
0
VERTEX
8
0
10
-0.325366
20
0.653894
0
VERTEX
8
0
10
-0.324399
20
0.654136
0
VERTEX
8
0
10
-0.323394
20
0.654284
0
VERTEX
8
0
10
-0.322354
20
0.654335
0
SEQEND
8
0
0
POLYLINE
8
0
66
1
70
1
40
0
41
0
0
VERTEX
8
0
10
-0.711055
20
0.639335
0
VERTEX
8
0
10
-0.631055
20
0.639335
0
VERTEX
8
0
10
-0.631055
20
0.559335
0
VERTEX
8
0
10
-0.711055
20
0.559335
0
VERTEX
8
0
10
-0.711055
20
0.639335
0
SEQEND
8
0
0
POLYLINE
8
0
66
1
70
1
40
0
41
0
0
VERTEX
8
0
10
-0.809480
20
0.639335
0
VERTEX
8
0
10
-0.729480
20
0.639335
0
VERTEX
8
0
10
-0.729480
20
0.559335
0
VERTEX
8
0
10
-0.809480
20
0.559335
0
VERTEX
8
0
10
-0.809480
20
0.639335
0
SEQEND
8
0
0
INSERT
8
0
2
EPAD
10
0.700992
20
0.972957
41
0.150000
42
0.150000
0
INSERT
8
0
2
EPAD
10
0.700992
20
0.772957
41
0.150000
42
0.150000
0
INSERT
8
0
2
EPAD
10
0.700992
20
0.572957
41
0.150000
42
0.150000
0
POLYLINE
8
0
66
1
70
1
40
0
41
0
0
VERTEX
8
0
10
-0.574835
20
-0.237673
0
VERTEX
8
0
10
-0.494835
20
-0.237673
0
VERTEX
8
0
10
-0.493795
20
-0.237724
0
VERTEX
8
0
10
-0.492790
20
-0.237872
0
VERTEX
8
0
10
-0.491823
20
-0.238114
0
VERTEX
8
0
10
-0.490899
20
-0.238445
0
VERTEX
8
0
10
-0.490023
20
-0.238859
0
VERTEX
8
0
10
-0.489199
20
-0.239354
0
VERTEX
8
0
10
-0.488431
20
-0.239924
0
VERTEX
8
0
10
-0.487725
20
-0.240564
0
VERTEX
8
0
10
-0.487085
20
-0.241270
0
VERTEX
8
0
10
-0.486516
20
-0.242037
0
VERTEX
8
0
10
-0.486021
20
-0.242861
0
VERTEX
8
0
10
-0.485606
20
-0.243738
0
VERTEX
8
0
10
-0.485276
20
-0.244662
0
VERTEX
8
0
10
-0.485033
20
-0.245629
0
VERTEX
8
0
10
-0.484885
20
-0.246634
0
VERTEX
8
0
10
-0.484835
20
-0.247673
0
VERTEX
8
0
10
-0.484835
20
-0.327673
0
VERTEX
8
0
10
-0.484885
20
-0.328713
0
VERTEX
8
0
10
-0.485033
20
-0.329718
0
VERTEX
8
0
10
-0.485276
20
-0.330685
0
VERTEX
8
0
10
-0.485606
20
-0.331609
0
VERTEX
8
0
10
-0.486021
20
-0.332485
0
VERTEX
8
0
10
-0.486516
20
-0.333309
0
VERTEX
8
0
10
-0.487085
20
-0.334076
0
VERTEX
8
0
10
-0.487725
20
-0.334783
0
VERTEX
8
0
10
-0.488431
20
-0.335423
0
VERTEX
8
0
10
-0.489199
20
-0.335992
0
VERTEX
8
0
10
-0.490023
20
-0.336487
0
VERTEX
8
0
10
-0.490899
20
-0.336902
0
VERTEX
8
0
10
-0.491823
20
-0.337232
0
VERTEX
8
0
10
-0.492790
20
-0.337474
0
VERTEX
8
0
10
-0.493795
20
-0.337623
0
VERTEX
8
0
10
-0.494835
20
-0.337673
0
VERTEX
8
0
10
-0.574835
20
-0.337673
0
VERTEX
8
0
10
-0.575874
20
-0.337623
0
VERTEX
8
0
10
-0.576879
20
-0.337474
0
VERTEX
8
0
10
-0.577846
20
-0.337232
0
VERTEX
8
0
10
-0.578770
20
-0.336902
0
VERTEX
8
0
10
-0.579646
20
-0.336487
0
VERTEX
8
0
10
-0.580470
20
-0.335992
0
VERTEX
8
0
10
-0.581238
20
-0.335423
0
VERTEX
8
0
10
-0.581944
20
-0.334783
0
VERTEX
8
0
10
-0.582584
20
-0.334076
0
VERTEX
8
0
10
-0.583154
20
-0.333309
0
VERTEX
8
0
10
-0.583648
20
-0.332485
0
VERTEX
8
0
10
-0.584063
20
-0.331609
0
VERTEX
8
0
10
-0.584394
20
-0.330685
0
VERTEX
8
0
10
-0.584636
20
-0.329718
0
VERTEX
8
0
10
-0.584784
20
-0.328713
0
VERTEX
8
0
10
-0.584835
20
-0.327673
0
VERTEX
8
0
10
-0.584835
20
-0.247673
0
VERTEX
8
0
10
-0.584784
20
-0.246634
0
VERTEX
8
0
10
-0.584636
20
-0.245629
0
VERTEX
8
0
10
-0.584394
20
-0.244662
0
VERTEX
8
0
10
-0.584063
20
-0.243738
0
VERTEX
8
0
10
-0.583648
20
-0.242861
0
VERTEX
8
0
10
-0.583154
20
-0.242037
0
VERTEX
8
0
10
-0.582584
20
-0.241270
0
VERTEX
8
0
10
-0.581944
20
-0.240564
0
VERTEX
8
0
10
-0.581238
20
-0.239924
0
VERTEX
8
0
10
-0.580470
20
-0.239354
0
VERTEX
8
0
10
-0.579646
20
-0.238859
0
VERTEX
8
0
10
-0.578770
20
-0.238445
0
VERTEX
8
0
10
-0.577846
20
-0.238114
0
VERTEX
8
0
10
-0.576879
20
-0.237872
0
VERTEX
8
0
10
-0.575874
20
-0.237724
0
VERTEX
8
0
10
-0.574835
20
-0.237673
0
SEQEND
8
0
0
POLYLINE
8
0
66
1
70
1
40
0
41
0
0
VERTEX
8
0
10
-0.474835
20
-0.237673
0
VERTEX
8
0
10
-0.394835
20
-0.237673
0
VERTEX
8
0
10
-0.393795
20
-0.237724
0
VERTEX
8
0
10
-0.392790
20
-0.237872
0
VERTEX
8
0
10
-0.391823
20
-0.238114
0
VERTEX
8
0
10
-0.390899
20
-0.238445
0
VERTEX
8
0
10
-0.390023
20
-0.238859
0
VERTEX
8
0
10
-0.389199
20
-0.239354
0
VERTEX
8
0
10
-0.388431
20
-0.239924
0
VERTEX
8
0
10
-0.387725
20
-0.240564
0
VERTEX
8
0
10
-0.387085
20
-0.241270
0
VERTEX
8
0
10
-0.386516
20
-0.242037
0
VERTEX
8
0
10
-0.386021
20
-0.242861
0
VERTEX
8
0
10
-0.385606
20
-0.243738
0
VERTEX
8
0
10
-0.385276
20
-0.244662
0
VERTEX
8
0
10
-0.385033
20
-0.245629
0
VERTEX
8
0
10
-0.384885
20
-0.246634
0
VERTEX
8
0
10
-0.384835
20
-0.247673
0
VERTEX
8
0
10
-0.384835
20
-0.327673
0
VERTEX
8
0
10
-0.384885
20
-0.328713
0
VERTEX
8
0
10
-0.385033
20
-0.329718
0
VERTEX
8
0
10
-0.385276
20
-0.330685
0
VERTEX
8
0
10
-0.385606
20
-0.331609
0
VERTEX
8
0
10
-0.386021
20
-0.332485
0
VERTEX
8
0
10
-0.386516
20
-0.333309
0
VERTEX
8
0
10
-0.387085
20
-0.334076
0
VERTEX
8
0
10
-0.387725
20
-0.334783
0
VERTEX
8
0
10
-0.388431
20
-0.335423
0
VERTEX
8
0
10
-0.389199
20
-0.335992
0
VERTEX
8
0
10
-0.390023
20
-0.336487
0
VERTEX
8
0
10
-0.390899
20
-0.336902
0
VERTEX
8
0
10
-0.391823
20
-0.337232
0
VERTEX
8
0
10
-0.392790
20
-0.337474
0
VERTEX
8
0
10
-0.393795
20
-0.337623
0
VERTEX
8
0
10
-0.394835
20
-0.337673
0
VERTEX
8
0
10
-0.474835
20
-0.337673
0
VERTEX
8
0
10
-0.475874
20
-0.337623
0
VERTEX
8
0
10
-0.476879
20
-0.337474
0
VERTEX
8
0
10
-0.477846
20
-0.337232
0
VERTEX
8
0
10
-0.478770
20
-0.336902
0
VERTEX
8
0
10
-0.479646
20
-0.336487
0
VERTEX
8
0
10
-0.480470
20
-0.335992
0
VERTEX
8
0
10
-0.481238
20
-0.335423
0
VERTEX
8
0
10
-0.481944
20
-0.334783
0
VERTEX
8
0
10
-0.482584
20
-0.334076
0
VERTEX
8
0
10
-0.483154
20
-0.333309
0
VERTEX
8
0
10
-0.483648
20
-0.332485
0
VERTEX
8
0
10
-0.484063
20
-0.331609
0
VERTEX
8
0
10
-0.484394
20
-0.330685
0
VERTEX
8
0
10
-0.484636
20
-0.329718
0
VERTEX
8
0
10
-0.484784
20
-0.328713
0
VERTEX
8
0
10
-0.484835
20
-0.327673
0
VERTEX
8
0
10
-0.484835
20
-0.247673
0
VERTEX
8
0
10
-0.484784
20
-0.246634
0
VERTEX
8
0
10
-0.484636
20
-0.245629
0
VERTEX
8
0
10
-0.484394
20
-0.244662
0
VERTEX
8
0
10
-0.484063
20
-0.243738
0
VERTEX
8
0
10
-0.483648
20
-0.242861
0
VERTEX
8
0
10
-0.483154
20
-0.242037
0
VERTEX
8
0
10
-0.482584
20
-0.241270
0
VERTEX
8
0
10
-0.481944
20
-0.240564
0
VERTEX
8
0
10
-0.481238
20
-0.239924
0
VERTEX
8
0
10
-0.480470
20
-0.239354
0
VERTEX
8
0
10
-0.479646
20
-0.238859
0
VERTEX
8
0
10
-0.478770
20
-0.238445
0
VERTEX
8
0
10
-0.477846
20
-0.238114
0
VERTEX
8
0
10
-0.476879
20
-0.237872
0
VERTEX
8
0
10
-0.475874
20
-0.237724
0
VERTEX
8
0
10
-0.474835
20
-0.237673
0
SEQEND
8
0
0
POLYLINE
8
0
66
1
70
1
40
0
41
0
0
VERTEX
8
0
10
-0.374835
20
-0.237673
0
VERTEX
8
0
10
-0.294835
20
-0.237673
0
VERTEX
8
0
10
-0.293795
20
-0.237724
0
VERTEX
8
0
10
-0.292790
20
-0.237872
0
VERTEX
8
0
10
-0.291823
20
-0.238114
0
VERTEX
8
0
10
-0.290899
20
-0.238445
0
VERTEX
8
0
10
-0.290023
20
-0.238859
0
VERTEX
8
0
10
-0.289199
20
-0.239354
0
VERTEX
8
0
10
-0.288431
20
-0.239924
0
VERTEX
8
0
10
-0.287725
20
-0.240564
0
VERTEX
8
0
10
-0.287085
20
-0.241270
0
VERTEX
8
0
10
-0.286516
20
-0.242037
0
VERTEX
8
0
10
-0.286021
20
-0.242861
0
VERTEX
8
0
10
-0.285606
20
-0.243738
0
VERTEX
8
0
10
-0.285276
20
-0.244662
0
VERTEX
8
0
10
-0.285033
20
-0.245629
0
VERTEX
8
0
10
-0.284885
20
-0.246634
0
VERTEX
8
0
10
-0.284835
20
-0.247673
0
VERTEX
8
0
10
-0.284835
20
-0.327673
0
VERTEX
8
0
10
-0.284885
20
-0.328713
0
VERTEX
8
0
10
-0.285033
20
-0.329718
0
VERTEX
8
0
10
-0.285276
20
-0.330685
0
VERTEX
8
0
10
-0.285606
20
-0.331609
0
VERTEX
8
0
10
-0.286021
20
-0.332485
0
VERTEX
8
0
10
-0.286516
20
-0.333309
0
VERTEX
8
0
10
-0.287085
20
-0.334076
0
VERTEX
8
0
10
-0.287725
20
-0.334783
0
VERTEX
8
0
10
-0.288431
20
-0.335423
0
VERTEX
8
0
10
-0.289199
20
-0.335992
0
VERTEX
8
0
10
-0.290023
20
-0.336487
0
VERTEX
8
0
10
-0.290899
20
-0.336902
0
VERTEX
8
0
10
-0.291823
20
-0.337232
0
VERTEX
8
0
10
-0.292790
20
-0.337474
0
VERTEX
8
0
10
-0.293795
20
-0.337623
0
VERTEX
8
0
10
-0.294835
20
-0.337673
0
VERTEX
8
0
10
-0.374835
20
-0.337673
0
VERTEX
8
0
10
-0.375874
20
-0.337623
0
VERTEX
8
0
10
-0.376879
20
-0.337474
0
VERTEX
8
0
10
-0.377846
20
-0.337232
0
VERTEX
8
0
10
-0.378770
20
-0.336902
0
VERTEX
8
0
10
-0.379646
20
-0.336487
0
VERTEX
8
0
10
-0.380470
20
-0.335992
0
VERTEX
8
0
10
-0.381238
20
-0.335423
0
VERTEX
8
0
10
-0.381944
20
-0.334783
0
VERTEX
8
0
10
-0.382584
20
-0.334076
0
VERTEX
8
0
10
-0.383154
20
-0.333309
0
VERTEX
8
0
10
-0.383648
20
-0.332485
0
VERTEX
8
0
10
-0.384063
20
-0.331609
0
VERTEX
8
0
10
-0.384394
20
-0.330685
0
VERTEX
8
0
10
-0.384636
20
-0.329718
0
VERTEX
8
0
10
-0.384784
20
-0.328713
0
VERTEX
8
0
10
-0.384835
20
-0.327673
0
VERTEX
8
0
10
-0.384835
20
-0.247673
0
VERTEX
8
0
10
-0.384784
20
-0.246634
0
VERTEX
8
0
10
-0.384636
20
-0.245629
0
VERTEX
8
0
10
-0.384394
20
-0.244662
0
VERTEX
8
0
10
-0.384063
20
-0.243738
0
VERTEX
8
0
10
-0.383648
20
-0.242861
0
VERTEX
8
0
10
-0.383154
20
-0.242037
0
VERTEX
8
0
10
-0.382584
20
-0.241270
0
VERTEX
8
0
10
-0.381944
20
-0.240564
0
VERTEX
8
0
10
-0.381238
20
-0.239924
0
VERTEX
8
0
10
-0.380470
20
-0.239354
0
VERTEX
8
0
10
-0.379646
20
-0.238859
0
VERTEX
8
0
10
-0.378770
20
-0.238445
0
VERTEX
8
0
10
-0.377846
20
-0.238114
0
VERTEX
8
0
10
-0.376879
20
-0.237872
0
VERTEX
8
0
10
-0.375874
20
-0.237724
0
VERTEX
8
0
10
-0.374835
20
-0.237673
0
SEQEND
8
0
0
POLYLINE
8
0
66
1
70
1
40
0
41
0
0
VERTEX
8
0
10
0.767134
20
-0.129043
0
VERTEX
8
0
10
0.767134
20
-0.069043
0
VERTEX
8
0
10
0.767083
20
-0.068004
0
VERTEX
8
0
10
0.766935
20
-0.066999
0
VERTEX
8
0
10
0.766693
20
-0.066032
0
VERTEX
8
0
10
0.766362
20
-0.065108
0
VERTEX
8
0
10
0.765948
20
-0.064231
0
VERTEX
8
0
10
0.765453
20
-0.063407
0
VERTEX
8
0
10
0.764883
20
-0.062640
0
VERTEX
8
0
10
0.764243
20
-0.061934
0
VERTEX
8
0
10
0.763537
20
-0.061294
0
VERTEX
8
0
10
0.762770
20
-0.060724
0
VERTEX
8
0
10
0.761946
20
-0.060230
0
VERTEX
8
0
10
0.761069
20
-0.059815
0
VERTEX
8
0
10
0.760145
20
-0.059484
0
VERTEX
8
0
10
0.759178
20
-0.059242
0
VERTEX
8
0
10
0.758173
20
-0.059094
0
VERTEX
8
0
10
0.757134
20
-0.059043
0
VERTEX
8
0
10
0.677134
20
-0.059043
0
VERTEX
8
0
10
0.676094
20
-0.059094
0
VERTEX
8
0
10
0.675089
20
-0.059242
0
VERTEX
8
0
10
0.674122
20
-0.059484
0
VERTEX
8
0
10
0.673198
20
-0.059815
0
VERTEX
8
0
10
0.672322
20
-0.060230
0
VERTEX
8
0
10
0.671498
20
-0.060724
0
VERTEX
8
0
10
0.670731
20
-0.061294
0
VERTEX
8
0
10
0.670024
20
-0.061934
0
VERTEX
8
0
10
0.669384
20
-0.062640
0
VERTEX
8
0
10
0.668815
20
-0.063407
0
VERTEX
8
0
10
0.668320
20
-0.064231
0
VERTEX
8
0
10
0.667906
20
-0.065108
0
VERTEX
8
0
10
0.667575
20
-0.066032
0
VERTEX
8
0
10
0.667333
20
-0.066999
0
VERTEX
8
0
10
0.667184
20
-0.068004
0
VERTEX
8
0
10
0.667134
20
-0.069043
0
VERTEX
8
0
10
0.667134
20
-0.129043
0
VERTEX
8
0
10
0.667184
20
-0.130083
0
VERTEX
8
0
10
0.667333
20
-0.131088
0
VERTEX
8
0
10
0.667575
20
-0.132055
0
VERTEX
8
0
10
0.667906
20
-0.132979
0
VERTEX
8
0
10
0.668320
20
-0.133855
0
VERTEX
8
0
10
0.668815
20
-0.134679
0
VERTEX
8
0
10
0.669384
20
-0.135447
0
VERTEX
8
0
10
0.670024
20
-0.136153
0
VERTEX
8
0
10
0.670731
20
-0.136793
0
VERTEX
8
0
10
0.671498
20
-0.137362
0
VERTEX
8
0
10
0.672322
20
-0.137857
0
VERTEX
8
0
10
0.673198
20
-0.138272
0
VERTEX
8
0
10
0.674122
20
-0.138602
0
VERTEX
8
0
10
0.675089
20
-0.138844
0
VERTEX
8
0
10
0.676094
20
-0.138993
0
VERTEX
8
0
10
0.677134
20
-0.139043
0
VERTEX
8
0
10
0.757134
20
-0.139043
0
VERTEX
8
0
10
0.758173
20
-0.138993
0
VERTEX
8
0
10
0.759178
20
-0.138844
0
VERTEX
8
0
10
0.760145
20
-0.138602
0
VERTEX
8
0
10
0.761069
20
-0.138272
0
VERTEX
8
0
10
0.761946
20
-0.137857
0
VERTEX
8
0
10
0.762770
20
-0.137362
0
VERTEX
8
0
10
0.763537
20
-0.136793
0
VERTEX
8
0
10
0.764243
20
-0.136153
0
VERTEX
8
0
10
0.764883
20
-0.135447
0
VERTEX
8
0
10
0.765453
20
-0.134679
0
VERTEX
8
0
10
0.765948
20
-0.133855
0
VERTEX
8
0
10
0.766362
20
-0.132979
0
VERTEX
8
0
10
0.766693
20
-0.132055
0
VERTEX
8
0
10
0.766935
20
-0.131088
0
VERTEX
8
0
10
0.767083
20
-0.130083
0
VERTEX
8
0
10
0.767134
20
-0.129043
0
SEQEND
8
0
0
POLYLINE
8
0
66
1
70
1
40
0
41
0
0
VERTEX
8
0
10
0.767134
20
-0.239043
0
VERTEX
8
0
10
0.767134
20
-0.179043
0
VERTEX
8
0
10
0.767083
20
-0.178004
0
VERTEX
8
0
10
0.766935
20
-0.176999
0
VERTEX
8
0
10
0.766693
20
-0.176032
0
VERTEX
8
0
10
0.766362
20
-0.175108
0
VERTEX
8
0
10
0.765948
20
-0.174231
0
VERTEX
8
0
10
0.765453
20
-0.173407
0
VERTEX
8
0
10
0.764883
20
-0.172640
0
VERTEX
8
0
10
0.764243
20
-0.171934
0
VERTEX
8
0
10
0.763537
20
-0.171294
0
VERTEX
8
0
10
0.762770
20
-0.170724
0
VERTEX
8
0
10
0.761946
20
-0.170230
0
VERTEX
8
0
10
0.761069
20
-0.169815
0
VERTEX
8
0
10
0.760145
20
-0.169484
0
VERTEX
8
0
10
0.759178
20
-0.169242
0
VERTEX
8
0
10
0.758173
20
-0.169094
0
VERTEX
8
0
10
0.757134
20
-0.169043
0
VERTEX
8
0
10
0.677134
20
-0.169043
0
VERTEX
8
0
10
0.676094
20
-0.169094
0
VERTEX
8
0
10
0.675089
20
-0.169242
0
VERTEX
8
0
10
0.674122
20
-0.169484
0
VERTEX
8
0
10
0.673198
20
-0.169815
0
VERTEX
8
0
10
0.672322
20
-0.170230
0
VERTEX
8
0
10
0.671498
20
-0.170724
0
VERTEX
8
0
10
0.670731
20
-0.171294
0
VERTEX
8
0
10
0.670024
20
-0.171934
0
VERTEX
8
0
10
0.669384
20
-0.172640
0
VERTEX
8
0
10
0.668815
20
-0.173407
0
VERTEX
8
0
10
0.668320
20
-0.174231
0
VERTEX
8
0
10
0.667906
20
-0.175108
0
VERTEX
8
0
10
0.667575
20
-0.176032
0
VERTEX
8
0
10
0.667333
20
-0.176999
0
VERTEX
8
0
10
0.667184
20
-0.178004
0
VERTEX
8
0
10
0.667134
20
-0.179043
0
VERTEX
8
0
10
0.667134
20
-0.239043
0
VERTEX
8
0
10
0.667184
20
-0.240083
0
VERTEX
8
0
10
0.667333
20
-0.241088
0
VERTEX
8
0
10
0.667575
20
-0.242055
0
VERTEX
8
0
10
0.667906
20
-0.242979
0
VERTEX
8
0
10
0.668320
20
-0.243855
0
VERTEX
8
0
10
0.668815
20
-0.244679
0
VERTEX
8
0
10
0.669384
20
-0.245447
0
VERTEX
8
0
10
0.670024
20
-0.246153
0
VERTEX
8
0
10
0.670731
20
-0.246793
0
VERTEX
8
0
10
0.671498
20
-0.247362
0
VERTEX
8
0
10
0.672322
20
-0.247857
0
VERTEX
8
0
10
0.673198
20
-0.248272
0
VERTEX
8
0
10
0.674122
20
-0.248602
0
VERTEX
8
0
10
0.675089
20
-0.248844
0
VERTEX
8
0
10
0.676094
20
-0.248993
0
VERTEX
8
0
10
0.677134
20
-0.249043
0
VERTEX
8
0
10
0.757134
20
-0.249043
0
VERTEX
8
0
10
0.758173
20
-0.248993
0
VERTEX
8
0
10
0.759178
20
-0.248844
0
VERTEX
8
0
10
0.760145
20
-0.248602
0
VERTEX
8
0
10
0.761069
20
-0.248272
0
VERTEX
8
0
10
0.761946
20
-0.247857
0
VERTEX
8
0
10
0.762770
20
-0.247362
0
VERTEX
8
0
10
0.763537
20
-0.246793
0
VERTEX
8
0
10
0.764243
20
-0.246153
0
VERTEX
8
0
10
0.764883
20
-0.245447
0
VERTEX
8
0
10
0.765453
20
-0.244679
0
VERTEX
8
0
10
0.765948
20
-0.243855
0
VERTEX
8
0
10
0.766362
20
-0.242979
0
VERTEX
8
0
10
0.766693
20
-0.242055
0
VERTEX
8
0
10
0.766935
20
-0.241088
0
VERTEX
8
0
10
0.767083
20
-0.240083
0
VERTEX
8
0
10
0.767134
20
-0.239043
0
SEQEND
8
0
0
POLYLINE
8
0
66
1
70
1
40
0
41
0
0
VERTEX
8
0
10
-0.169807
20
-0.353736
0
VERTEX
8
0
10
-0.104807
20
-0.353736
0
VERTEX
8
0
10
-0.103768
20
-0.353686
0
VERTEX
8
0
10
-0.102763
20
-0.353537
0
VERTEX
8
0
10
-0.101796
20
-0.353295
0
VERTEX
8
0
10
-0.100872
20
-0.352965
0
VERTEX
8
0
10
-0.099995
20
-0.352550
0
VERTEX
8
0
10
-0.099171
20
-0.352055
0
VERTEX
8
0
10
-0.098404
20
-0.351486
0
VERTEX
8
0
10
-0.097698
20
-0.350846
0
VERTEX
8
0
10
-0.097057
20
-0.350139
0
VERTEX
8
0
10
-0.096488
20
-0.349372
0
VERTEX
8
0
10
-0.095994
20
-0.348548
0
VERTEX
8
0
10
-0.095579
20
-0.347672
0
VERTEX
8
0
10
-0.095248
20
-0.346748
0
VERTEX
8
0
10
-0.095006
20
-0.345781
0
VERTEX
8
0
10
-0.094857
20
-0.344776
0
VERTEX
8
0
10
-0.094807
20
-0.343736
0
VERTEX
8
0
10
-0.094807
20
-0.223736
0
VERTEX
8
0
10
-0.094857
20
-0.222697
0
VERTEX
8
0
10
-0.095006
20
-0.221692
0
VERTEX
8
0
10
-0.095248
20
-0.220725
0
VERTEX
8
0
10
-0.095579
20
-0.219801
0
VERTEX
8
0
10
-0.095994
20
-0.218924
0
VERTEX
8
0
10
-0.096488
20
-0.218100
0
VERTEX
8
0
10
-0.097057
20
-0.217333
0
VERTEX
8
0
10
-0.097698
20
-0.216627
0
VERTEX
8
0
10
-0.098404
20
-0.215987
0
VERTEX
8
0
10
-0.099171
20
-0.215417
0
VERTEX
8
0
10
-0.099995
20
-0.214922
0
VERTEX
8
0
10
-0.100872
20
-0.214508
0
VERTEX
8
0
10
-0.101796
20
-0.214177
0
VERTEX
8
0
10
-0.102763
20
-0.213935
0
VERTEX
8
0
10
-0.103768
20
-0.213787
0
VERTEX
8
0
10
-0.104807
20
-0.213736
0
VERTEX
8
0
10
-0.169807
20
-0.213736
0
VERTEX
8
0
10
-0.170846
20
-0.213787
0
VERTEX
8
0
10
-0.171852
20
-0.213935
0
VERTEX
8
0
10
-0.172819
20
-0.214177
0
VERTEX
8
0
10
-0.173743
20
-0.214508
0
VERTEX
8
0
10
-0.174619
20
-0.214922
0
VERTEX
8
0
10
-0.175443
20
-0.215417
0
VERTEX
8
0
10
-0.176211
20
-0.215987
0
VERTEX
8
0
10
-0.176917
20
-0.216627
0
VERTEX
8
0
10
-0.177557
20
-0.217333
0
VERTEX
8
0
10
-0.178126
20
-0.218100
0
VERTEX
8
0
10
-0.178620
20
-0.218924
0
VERTEX
8
0
10
-0.179035
20
-0.219801
0
VERTEX
8
0
10
-0.179366
20
-0.220725
0
VERTEX
8
0
10
-0.179608
20
-0.221692
0
VERTEX
8
0
10
-0.179757
20
-0.222697
0
VERTEX
8
0
10
-0.179807
20
-0.223736
0
VERTEX
8
0
10
-0.179807
20
-0.343736
0
VERTEX
8
0
10
-0.179757
20
-0.344776
0
VERTEX
8
0
10
-0.179608
20
-0.345781
0
VERTEX
8
0
10
-0.179366
20
-0.346748
0
VERTEX
8
0
10
-0.179035
20
-0.347672
0
VERTEX
8
0
10
-0.178620
20
-0.348548
0
VERTEX
8
0
10
-0.178126
20
-0.349372
0
VERTEX
8
0
10
-0.177557
20
-0.350139
0
VERTEX
8
0
10
-0.176917
20
-0.350846
0
VERTEX
8
0
10
-0.176211
20
-0.351486
0
VERTEX
8
0
10
-0.175443
20
-0.352055
0
VERTEX
8
0
10
-0.174619
20
-0.352550
0
VERTEX
8
0
10
-0.173743
20
-0.352965
0
VERTEX
8
0
10
-0.172819
20
-0.353295
0
VERTEX
8
0
10
-0.171852
20
-0.353537
0
VERTEX
8
0
10
-0.170846
20
-0.353686
0
VERTEX
8
0
10
-0.169807
20
-0.353736
0
SEQEND
8
0
0
POLYLINE
8
0
66
1
70
1
40
0
41
0
0
VERTEX
8
0
10
-0.287807
20
-0.353736
0
VERTEX
8
0
10
-0.222807
20
-0.353736
0
VERTEX
8
0
10
-0.221768
20
-0.353686
0
VERTEX
8
0
10
-0.220763
20
-0.353537
0
VERTEX
8
0
10
-0.219796
20
-0.353295
0
VERTEX
8
0
10
-0.218872
20
-0.352965
0
VERTEX
8
0
10
-0.217995
20
-0.352550
0
VERTEX
8
0
10
-0.217171
20
-0.352055
0
VERTEX
8
0
10
-0.216404
20
-0.351486
0
VERTEX
8
0
10
-0.215698
20
-0.350846
0
VERTEX
8
0
10
-0.215057
20
-0.350139
0
VERTEX
8
0
10
-0.214488
20
-0.349372
0
VERTEX
8
0
10
-0.213994
20
-0.348548
0
VERTEX
8
0
10
-0.213579
20
-0.347672
0
VERTEX
8
0
10
-0.213248
20
-0.346748
0
VERTEX
8
0
10
-0.213006
20
-0.345781
0
VERTEX
8
0
10
-0.212857
20
-0.344776
0
VERTEX
8
0
10
-0.212807
20
-0.343736
0
VERTEX
8
0
10
-0.212807
20
-0.223736
0
VERTEX
8
0
10
-0.212857
20
-0.222697
0
VERTEX
8
0
10
-0.213006
20
-0.221692
0
VERTEX
8
0
10
-0.213248
20
-0.220725
0
VERTEX
8
0
10
-0.213579
20
-0.219801
0
VERTEX
8
0
10
-0.213994
20
-0.218924
0
VERTEX
8
0
10
-0.214488
20
-0.218100
0
VERTEX
8
0
10
-0.215057
20
-0.217333
0
VERTEX
8
0
10
-0.215698
20
-0.216627
0
VERTEX
8
0
10
-0.216404
20
-0.215987
0
VERTEX
8
0
10
-0.217171
20
-0.215417
0
VERTEX
8
0
10
-0.217995
20
-0.214922
0
VERTEX
8
0
10
-0.218872
20
-0.214508
0
VERTEX
8
0
10
-0.219796
20
-0.214177
0
VERTEX
8
0
10
-0.220763
20
-0.213935
0
VERTEX
8
0
10
-0.221768
20
-0.213787
0
VERTEX
8
0
10
-0.222807
20
-0.213736
0
VERTEX
8
0
10
-0.287807
20
-0.213736
0
VERTEX
8
0
10
-0.288846
20
-0.213787
0
VERTEX
8
0
10
-0.289852
20
-0.213935
0
VERTEX
8
0
10
-0.290819
20
-0.214177
0
VERTEX
8
0
10
-0.291743
20
-0.214508
0
VERTEX
8
0
10
-0.292619
20
-0.214922
0
VERTEX
8
0
10
-0.293443
20
-0.215417
0
VERTEX
8
0
10
-0.294211
20
-0.215987
0
VERTEX
8
0
10
-0.294917
20
-0.216627
0
VERTEX
8
0
10
-0.295557
20
-0.217333
0
VERTEX
8
0
10
-0.296126
20
-0.218100
0
VERTEX
8
0
10
-0.296620
20
-0.218924
0
VERTEX
8
0
10
-0.297035
20
-0.219801
0
VERTEX
8
0
10
-0.297366
20
-0.220725
0
VERTEX
8
0
10
-0.297608
20
-0.221692
0
VERTEX
8
0
10
-0.297757
20
-0.222697
0
VERTEX
8
0
10
-0.297807
20
-0.223736
0
VERTEX
8
0
10
-0.297807
20
-0.343736
0
VERTEX
8
0
10
-0.297757
20
-0.344776
0
VERTEX
8
0
10
-0.297608
20
-0.345781
0
VERTEX
8
0
10
-0.297366
20
-0.346748
0
VERTEX
8
0
10
-0.297035
20
-0.347672
0
VERTEX
8
0
10
-0.296620
20
-0.348548
0
VERTEX
8
0
10
-0.296126
20
-0.349372
0
VERTEX
8
0
10
-0.295557
20
-0.350139
0
VERTEX
8
0
10
-0.294917
20
-0.350846
0
VERTEX
8
0
10
-0.294211
20
-0.351486
0
VERTEX
8
0
10
-0.293443
20
-0.352055
0
VERTEX
8
0
10
-0.292619
20
-0.352550
0
VERTEX
8
0
10
-0.291743
20
-0.352965
0
VERTEX
8
0
10
-0.290819
20
-0.353295
0
VERTEX
8
0
10
-0.289852
20
-0.353537
0
VERTEX
8
0
10
-0.288846
20
-0.353686
0
VERTEX
8
0
10
-0.287807
20
-0.353736
0
SEQEND
8
0
0
POLYLINE
8
0
66
1
40
0.008000
41
0.008000
0
VERTEX
8
0
10
-0.952157
20
-0.878224
0
VERTEX
8
0
10
0.952157
20
-0.878224
0
VERTEX
8
0
10
0.952157
20
1.161933
0
VERTEX
8
0
10
-0.952157
20
1.161933
0
VERTEX
8
0
10
-0.952157
20
-0.878224
0
SEQEND
8
0
0
POLYLINE
8
0
66
1
40
0.006000
41
0.006000
0
VERTEX
8
0
10
0.025992
20
-1.112933
0
VERTEX
8
0
10
0.050992
20
-1.162933
0
SEQEND
8
0
0
POLYLINE
8
0
66
1
40
0.006000
41
0.006000
0
VERTEX
8
0
10
0.075992
20
-1.112933
0
VERTEX
8
0
10
0.050992
20
-1.162933
0
SEQEND
8
0
0
POLYLINE
8
0
66
1
40
0.006000
41
0.006000
0
VERTEX
8
0
10
-0.248008
20
-1.112933
0
VERTEX
8
0
10
0.223992
20
-1.112933
0
VERTEX
8
0
10
0.223992
20
-0.462933
0
VERTEX
8
0
10
-0.248008
20
-0.462933
0
VERTEX
8
0
10
-0.248008
20
-1.112933
0
SEQEND
8
0
0
TEXT
8
0
10
-0.087008
20
-0.453933
40
0.048000
41
1.041667
1
J13
0
POLYLINE
8
0
66
1
40
0.008000
41
0.008000
0
VERTEX
8
0
10
0.587803
20
0.104453
0
VERTEX
8
0
10
-0.762197
20
0.104453
0
VERTEX
8
0
10
-0.762197
20
-0.095547
0
VERTEX
8
0
10
0.587803
20
-0.095547
0
SEQEND
8
0
0
POLYLINE
8
0
66
1
40
0.008000
41
0.008000
0
VERTEX
8
0
10
0.587803
20
0.104453
0
VERTEX
8
0
10
0.587803
20
0.054453
0
SEQEND
8
0
0
POLYLINE
8
0
66
1
40
0.008000
41
0.008000
0
VERTEX
8
0
10
0.587803
20
-0.095547
0
VERTEX
8
0
10
0.587803
20
-0.045547
0
SEQEND
8
0
0
POLYLINE
8
0
66
1
40
0.008000
41
0.008000
0
VERTEX
8
0
10
0.587803
20
0.054453
0
VERTEX
8
0
10
0.577580
20
0.053458
0
VERTEX
8
0
10
0.568125
20
0.050595
0
VERTEX
8
0
10
0.559623
20
0.046048
0
VERTEX
8
0
10
0.552256
20
0.040000
0
VERTEX
8
0
10
0.546208
20
0.032633
0
VERTEX
8
0
10
0.541661
20
0.024130
0
VERTEX
8
0
10
0.538798
20
0.014676
0
VERTEX
8
0
10
0.537803
20
0.004453
0
SEQEND
8
0
0
POLYLINE
8
0
66
1
40
0.008000
41
0.008000
0
VERTEX
8
0
10
0.587803
20
-0.045547
0
VERTEX
8
0
10
0.577580
20
-0.044552
0
VERTEX
8
0
10
0.568125
20
-0.041690
0
VERTEX
8
0
10
0.559623
20
-0.037143
0
VERTEX
8
0
10
0.552256
20
-0.031094
0
VERTEX
8
0
10
0.546208
20
-0.023727
0
VERTEX
8
0
10
0.541661
20
-0.015225
0
VERTEX
8
0
10
0.538798
20
-0.005771
0
VERTEX
8
0
10
0.537803
20
0.004453
0
SEQEND
8
0
0
CIRCLE
8
0
10
0.567803
20
0.088453
40
0.002828
0
TEXT
8
0
10
0.419102
20
0.009311
40
0.048000
41
1.041667
1
U1
0
CIRCLE
8
0
10
-0.682472
20
0.338311
40
0.100000
0
POLYLINE
8
0
66
1
40
0.008000
41
0.008000
0
VERTEX
8
0
10
-0.757472
20
0.388311
0
VERTEX
8
0
10
-0.707472
20
0.388311
0
SEQEND
8
0
0
POLYLINE
8
0
66
1
40
0.008000
41
0.008000
0
VERTEX
8
0
10
-0.732472
20
0.413311
0
VERTEX
8
0
10
-0.732472
20
0.363311
0
SEQEND
8
0
0
TEXT
8
0
10
-0.732835
20
0.448311
40
0.048000
41
1.041667
1
C1
0
POLYLINE
8
0
66
1
40
0.008000
41
0.008000
0
VERTEX
8
0
10
-0.116331
20
0.242248
0
VERTEX
8
0
10
-0.416331
20
0.242248
0
VERTEX
8
0
10
-0.466331
20
0.292248
0
VERTEX
8
0
10
-0.466331
20
0.392248
0
VERTEX
8
0
10
-0.416331
20
0.442248
0
VERTEX
8
0
10
-0.116331
20
0.442248
0
VERTEX
8
0
10
-0.066331
20
0.392248
0
VERTEX
8
0
10
-0.066331
20
0.292248
0
VERTEX
8
0
10
-0.116331
20
0.242248
0
SEQEND
8
0
0
TEXT
8
0
10
-0.316331
20
0.184248
40
0.048000
41
1.041667
1
X1
0
POLYLINE
8
0
66
1
40
0.007874
41
0.007874
0
VERTEX
8
0
10
-0.258063
20
0.023350
0
VERTEX
8
0
10
-0.206882
20
0.023350
0
SEQEND
8
0
0
TEXT
8
0
10
-0.130205
20
0.069413
40
0.048000
41
1.041667
50
90.000000
71
2
1
C8
0
POLYLINE
8
0
66
1
40
0.007874
41
0.007874
0
VERTEX
8
0
10
-0.360425
20
0.023350
0
VERTEX
8
0
10
-0.309244
20
0.023350
0
SEQEND
8
0
0
TEXT
8
0
10
-0.370362
20
0.073350
40
0.048000
41
1.041667
50
90.000000
71
2
1
C9
0
CIRCLE
8
0
10
0.161228
20
-0.337673
40
0.000000
0
CIRCLE
8
0
10
0.161228
20
-0.337673
40
0.100000
0
POLYLINE
8
0
66
1
40
0.008000
41
0.008000
0
VERTEX
8
0
10
0.261228
20
-0.212673
0
VERTEX
8
0
10
0.261228
20
-0.262673
0
SEQEND
8
0
0
POLYLINE
8
0
66
1
40
0.008000
41
0.008000
0
VERTEX
8
0
10
0.286228
20
-0.237673
0
VERTEX
8
0
10
0.236228
20
-0.237673
0
SEQEND
8
0
0
TEXT
8
0
10
0.344228
20
-0.375173
40
0.048000
41
1.041667
50
90.000000
1
D1
0
POLYLINE
8
0
66
1
40
0.007874
41
0.007874
0
VERTEX
8
0
10
0.525402
20
0.237917
0
VERTEX
8
0
10
0.486031
20
0.237917
0
SEQEND
8
0
0
POLYLINE
8
0
66
1
40
0.007874
41
0.007874
0
VERTEX
8
0
10
0.525402
20
0.304846
0
VERTEX
8
0
10
0.486031
20
0.304846
0
SEQEND
8
0
0
TEXT
8
0
10
0.555717
20
0.314783
40
0.048000
41
1.041667
71
2
1
R1
0
POLYLINE
8
0
66
1
40
0.007874
41
0.007874
0
VERTEX
8
0
10
-0.029717
20
-0.262083
0
VERTEX
8
0
10
0.009654
20
-0.262083
0
SEQEND
8
0
0
POLYLINE
8
0
66
1
40
0.007874
41
0.007874
0
VERTEX
8
0
10
-0.029717
20
-0.329012
0
VERTEX
8
0
10
0.009654
20
-0.329012
0
SEQEND
8
0
0
TEXT
8
0
10
0.064969
20
-0.386949
40
0.048000
41
1.041667
71
2
1
R24
0
TEXT
8
0
10
0.657299
20
-0.348618
40
0.056000
41
0.714286
50
90.000000
1
GND VCC SCL SDA
0
TEXT
8
0
10
-0.851134
20
-0.224681
40
0.080000
41
1.000000
50
90.000000
1
USB-I2C
0
TEXT
8
0
10
-0.870268
20
-0.792744
40
0.064000
41
0.937500
1
JUDAPIES
0
POLYLINE
8
0
66
1
40
0.008000
41
0.008000
0
VERTEX
8
0
10
0.667748
20
-0.266728
0
VERTEX
8
0
10
0.917748
20
-0.266728
0
VERTEX
8
0
10
0.917748
20
0.233272
0
VERTEX
8
0
10
0.667748
20
0.233272
0
VERTEX
8
0
10
0.667748
20
-0.266728
0
SEQEND
8
0
0
POLYLINE
8
0
66
1
40
0.008000
41
0.008000
0
VERTEX
8
0
10
0.717748
20
-0.266728
0
VERTEX
8
0
10
0.717748
20
0.233272
0
SEQEND
8
0
0
TEXT
8
0
10
0.785748
20
-0.400728
40
0.048000
41
1.041667
50
90.000000
1
J2
0
TEXT
8
0
10
-0.000575
20
1.065083
40
0.048000
41
1.041667
50
-90.000000
1
AC
0
TEXT
8
0
10
-0.293850
20
1.063209
40
0.048000
41
1.041667
50
-90.000000
1
AC
0
TEXT
8
0
10
-0.701551
20
1.064705
40
0.048000
41
1.041667
50
-90.000000
1
V+
0
TEXT
8
0
10
-0.796039
20
1.068642
40
0.048000
41
1.041667
50
-90.000000
1
V-
0
POLYLINE
8
0
66
1
40
0.008000
41
0.008000
0
VERTEX
8
0
10
-0.867906
20
0.854626
0
VERTEX
8
0
10
0.114661
20
0.854626
0
VERTEX
8
0
10
0.114661
20
1.082972
0
VERTEX
8
0
10
-0.867906
20
1.082972
0
VERTEX
8
0
10
-0.867906
20
0.854626
0
SEQEND
8
0
0
TEXT
8
0
10
-0.903000
20
0.770138
40
0.048000
41
1.041667
1
U2
0
TEXT
8
0
10
-0.000575
20
0.746185
40
0.048000
41
1.041667
50
-90.000000
1
AC
0
TEXT
8
0
10
-0.293850
20
0.744311
40
0.048000
41
1.041667
50
-90.000000
1
AC
0
TEXT
8
0
10
-0.701551
20
0.745807
40
0.048000
41
1.041667
50
-90.000000
1
V+
0
TEXT
8
0
10
-0.796039
20
0.749744
40
0.048000
41
1.041667
50
-90.000000
1
V-
0
POLYLINE
8
0
66
1
40
0.008000
41
0.008000
0
VERTEX
8
0
10
-0.867906
20
0.535728
0
VERTEX
8
0
10
0.114661
20
0.535728
0
VERTEX
8
0
10
0.114661
20
0.764075
0
VERTEX
8
0
10
-0.867906
20
0.764075
0
VERTEX
8
0
10
-0.867906
20
0.535728
0
SEQEND
8
0
0
TEXT
8
0
10
-0.906937
20
0.466988
40
0.048000
41
1.041667
1
U3
0
POLYLINE
8
0
66
1
40
0.008000
41
0.008000
0
VERTEX
8
0
10
0.900992
20
1.072957
0
VERTEX
8
0
10
0.500992
20
1.072957
0
SEQEND
8
0
0
POLYLINE
8
0
66
1
40
0.008000
41
0.008000
0
VERTEX
8
0
10
0.900992
20
0.472957
0
VERTEX
8
0
10
0.500992
20
0.472957
0
SEQEND
8
0
0
POLYLINE
8
0
66
1
40
0.008000
41
0.008000
0
VERTEX
8
0
10
0.500992
20
1.072957
0
VERTEX
8
0
10
0.500992
20
0.472957
0
SEQEND
8
0
0
POLYLINE
8
0
66
1
40
0.008000
41
0.008000
0
VERTEX
8
0
10
0.900992
20
0.472957
0
VERTEX
8
0
10
0.900992
20
1.072957
0
SEQEND
8
0
0
TEXT
8
0
10
0.730646
20
0.348941
40
0.048000
41
1.041667
50
90.000000
1
J3
0
TEXT
8
0
10
0.466299
20
0.483980
40
0.064000
41
0.781250
50
90.000000
1
L1   O1  O2
0
POLYLINE
8
0
66
1
40
0.008000
41
0.008000
0
VERTEX
8
0
10
-0.584835
20
-0.337673
0
VERTEX
8
0
10
-0.284835
20
-0.337673
0
VERTEX
8
0
10
-0.284835
20
-0.237673
0
VERTEX
8
0
10
-0.584835
20
-0.237673
0
VERTEX
8
0
10
-0.584835
20
-0.337673
0
SEQEND
8
0
0
TEXT
8
0
10
-0.701370
20
-0.314287
40
0.048000
41
1.041667
1
J1
0
TEXT
8
0
10
-0.597827
20
-0.432224
40
0.048000
41
0.833333
1
TX RX GND
0
POLYLINE
8
0
66
1
40
0.008000
41
0.008000
0
VERTEX
8
0
10
0.747134
20
-0.169043
0
VERTEX
8
0
10
0.747134
20
-0.139043
0
SEQEND
8
0
0
POLYLINE
8
0
66
1
40
0.008000
41
0.008000
0
VERTEX
8
0
10
0.687134
20
-0.169043
0
VERTEX
8
0
10
0.687134
20
-0.139043
0
SEQEND
8
0
0
POLYLINE
8
0
66
1
40
0.008000
41
0.008000
0
VERTEX
8
0
10
0.777134
20
-0.119043
0
VERTEX
8
0
10
0.777134
20
-0.099043
0
SEQEND
8
0
0
POLYLINE
8
0
66
1
40
0.008000
41
0.008000
0
VERTEX
8
0
10
0.787134
20
-0.109043
0
VERTEX
8
0
10
0.767134
20
-0.109043
0
SEQEND
8
0
0
TEXT
8
0
10
0.865134
20
-0.218043
40
0.048000
41
1.041667
50
90.000000
71
2
1
C2
0
POLYLINE
8
0
66
1
40
0.008000
41
0.008000
0
VERTEX
8
0
10
-0.215307
20
-0.338736
0
VERTEX
8
0
10
-0.177307
20
-0.338736
0
SEQEND
8
0
0
POLYLINE
8
0
66
1
40
0.008000
41
0.008000
0
VERTEX
8
0
10
-0.215307
20
-0.227736
0
VERTEX
8
0
10
-0.176307
20
-0.227736
0
SEQEND
8
0
0
POLYLINE
8
0
66
1
40
0.008000
41
0.008000
0
VERTEX
8
0
10
-0.135307
20
-0.353736
0
VERTEX
8
0
10
-0.135307
20
-0.373736
0
SEQEND
8
0
0
POLYLINE
8
0
66
1
40
0.008000
41
0.008000
0
VERTEX
8
0
10
-0.145307
20
-0.363736
0
VERTEX
8
0
10
-0.125307
20
-0.363736
0
SEQEND
8
0
0
TEXT
8
0
10
-0.125244
20
-0.404177
40
0.048000
41
1.041667
71
2
1
C16
0
POLYLINE
8
0
66
1
40
0.008000
41
0.008000
0
VERTEX
8
0
10
-0.952157
20
-0.878224
0
VERTEX
8
0
10
0.952157
20
-0.878224
0
VERTEX
8
0
10
0.952157
20
1.161933
0
VERTEX
8
0
10
-0.952157
20
1.161933
0
VERTEX
8
0
10
-0.952157
20
-0.878224
0
SEQEND
8
0
0
POLYLINE
8
0
66
1
40
0.006000
41
0.006000
0
VERTEX
8
0
10
0.025992
20
-1.112933
0
VERTEX
8
0
10
0.050992
20
-1.162933
0
SEQEND
8
0
0
POLYLINE
8
0
66
1
40
0.006000
41
0.006000
0
VERTEX
8
0
10
0.075992
20
-1.112933
0
VERTEX
8
0
10
0.050992
20
-1.162933
0
SEQEND
8
0
0
POLYLINE
8
0
66
1
40
0.006000
41
0.006000
0
VERTEX
8
0
10
-0.248008
20
-1.112933
0
VERTEX
8
0
10
0.223992
20
-1.112933
0
VERTEX
8
0
10
0.223992
20
-0.462933
0
VERTEX
8
0
10
-0.248008
20
-0.462933
0
VERTEX
8
0
10
-0.248008
20
-1.112933
0
SEQEND
8
0
0
TEXT
8
0
10
-0.087008
20
-0.453933
40
0.048000
41
1.041667
1
J13
0
POLYLINE
8
0
66
1
40
0.008000
41
0.008000
0
VERTEX
8
0
10
0.587803
20
0.104453
0
VERTEX
8
0
10
-0.762197
20
0.104453
0
VERTEX
8
0
10
-0.762197
20
-0.095547
0
VERTEX
8
0
10
0.587803
20
-0.095547
0
SEQEND
8
0
0
POLYLINE
8
0
66
1
40
0.008000
41
0.008000
0
VERTEX
8
0
10
0.587803
20
0.104453
0
VERTEX
8
0
10
0.587803
20
0.054453
0
SEQEND
8
0
0
POLYLINE
8
0
66
1
40
0.008000
41
0.008000
0
VERTEX
8
0
10
0.587803
20
-0.095547
0
VERTEX
8
0
10
0.587803
20
-0.045547
0
SEQEND
8
0
0
POLYLINE
8
0
66
1
40
0.008000
41
0.008000
0
VERTEX
8
0
10
0.587803
20
0.054453
0
VERTEX
8
0
10
0.577580
20
0.053458
0
VERTEX
8
0
10
0.568125
20
0.050595
0
VERTEX
8
0
10
0.559623
20
0.046048
0
VERTEX
8
0
10
0.552256
20
0.040000
0
VERTEX
8
0
10
0.546208
20
0.032633
0
VERTEX
8
0
10
0.541661
20
0.024130
0
VERTEX
8
0
10
0.538798
20
0.014676
0
VERTEX
8
0
10
0.537803
20
0.004453
0
SEQEND
8
0
0
POLYLINE
8
0
66
1
40
0.008000
41
0.008000
0
VERTEX
8
0
10
0.587803
20
-0.045547
0
VERTEX
8
0
10
0.577580
20
-0.044552
0
VERTEX
8
0
10
0.568125
20
-0.041690
0
VERTEX
8
0
10
0.559623
20
-0.037143
0
VERTEX
8
0
10
0.552256
20
-0.031094
0
VERTEX
8
0
10
0.546208
20
-0.023727
0
VERTEX
8
0
10
0.541661
20
-0.015225
0
VERTEX
8
0
10
0.538798
20
-0.005771
0
VERTEX
8
0
10
0.537803
20
0.004453
0
SEQEND
8
0
0
CIRCLE
8
0
10
0.567803
20
0.088453
40
0.002828
0
TEXT
8
0
10
0.419102
20
0.009311
40
0.048000
41
1.041667
1
U1
0
CIRCLE
8
0
10
-0.682472
20
0.338311
40
0.100000
0
POLYLINE
8
0
66
1
40
0.008000
41
0.008000
0
VERTEX
8
0
10
-0.757472
20
0.388311
0
VERTEX
8
0
10
-0.707472
20
0.388311
0
SEQEND
8
0
0
POLYLINE
8
0
66
1
40
0.008000
41
0.008000
0
VERTEX
8
0
10
-0.732472
20
0.413311
0
VERTEX
8
0
10
-0.732472
20
0.363311
0
SEQEND
8
0
0
TEXT
8
0
10
-0.732835
20
0.448311
40
0.048000
41
1.041667
1
C1
0
POLYLINE
8
0
66
1
40
0.008000
41
0.008000
0
VERTEX
8
0
10
-0.116331
20
0.242248
0
VERTEX
8
0
10
-0.416331
20
0.242248
0
VERTEX
8
0
10
-0.466331
20
0.292248
0
VERTEX
8
0
10
-0.466331
20
0.392248
0
VERTEX
8
0
10
-0.416331
20
0.442248
0
VERTEX
8
0
10
-0.116331
20
0.442248
0
VERTEX
8
0
10
-0.066331
20
0.392248
0
VERTEX
8
0
10
-0.066331
20
0.292248
0
VERTEX
8
0
10
-0.116331
20
0.242248
0
SEQEND
8
0
0
TEXT
8
0
10
-0.316331
20
0.184248
40
0.048000
41
1.041667
1
X1
0
POLYLINE
8
0
66
1
40
0.007874
41
0.007874
0
VERTEX
8
0
10
-0.258063
20
0.023350
0
VERTEX
8
0
10
-0.206882
20
0.023350
0
SEQEND
8
0
0
TEXT
8
0
10
-0.130205
20
0.069413
40
0.048000
41
1.041667
50
90.000000
71
2
1
C8
0
POLYLINE
8
0
66
1
40
0.007874
41
0.007874
0
VERTEX
8
0
10
-0.360425
20
0.023350
0
VERTEX
8
0
10
-0.309244
20
0.023350
0
SEQEND
8
0
0
TEXT
8
0
10
-0.370362
20
0.073350
40
0.048000
41
1.041667
50
90.000000
71
2
1
C9
0
CIRCLE
8
0
10
0.161228
20
-0.337673
40
0.000000
0
CIRCLE
8
0
10
0.161228
20
-0.337673
40
0.100000
0
POLYLINE
8
0
66
1
40
0.008000
41
0.008000
0
VERTEX
8
0
10
0.261228
20
-0.212673
0
VERTEX
8
0
10
0.261228
20
-0.262673
0
SEQEND
8
0
0
POLYLINE
8
0
66
1
40
0.008000
41
0.008000
0
VERTEX
8
0
10
0.286228
20
-0.237673
0
VERTEX
8
0
10
0.236228
20
-0.237673
0
SEQEND
8
0
0
TEXT
8
0
10
0.344228
20
-0.375173
40
0.048000
41
1.041667
50
90.000000
1
D1
0
POLYLINE
8
0
66
1
40
0.007874
41
0.007874
0
VERTEX
8
0
10
0.525402
20
0.237917
0
VERTEX
8
0
10
0.486031
20
0.237917
0
SEQEND
8
0
0
POLYLINE
8
0
66
1
40
0.007874
41
0.007874
0
VERTEX
8
0
10
0.525402
20
0.304846
0
VERTEX
8
0
10
0.486031
20
0.304846
0
SEQEND
8
0
0
TEXT
8
0
10
0.555717
20
0.314783
40
0.048000
41
1.041667
71
2
1
R1
0
POLYLINE
8
0
66
1
40
0.007874
41
0.007874
0
VERTEX
8
0
10
-0.029717
20
-0.262083
0
VERTEX
8
0
10
0.009654
20
-0.262083
0
SEQEND
8
0
0
POLYLINE
8
0
66
1
40
0.007874
41
0.007874
0
VERTEX
8
0
10
-0.029717
20
-0.329012
0
VERTEX
8
0
10
0.009654
20
-0.329012
0
SEQEND
8
0
0
TEXT
8
0
10
0.064969
20
-0.386949
40
0.048000
41
1.041667
71
2
1
R24
0
TEXT
8
0
10
0.657299
20
-0.348618
40
0.056000
41
0.714286
50
90.000000
1
GND VCC SCL SDA
0
POLYLINE
8
0
66
1
40
0.000000
41
0.000000
0
VERTEX
8
0
10
-0.044677
20
0.234374
0
VERTEX
8
0
10
0.871071
20
0.234374
0
VERTEX
8
0
10
0.871071
20
0.461933
0
VERTEX
8
0
10
-0.044677
20
0.461933
0
VERTEX
8
0
10
-0.044677
20
0.234374
0
SEQEND
8
0
0
TEXT
8
0
10
-0.851134
20
-0.224681
40
0.080000
41
1.000000
50
90.000000
1
USB-I2C
0
TEXT
8
0
10
-0.870268
20
-0.792744
40
0.064000
41
0.937500
1
JUDAPIES
0
POLYLINE
8
0
66
1
40
0.008000
41
0.008000
0
VERTEX
8
0
10
0.667748
20
-0.266728
0
VERTEX
8
0
10
0.917748
20
-0.266728
0
VERTEX
8
0
10
0.917748
20
0.233272
0
VERTEX
8
0
10
0.667748
20
0.233272
0
VERTEX
8
0
10
0.667748
20
-0.266728
0
SEQEND
8
0
0
POLYLINE
8
0
66
1
40
0.008000
41
0.008000
0
VERTEX
8
0
10
0.717748
20
-0.266728
0
VERTEX
8
0
10
0.717748
20
0.233272
0
SEQEND
8
0
0
TEXT
8
0
10
0.785748
20
-0.400728
40
0.048000
41
1.041667
50
90.000000
1
J2
0
TEXT
8
0
10
-0.000575
20
1.065083
40
0.048000
41
1.041667
50
-90.000000
1
AC
0
TEXT
8
0
10
-0.293850
20
1.063209
40
0.048000
41
1.041667
50
-90.000000
1
AC
0
TEXT
8
0
10
-0.701551
20
1.064705
40
0.048000
41
1.041667
50
-90.000000
1
V+
0
TEXT
8
0
10
-0.796039
20
1.068642
40
0.048000
41
1.041667
50
-90.000000
1
V-
0
POLYLINE
8
0
66
1
40
0.008000
41
0.008000
0
VERTEX
8
0
10
-0.867906
20
0.854626
0
VERTEX
8
0
10
0.114661
20
0.854626
0
VERTEX
8
0
10
0.114661
20
1.082972
0
VERTEX
8
0
10
-0.867906
20
1.082972
0
VERTEX
8
0
10
-0.867906
20
0.854626
0
SEQEND
8
0
0
TEXT
8
0
10
-0.903000
20
0.770138
40
0.048000
41
1.041667
1
U2
0
TEXT
8
0
10
-0.000575
20
0.746185
40
0.048000
41
1.041667
50
-90.000000
1
AC
0
TEXT
8
0
10
-0.293850
20
0.744311
40
0.048000
41
1.041667
50
-90.000000
1
AC
0
TEXT
8
0
10
-0.701551
20
0.745807
40
0.048000
41
1.041667
50
-90.000000
1
V+
0
TEXT
8
0
10
-0.796039
20
0.749744
40
0.048000
41
1.041667
50
-90.000000
1
V-
0
POLYLINE
8
0
66
1
40
0.008000
41
0.008000
0
VERTEX
8
0
10
-0.867906
20
0.535728
0
VERTEX
8
0
10
0.114661
20
0.535728
0
VERTEX
8
0
10
0.114661
20
0.764075
0
VERTEX
8
0
10
-0.867906
20
0.764075
0
VERTEX
8
0
10
-0.867906
20
0.535728
0
SEQEND
8
0
0
TEXT
8
0
10
-0.906937
20
0.466988
40
0.048000
41
1.041667
1
U3
0
POLYLINE
8
0
66
1
40
0.008000
41
0.008000
0
VERTEX
8
0
10
0.900992
20
1.072957
0
VERTEX
8
0
10
0.500992
20
1.072957
0
SEQEND
8
0
0
POLYLINE
8
0
66
1
40
0.008000
41
0.008000
0
VERTEX
8
0
10
0.900992
20
0.472957
0
VERTEX
8
0
10
0.500992
20
0.472957
0
SEQEND
8
0
0
POLYLINE
8
0
66
1
40
0.008000
41
0.008000
0
VERTEX
8
0
10
0.500992
20
1.072957
0
VERTEX
8
0
10
0.500992
20
0.472957
0
SEQEND
8
0
0
POLYLINE
8
0
66
1
40
0.008000
41
0.008000
0
VERTEX
8
0
10
0.900992
20
0.472957
0
VERTEX
8
0
10
0.900992
20
1.072957
0
SEQEND
8
0
0
TEXT
8
0
10
0.730646
20
0.348941
40
0.048000
41
1.041667
50
90.000000
1
J3
0
TEXT
8
0
10
0.466299
20
0.483980
40
0.064000
41
0.781250
50
90.000000
1
L1   O1  O2
0
POLYLINE
8
0
66
1
40
0.008000
41
0.008000
0
VERTEX
8
0
10
-0.584835
20
-0.337673
0
VERTEX
8
0
10
-0.284835
20
-0.337673
0
VERTEX
8
0
10
-0.284835
20
-0.237673
0
VERTEX
8
0
10
-0.584835
20
-0.237673
0
VERTEX
8
0
10
-0.584835
20
-0.337673
0
SEQEND
8
0
0
TEXT
8
0
10
-0.701370
20
-0.314287
40
0.048000
41
1.041667
1
J1
0
TEXT
8
0
10
-0.597827
20
-0.432224
40
0.048000
41
0.833333
1
TX RX GND
0
POLYLINE
8
0
66
1
40
0.008000
41
0.008000
0
VERTEX
8
0
10
0.747134
20
-0.169043
0
VERTEX
8
0
10
0.747134
20
-0.139043
0
SEQEND
8
0
0
POLYLINE
8
0
66
1
40
0.008000
41
0.008000
0
VERTEX
8
0
10
0.687134
20
-0.169043
0
VERTEX
8
0
10
0.687134
20
-0.139043
0
SEQEND
8
0
0
POLYLINE
8
0
66
1
40
0.008000
41
0.008000
0
VERTEX
8
0
10
0.777134
20
-0.119043
0
VERTEX
8
0
10
0.777134
20
-0.099043
0
SEQEND
8
0
0
POLYLINE
8
0
66
1
40
0.008000
41
0.008000
0
VERTEX
8
0
10
0.787134
20
-0.109043
0
VERTEX
8
0
10
0.767134
20
-0.109043
0
SEQEND
8
0
0
TEXT
8
0
10
0.865134
20
-0.218043
40
0.048000
41
1.041667
50
90.000000
71
2
1
C2
0
POLYLINE
8
0
66
1
40
0.008000
41
0.008000
0
VERTEX
8
0
10
-0.215307
20
-0.338736
0
VERTEX
8
0
10
-0.177307
20
-0.338736
0
SEQEND
8
0
0
POLYLINE
8
0
66
1
40
0.008000
41
0.008000
0
VERTEX
8
0
10
-0.215307
20
-0.227736
0
VERTEX
8
0
10
-0.176307
20
-0.227736
0
SEQEND
8
0
0
POLYLINE
8
0
66
1
40
0.008000
41
0.008000
0
VERTEX
8
0
10
-0.135307
20
-0.353736
0
VERTEX
8
0
10
-0.135307
20
-0.373736
0
SEQEND
8
0
0
POLYLINE
8
0
66
1
40
0.008000
41
0.008000
0
VERTEX
8
0
10
-0.145307
20
-0.363736
0
VERTEX
8
0
10
-0.125307
20
-0.363736
0
SEQEND
8
0
0
TEXT
8
0
10
-0.125244
20
-0.404177
40
0.048000
41
1.041667
71
2
1
C16
0
ENDSEC
0
EOF

